M48
;DRILL file {KiCad (5.0.0)} date 01/06/19 20:09:15
;FORMAT={-:-/ absolute / inch / decimal}
FMAT,2
INCH,TZ
T1C0.0300
T2C0.0315
T3C0.0362
T4C0.0400
T5C0.0472
T6C0.0917
%
G90
G05
M72
T1
X6.9Y-4.1
X6.9Y-4.8
X7.Y-4.1
X7.Y-4.8
X7.1Y-4.1
X7.1Y-4.8
X7.2Y-4.1
X7.2Y-4.8
X7.3Y-4.1
X7.3Y-4.8
X7.4Y-4.1
X7.4Y-4.8
X7.5Y-4.8
X7.505Y-4.1
X7.6Y-4.1
X7.6Y-4.8
X7.7Y-4.1
X7.7Y-4.8
X7.8Y-4.1
X7.8Y-4.8
X7.9Y-4.1
X7.9Y-4.8
X8.Y-4.1
X8.Y-4.8
X8.1Y-4.1
X8.1Y-4.8
X8.2Y-4.1
X8.2Y-4.8
X4.418Y-3.55
X4.418Y-3.65
X4.418Y-3.75
X4.418Y-3.85
X4.418Y-3.95
X4.418Y-4.05
X4.418Y-4.15
X4.418Y-4.25
X8.788Y-3.55
X8.788Y-3.65
X8.788Y-3.75
X8.788Y-3.85
X8.788Y-3.95
X8.788Y-4.05
X8.788Y-4.15
X8.788Y-4.25
X7.45Y-3.05
X7.55Y-3.05
X7.65Y-3.05
X7.75Y-3.05
X7.85Y-3.05
X7.95Y-3.05
X8.05Y-3.05
X8.15Y-3.05
T2
X6.61Y-3.66
X6.7084Y-3.66
X6.31Y-3.66
X6.4084Y-3.66
X5.4Y-3.2
X5.4Y-3.5
X5.65Y-3.19
X5.65Y-3.49
X5.75Y-3.19
X5.75Y-3.49
X5.85Y-3.19
X5.85Y-3.49
X5.95Y-3.19
X5.95Y-3.49
X6.05Y-3.19
X6.05Y-3.49
X6.15Y-3.19
X6.15Y-3.49
X6.25Y-3.19
X6.25Y-3.49
X6.35Y-3.19
X6.35Y-3.49
X6.45Y-3.19
X6.45Y-3.49
X6.55Y-3.19
X6.55Y-3.49
X6.65Y-3.19
X6.65Y-3.49
X6.75Y-3.19
X6.75Y-3.49
X6.85Y-3.19
X6.85Y-3.49
X6.95Y-3.19
X6.95Y-3.49
X6.41Y-3.86
X6.6021Y-3.86
T3
X2.6567Y-3.4016
X2.6567Y-3.5
X2.7354Y-3.4016
X2.7354Y-3.5
T4
X3.04Y-2.95
X3.14Y-2.95
X3.24Y-2.95
X3.34Y-2.95
X3.4Y-4.85
X3.44Y-2.95
X3.5Y-4.85
X3.54Y-2.95
X3.6Y-4.85
X3.64Y-2.95
X3.7Y-4.85
X3.74Y-2.95
X3.8Y-4.85
X3.84Y-2.95
X3.9Y-4.85
X3.94Y-2.95
X4.Y-4.85
X4.1Y-2.95
X4.1Y-4.85
X4.2Y-2.95
X4.3Y-2.95
X4.3Y-4.85
X4.4Y-2.95
X4.4Y-4.85
X4.5Y-2.95
X4.5Y-4.85
X4.6Y-2.95
X4.6Y-4.85
X4.7Y-2.95
X4.7Y-4.85
X4.8Y-2.95
X4.8Y-4.85
T5
X9.15Y-4.0728
X9.15Y-4.25
X9.4059Y-4.0728
X9.4059Y-4.25
X9.1441Y-4.5728
X9.1441Y-4.75
X9.4Y-4.5728
X9.4Y-4.75
X9.65Y-3.0728
X9.65Y-3.25
X9.9059Y-3.0728
X9.9059Y-3.25
X9.65Y-3.5728
X9.65Y-3.75
X9.9059Y-3.5728
X9.9059Y-3.75
X9.65Y-4.0728
X9.65Y-4.25
X9.9059Y-4.0728
X9.9059Y-4.25
X9.65Y-4.5728
X9.65Y-4.75
X9.9059Y-4.5728
X9.9059Y-4.75
X9.15Y-3.0728
X9.15Y-3.25
X9.4059Y-3.0728
X9.4059Y-3.25
X9.15Y-3.5728
X9.15Y-3.75
X9.4059Y-3.5728
X9.4059Y-3.75
T6
X2.55Y-3.2138
X2.55Y-3.6878
T0
M30
