G04 #@! TF.GenerationSoftware,KiCad,Pcbnew,(5.0.0)*
G04 #@! TF.CreationDate,2019-01-06T20:08:52-08:00*
G04 #@! TF.ProjectId,pcb_v1,7063625F76312E6B696361645F706362,1.0*
G04 #@! TF.SameCoordinates,Original*
G04 #@! TF.FileFunction,Copper,L2,Bot,Signal*
G04 #@! TF.FilePolarity,Positive*
%FSLAX46Y46*%
G04 Gerber Fmt 4.6, Leading zero omitted, Abs format (unit mm)*
G04 Created by KiCad (PCBNEW (5.0.0)) date 01/06/19 20:08:52*
%MOMM*%
%LPD*%
G01*
G04 APERTURE LIST*
G04 #@! TA.AperFunction,ComponentPad*
%ADD10R,1.600000X1.600000*%
G04 #@! TD*
G04 #@! TA.AperFunction,ComponentPad*
%ADD11O,1.600000X1.600000*%
G04 #@! TD*
G04 #@! TA.AperFunction,ComponentPad*
%ADD12R,1.524000X1.524000*%
G04 #@! TD*
G04 #@! TA.AperFunction,ComponentPad*
%ADD13C,1.524000*%
G04 #@! TD*
G04 #@! TA.AperFunction,ComponentPad*
%ADD14O,1.727200X1.727200*%
G04 #@! TD*
G04 #@! TA.AperFunction,ComponentPad*
%ADD15C,1.600000*%
G04 #@! TD*
G04 #@! TA.AperFunction,ComponentPad*
%ADD16C,3.500000*%
G04 #@! TD*
G04 #@! TA.AperFunction,ComponentPad*
%ADD17C,1.700000*%
G04 #@! TD*
G04 #@! TA.AperFunction,ComponentPad*
%ADD18R,1.700000X1.700000*%
G04 #@! TD*
G04 #@! TA.AperFunction,ComponentPad*
%ADD19C,2.200000*%
G04 #@! TD*
G04 #@! TA.AperFunction,ComponentPad*
%ADD20R,2.200000X2.200000*%
G04 #@! TD*
G04 #@! TA.AperFunction,ComponentPad*
%ADD21C,1.500000*%
G04 #@! TD*
G04 #@! TA.AperFunction,Conductor*
%ADD22C,0.762000*%
G04 #@! TD*
G04 #@! TA.AperFunction,Conductor*
%ADD23C,0.254000*%
G04 #@! TD*
G04 APERTURE END LIST*
D10*
G04 #@! TO.P,U1,1*
G04 #@! TO.N,Net-(R1-Pad1)*
X143510000Y-88646000D03*
D11*
G04 #@! TO.P,U1,15*
G04 #@! TO.N,SONG-*
X176530000Y-81026000D03*
G04 #@! TO.P,U1,2*
G04 #@! TO.N,Net-(U1-Pad2)*
X146050000Y-88646000D03*
G04 #@! TO.P,U1,16*
G04 #@! TO.N,CCS*
X173990000Y-81026000D03*
G04 #@! TO.P,U1,3*
G04 #@! TO.N,Net-(U1-Pad3)*
X148590000Y-88646000D03*
G04 #@! TO.P,U1,17*
G04 #@! TO.N,SONG+*
X171450000Y-81026000D03*
G04 #@! TO.P,U1,4*
G04 #@! TO.N,LCS*
X151130000Y-88646000D03*
G04 #@! TO.P,U1,18*
G04 #@! TO.N,BR-*
X168910000Y-81026000D03*
G04 #@! TO.P,U1,5*
G04 #@! TO.N,CLK*
X153670000Y-88646000D03*
G04 #@! TO.P,U1,19*
G04 #@! TO.N,Net-(U1-Pad19)*
X166370000Y-81026000D03*
G04 #@! TO.P,U1,6*
G04 #@! TO.N,DI*
X156210000Y-88646000D03*
G04 #@! TO.P,U1,20*
G04 #@! TO.N,+5V*
X163830000Y-81026000D03*
G04 #@! TO.P,U1,7*
X158750000Y-88646000D03*
G04 #@! TO.P,U1,21*
X161290000Y-81026000D03*
G04 #@! TO.P,U1,8*
G04 #@! TO.N,GND*
X161290000Y-88646000D03*
G04 #@! TO.P,U1,22*
X158750000Y-81026000D03*
G04 #@! TO.P,U1,9*
G04 #@! TO.N,Net-(C1-Pad2)*
X163830000Y-88646000D03*
G04 #@! TO.P,U1,23*
G04 #@! TO.N,BR+*
X156210000Y-81026000D03*
G04 #@! TO.P,U1,10*
G04 #@! TO.N,Net-(C2-Pad1)*
X166370000Y-88646000D03*
G04 #@! TO.P,U1,24*
G04 #@! TO.N,MIN-*
X153670000Y-81026000D03*
G04 #@! TO.P,U1,11*
G04 #@! TO.N,LAT*
X168910000Y-88646000D03*
G04 #@! TO.P,U1,25*
G04 #@! TO.N,Net-(U1-Pad25)*
X151130000Y-81026000D03*
G04 #@! TO.P,U1,12*
G04 #@! TO.N,HR+*
X171450000Y-88646000D03*
G04 #@! TO.P,U1,26*
G04 #@! TO.N,Net-(U1-Pad26)*
X148590000Y-81026000D03*
G04 #@! TO.P,U1,13*
G04 #@! TO.N,HR-*
X173990000Y-88646000D03*
G04 #@! TO.P,U1,27*
G04 #@! TO.N,SDA*
X146050000Y-81026000D03*
G04 #@! TO.P,U1,14*
G04 #@! TO.N,MIN+*
X176530000Y-88646000D03*
G04 #@! TO.P,U1,28*
G04 #@! TO.N,SCL*
X143510000Y-81026000D03*
G04 #@! TD*
D12*
G04 #@! TO.P,U3,1*
G04 #@! TO.N,COM1*
X223214001Y-90170000D03*
D13*
G04 #@! TO.P,U3,2*
G04 #@! TO.N,COM2*
X223214001Y-92710000D03*
G04 #@! TO.P,U3,3*
G04 #@! TO.N,COM3*
X223214001Y-95250000D03*
G04 #@! TO.P,U3,4*
G04 #@! TO.N,COM4*
X223214001Y-97790000D03*
G04 #@! TO.P,U3,5*
G04 #@! TO.N,COM5*
X223214001Y-100330000D03*
G04 #@! TO.P,U3,6*
G04 #@! TO.N,SEG_B_DP3-4*
X223214001Y-102870000D03*
G04 #@! TO.P,U3,7*
G04 #@! TO.N,SEG_C_DP1*
X223214001Y-105410000D03*
G04 #@! TO.P,U3,8*
G04 #@! TO.N,SEG_D_DP2*
X223214001Y-107950000D03*
G04 #@! TO.P,U3,9*
G04 #@! TO.N,SEG_E_DP5*
X112216001Y-107950000D03*
G04 #@! TO.P,U3,10*
G04 #@! TO.N,SEG_D_DP2*
X112216001Y-105410000D03*
G04 #@! TO.P,U3,11*
G04 #@! TO.N,SEG_C_DP1*
X112216001Y-102870000D03*
G04 #@! TO.P,U3,12*
G04 #@! TO.N,SEG_B_DP3-4*
X112216001Y-100330000D03*
G04 #@! TO.P,U3,13*
G04 #@! TO.N,SEG_A*
X112216001Y-97790000D03*
G04 #@! TO.P,U3,14*
G04 #@! TO.N,SEG_G*
X112216001Y-95250000D03*
G04 #@! TO.P,U3,15*
G04 #@! TO.N,SEG_F*
X112216001Y-92710000D03*
G04 #@! TO.P,U3,16*
G04 #@! TO.N,SEG_E_DP5*
X112216001Y-90170000D03*
G04 #@! TD*
G04 #@! TO.P,U4,8*
G04 #@! TO.N,Net-(U4-Pad8)*
X189230000Y-77470000D03*
G04 #@! TO.P,U4,7*
G04 #@! TO.N,Net-(U4-Pad7)*
X191770000Y-77470000D03*
G04 #@! TO.P,U4,6*
G04 #@! TO.N,Net-(U4-Pad6)*
X194310000Y-77470000D03*
G04 #@! TO.P,U4,5*
G04 #@! TO.N,Net-(U4-Pad5)*
X196850000Y-77470000D03*
G04 #@! TO.P,U4,4*
G04 #@! TO.N,SDA*
X199390000Y-77470000D03*
G04 #@! TO.P,U4,3*
G04 #@! TO.N,SCL*
X201930000Y-77470000D03*
G04 #@! TO.P,U4,2*
G04 #@! TO.N,GND*
X204470000Y-77470000D03*
D12*
G04 #@! TO.P,U4,1*
G04 #@! TO.N,+5V*
X207010000Y-77470000D03*
G04 #@! TD*
D13*
G04 #@! TO.P,U2,28*
G04 #@! TO.N,+5V*
X175260000Y-104140000D03*
G04 #@! TO.P,U2,27*
G04 #@! TO.N,SDA*
X177800000Y-104140000D03*
G04 #@! TO.P,U2,26*
G04 #@! TO.N,SCL*
X180340000Y-104140000D03*
G04 #@! TO.P,U2,25*
G04 #@! TO.N,SEG_A*
X182880000Y-104140000D03*
G04 #@! TO.P,U2,24*
G04 #@! TO.N,SEG_B_DP3-4*
X185420000Y-104140000D03*
G04 #@! TO.P,U2,23*
G04 #@! TO.N,SEG_C_DP1*
X187960000Y-104140000D03*
G04 #@! TO.P,U2,22*
G04 #@! TO.N,SEG_D_DP2*
X190627000Y-104140000D03*
G04 #@! TO.P,U2,21*
G04 #@! TO.N,SEG_E_DP5*
X193040000Y-104140000D03*
G04 #@! TO.P,U2,20*
G04 #@! TO.N,SEG_F*
X195580000Y-104140000D03*
G04 #@! TO.P,U2,19*
G04 #@! TO.N,SEG_G*
X198120000Y-104140000D03*
G04 #@! TO.P,U2,18*
G04 #@! TO.N,Net-(U2-Pad18)*
X200660000Y-104140000D03*
G04 #@! TO.P,U2,17*
G04 #@! TO.N,Net-(U2-Pad17)*
X203200000Y-104140000D03*
G04 #@! TO.P,U2,16*
G04 #@! TO.N,Net-(U2-Pad16)*
X205740000Y-104140000D03*
G04 #@! TO.P,U2,15*
G04 #@! TO.N,Net-(U2-Pad15)*
X208280000Y-104140000D03*
D12*
G04 #@! TO.P,U2,1*
G04 #@! TO.N,GND*
X175260000Y-121920000D03*
D13*
G04 #@! TO.P,U2,2*
G04 #@! TO.N,COM2*
X177800000Y-121920000D03*
G04 #@! TO.P,U2,3*
G04 #@! TO.N,COM3*
X180340000Y-121920000D03*
G04 #@! TO.P,U2,4*
G04 #@! TO.N,COM4*
X182880000Y-121920000D03*
G04 #@! TO.P,U2,5*
G04 #@! TO.N,COM5*
X185420000Y-121920000D03*
G04 #@! TO.P,U2,6*
G04 #@! TO.N,COM1*
X187960000Y-121920000D03*
G04 #@! TO.P,U2,7*
G04 #@! TO.N,Net-(U2-Pad7)*
X190500000Y-121920000D03*
G04 #@! TO.P,U2,8*
G04 #@! TO.N,Net-(U2-Pad8)*
X193040000Y-121920000D03*
G04 #@! TO.P,U2,9*
G04 #@! TO.N,Net-(U2-Pad9)*
X195580000Y-121920000D03*
G04 #@! TO.P,U2,10*
G04 #@! TO.N,Net-(U2-Pad10)*
X198120000Y-121920000D03*
G04 #@! TO.P,U2,11*
G04 #@! TO.N,Net-(U2-Pad11)*
X200660000Y-121920000D03*
G04 #@! TO.P,U2,12*
G04 #@! TO.N,Net-(U2-Pad12)*
X203200000Y-121920000D03*
G04 #@! TO.P,U2,13*
G04 #@! TO.N,Net-(U2-Pad13)*
X205740000Y-121920000D03*
G04 #@! TO.P,U2,14*
G04 #@! TO.N,Net-(U2-Pad14)*
X208280000Y-121920000D03*
G04 #@! TD*
D14*
G04 #@! TO.P,SHIELD1,A5*
G04 #@! TO.N,Net-(SHIELD1-PadA5)*
X121920000Y-123190000D03*
G04 #@! TO.P,SHIELD1,A4*
G04 #@! TO.N,Net-(SHIELD1-PadA4)*
X119380000Y-123190000D03*
G04 #@! TO.P,SHIELD1,A3*
G04 #@! TO.N,Net-(SHIELD1-PadA3)*
X116840000Y-123190000D03*
G04 #@! TO.P,SHIELD1,A2*
G04 #@! TO.N,Net-(SHIELD1-PadA2)*
X114300000Y-123190000D03*
G04 #@! TO.P,SHIELD1,A1*
G04 #@! TO.N,Net-(SHIELD1-PadA1)*
X111760000Y-123190000D03*
G04 #@! TO.P,SHIELD1,NC*
G04 #@! TO.N,Net-(SHIELD1-PadNC)*
X86360000Y-123190000D03*
G04 #@! TO.P,SHIELD1,D11*
G04 #@! TO.N,Net-(SHIELD1-PadD11)*
X92456000Y-74930000D03*
G04 #@! TO.P,SHIELD1,D12*
G04 #@! TO.N,Net-(SHIELD1-PadD12)*
X89916000Y-74930000D03*
G04 #@! TO.P,SHIELD1,D13*
G04 #@! TO.N,Net-(SHIELD1-PadD13)*
X87376000Y-74930000D03*
G04 #@! TO.P,SHIELD1,AREF*
G04 #@! TO.N,Net-(SHIELD1-PadAREF)*
X82296000Y-74930000D03*
G04 #@! TO.P,SHIELD1,SDA*
G04 #@! TO.N,Net-(SHIELD1-PadSDA)*
X79756000Y-74930000D03*
G04 #@! TO.P,SHIELD1,SCL*
G04 #@! TO.N,Net-(SHIELD1-PadSCL)*
X77216000Y-74930000D03*
G04 #@! TO.P,SHIELD1,D10*
G04 #@! TO.N,CCS*
X94996000Y-74930000D03*
G04 #@! TO.P,SHIELD1,D9*
G04 #@! TO.N,Net-(SHIELD1-PadD9)*
X97536000Y-74930000D03*
G04 #@! TO.P,SHIELD1,D8*
G04 #@! TO.N,Net-(SHIELD1-PadD8)*
X100076000Y-74930000D03*
G04 #@! TO.P,SHIELD1,GND3*
G04 #@! TO.N,GND*
X84836000Y-74930000D03*
G04 #@! TO.P,SHIELD1,D7*
G04 #@! TO.N,Net-(SHIELD1-PadD7)*
X104140000Y-74930000D03*
G04 #@! TO.P,SHIELD1,D6*
G04 #@! TO.N,Net-(SHIELD1-PadD6)*
X106680000Y-74930000D03*
G04 #@! TO.P,SHIELD1,D5*
G04 #@! TO.N,LAT*
X109220000Y-74930000D03*
G04 #@! TO.P,SHIELD1,D4*
G04 #@! TO.N,DI*
X111760000Y-74930000D03*
G04 #@! TO.P,SHIELD1,D3*
G04 #@! TO.N,CLK*
X114300000Y-74930000D03*
G04 #@! TO.P,SHIELD1,D2*
G04 #@! TO.N,LCS*
X116840000Y-74930000D03*
G04 #@! TO.P,SHIELD1,D1*
G04 #@! TO.N,Net-(SHIELD1-PadD1)*
X119380000Y-74930000D03*
G04 #@! TO.P,SHIELD1,D0*
G04 #@! TO.N,Net-(SHIELD1-PadD0)*
X121920000Y-74930000D03*
G04 #@! TO.P,SHIELD1,IORF*
G04 #@! TO.N,Net-(SHIELD1-PadIORF)*
X88900000Y-123190000D03*
G04 #@! TO.P,SHIELD1,RST1*
G04 #@! TO.N,Net-(SHIELD1-PadRST1)*
X91440000Y-123190000D03*
G04 #@! TO.P,SHIELD1,3V3*
G04 #@! TO.N,Net-(SHIELD1-Pad3V3)*
X93980000Y-123190000D03*
G04 #@! TO.P,SHIELD1,5VA*
G04 #@! TO.N,+5V*
X96520000Y-123190000D03*
G04 #@! TO.P,SHIELD1,GND1*
G04 #@! TO.N,GND*
X99060000Y-123190000D03*
G04 #@! TO.P,SHIELD1,GND2*
X101600000Y-123190000D03*
G04 #@! TO.P,SHIELD1,V_IN*
G04 #@! TO.N,Net-(SHIELD1-PadV_IN)*
X104140000Y-123190000D03*
G04 #@! TO.P,SHIELD1,A0*
G04 #@! TO.N,Net-(SHIELD1-PadA0)*
X109220000Y-123190000D03*
G04 #@! TD*
D15*
G04 #@! TO.P,C1,2*
G04 #@! TO.N,Net-(C1-Pad2)*
X162774000Y-92964000D03*
G04 #@! TO.P,C1,1*
G04 #@! TO.N,GND*
X160274000Y-92964000D03*
G04 #@! TD*
G04 #@! TO.P,C2,2*
G04 #@! TO.N,GND*
X170394000Y-92964000D03*
G04 #@! TO.P,C2,1*
G04 #@! TO.N,Net-(C2-Pad1)*
X167894000Y-92964000D03*
G04 #@! TD*
D16*
G04 #@! TO.P,J1,5*
G04 #@! TO.N,GND*
X64770000Y-81630000D03*
X64770000Y-93670000D03*
D17*
G04 #@! TO.P,J1,4*
X67480000Y-88900000D03*
G04 #@! TO.P,J1,3*
G04 #@! TO.N,Net-(J1-Pad3)*
X67480000Y-86400000D03*
G04 #@! TO.P,J1,2*
G04 #@! TO.N,Net-(J1-Pad2)*
X69480000Y-86400000D03*
D18*
G04 #@! TO.P,J1,1*
G04 #@! TO.N,+5V*
X69480000Y-88900000D03*
G04 #@! TD*
D11*
G04 #@! TO.P,R1,2*
G04 #@! TO.N,+5V*
X137160000Y-81280000D03*
D15*
G04 #@! TO.P,R1,1*
G04 #@! TO.N,Net-(R1-Pad1)*
X137160000Y-88900000D03*
G04 #@! TD*
D19*
G04 #@! TO.P,S1,3*
G04 #@! TO.N,GND*
X251610000Y-82550000D03*
G04 #@! TO.P,S1,4*
X245110000Y-82550000D03*
G04 #@! TO.P,S1,2*
G04 #@! TO.N,SONG-*
X245110000Y-78050000D03*
D20*
G04 #@! TO.P,S1,1*
X251610000Y-78050000D03*
G04 #@! TD*
D19*
G04 #@! TO.P,S2,3*
G04 #@! TO.N,GND*
X238910000Y-82550000D03*
G04 #@! TO.P,S2,4*
X232410000Y-82550000D03*
G04 #@! TO.P,S2,2*
G04 #@! TO.N,SONG+*
X232410000Y-78050000D03*
D20*
G04 #@! TO.P,S2,1*
X238910000Y-78050000D03*
G04 #@! TD*
D19*
G04 #@! TO.P,S3,3*
G04 #@! TO.N,GND*
X251610000Y-95250000D03*
G04 #@! TO.P,S3,4*
X245110000Y-95250000D03*
G04 #@! TO.P,S3,2*
G04 #@! TO.N,BR-*
X245110000Y-90750000D03*
D20*
G04 #@! TO.P,S3,1*
X251610000Y-90750000D03*
G04 #@! TD*
D19*
G04 #@! TO.P,S4,3*
G04 #@! TO.N,GND*
X238910000Y-95250000D03*
G04 #@! TO.P,S4,4*
X232410000Y-95250000D03*
G04 #@! TO.P,S4,2*
G04 #@! TO.N,BR+*
X232410000Y-90750000D03*
D20*
G04 #@! TO.P,S4,1*
X238910000Y-90750000D03*
G04 #@! TD*
D19*
G04 #@! TO.P,S5,3*
G04 #@! TO.N,GND*
X251610000Y-107950000D03*
G04 #@! TO.P,S5,4*
X245110000Y-107950000D03*
G04 #@! TO.P,S5,2*
G04 #@! TO.N,MIN-*
X245110000Y-103450000D03*
D20*
G04 #@! TO.P,S5,1*
X251610000Y-103450000D03*
G04 #@! TD*
D19*
G04 #@! TO.P,S6,3*
G04 #@! TO.N,GND*
X238910000Y-107950000D03*
G04 #@! TO.P,S6,4*
X232410000Y-107950000D03*
G04 #@! TO.P,S6,2*
G04 #@! TO.N,MIN+*
X232410000Y-103450000D03*
D20*
G04 #@! TO.P,S6,1*
X238910000Y-103450000D03*
G04 #@! TD*
D19*
G04 #@! TO.P,S7,3*
G04 #@! TO.N,GND*
X251610000Y-120650000D03*
G04 #@! TO.P,S7,4*
X245110000Y-120650000D03*
G04 #@! TO.P,S7,2*
G04 #@! TO.N,HR-*
X245110000Y-116150000D03*
D20*
G04 #@! TO.P,S7,1*
X251610000Y-116150000D03*
G04 #@! TD*
D19*
G04 #@! TO.P,S8,3*
G04 #@! TO.N,GND*
X238760000Y-120650000D03*
G04 #@! TO.P,S8,4*
X232260000Y-120650000D03*
G04 #@! TO.P,S8,2*
G04 #@! TO.N,HR+*
X232260000Y-116150000D03*
D20*
G04 #@! TO.P,S8,1*
X238760000Y-116150000D03*
G04 #@! TD*
D21*
G04 #@! TO.P,Y1,2*
G04 #@! TO.N,Net-(C2-Pad1)*
X167694000Y-98044000D03*
G04 #@! TO.P,Y1,1*
G04 #@! TO.N,Net-(C1-Pad2)*
X162814000Y-98044000D03*
G04 #@! TD*
D22*
G04 #@! TO.N,+5V*
X78712000Y-81280000D02*
X137160000Y-81280000D01*
X71092000Y-88900000D02*
X78712000Y-81280000D01*
X69480000Y-88900000D02*
X71092000Y-88900000D01*
D23*
G04 #@! TO.N,CCS*
X173990000Y-81026000D02*
X172300989Y-79336989D01*
X110515399Y-75552388D02*
X114300000Y-79336989D01*
X110515399Y-74383389D02*
X110515399Y-75552388D01*
X109817409Y-73685399D02*
X110515399Y-74383389D01*
X96240601Y-73685399D02*
X109817409Y-73685399D01*
X94996000Y-74930000D02*
X96240601Y-73685399D01*
X172300989Y-79336989D02*
X114300000Y-79336989D01*
G04 #@! TO.N,LAT*
X140850903Y-83223021D02*
X137472881Y-79844999D01*
X168910000Y-88646000D02*
X163487021Y-83223021D01*
X163487021Y-83223021D02*
X140850903Y-83223021D01*
X112913685Y-79844999D02*
X137472881Y-79844999D01*
X109220000Y-76151314D02*
X112913685Y-79844999D01*
X109220000Y-74930000D02*
X109220000Y-76151314D01*
G04 #@! TO.N,SDA*
X199390000Y-82804000D02*
X199390000Y-77470000D01*
X178943001Y-102996999D02*
X179334883Y-102996999D01*
X177800000Y-104140000D02*
X178943001Y-102996999D01*
X179334883Y-102996999D02*
X199390000Y-82941882D01*
X199301011Y-82715011D02*
X199390000Y-82804000D01*
X147739011Y-82715011D02*
X199301011Y-82715011D01*
X146050000Y-81026000D02*
X147739011Y-82715011D01*
X199390000Y-82941882D02*
X199390000Y-82804000D01*
G04 #@! TO.N,SCL*
X201930000Y-82550000D02*
X201930000Y-77470000D01*
X180340000Y-104140000D02*
X201930000Y-82550000D01*
X144309999Y-80226001D02*
X143510000Y-81026000D01*
X144691001Y-79844999D02*
X144309999Y-80226001D01*
X169476881Y-79844999D02*
X144691001Y-79844999D01*
X170091001Y-80459119D02*
X169476881Y-79844999D01*
X170091001Y-81445001D02*
X170091001Y-80459119D01*
X170853001Y-82207001D02*
X170091001Y-81445001D01*
X174556881Y-82207001D02*
X170853001Y-82207001D01*
X175171001Y-81592881D02*
X174556881Y-82207001D01*
X175171001Y-80606999D02*
X175171001Y-81592881D01*
X179451001Y-76326999D02*
X175171001Y-80606999D01*
X200786999Y-76326999D02*
X179451001Y-76326999D01*
X201930000Y-77470000D02*
X200786999Y-76326999D01*
G04 #@! TO.N,SEG_E_DP5*
X189230000Y-107950000D02*
X112216001Y-107950000D01*
X193040000Y-104140000D02*
X189230000Y-107950000D01*
X111073000Y-91313001D02*
X112216001Y-90170000D01*
X111073000Y-106806999D02*
X111073000Y-91313001D01*
X112216001Y-107950000D02*
X111073000Y-106806999D01*
G04 #@! TO.N,SEG_D_DP2*
X187578980Y-107188020D02*
X153162020Y-107188020D01*
X190627000Y-104140000D02*
X187578980Y-107188020D01*
X151384000Y-105410000D02*
X112216001Y-105410000D01*
X153162020Y-107188020D02*
X151384000Y-105410000D01*
X192405000Y-102362000D02*
X190627000Y-104140000D01*
X217626001Y-102362000D02*
X192405000Y-102362000D01*
X223214001Y-107950000D02*
X217626001Y-102362000D01*
G04 #@! TO.N,SEG_C_DP1*
X186497620Y-106680010D02*
X153416010Y-106680010D01*
X187960000Y-104140000D02*
X187960000Y-105217630D01*
X187960000Y-105217630D02*
X186497620Y-106680010D01*
X149606000Y-102870000D02*
X112268000Y-102870000D01*
X153416010Y-106680010D02*
X149606000Y-102870000D01*
X190246009Y-101853991D02*
X187960000Y-104140000D01*
X219657992Y-101853991D02*
X190246009Y-101853991D01*
X223214001Y-105410000D02*
X219657992Y-101853991D01*
G04 #@! TO.N,SEG_B_DP3-4*
X183388000Y-106172000D02*
X153670000Y-106172000D01*
X185420000Y-104140000D02*
X183388000Y-106172000D01*
X147828000Y-100330000D02*
X112216001Y-100330000D01*
X153670000Y-106172000D02*
X147828000Y-100330000D01*
X223214001Y-102870000D02*
X221436001Y-101092000D01*
X188468000Y-101092000D02*
X185420000Y-104140000D01*
X221436001Y-101092000D02*
X188468000Y-101092000D01*
G04 #@! TO.N,SEG_A*
X181736999Y-105283001D02*
X153543001Y-105283001D01*
X182880000Y-104140000D02*
X181736999Y-105283001D01*
X146050000Y-97790000D02*
X112216001Y-97790000D01*
X153543001Y-105283001D02*
X146050000Y-97790000D01*
G04 #@! TD*
G04 #@! TO.N,GND*
G36*
X71765259Y-73663974D02*
X71425000Y-74485431D01*
X71425000Y-75374569D01*
X71765259Y-76196026D01*
X72393974Y-76824741D01*
X73215431Y-77165000D01*
X74104569Y-77165000D01*
X74926026Y-76824741D01*
X75554741Y-76196026D01*
X75824472Y-75544839D01*
X76135570Y-76010430D01*
X76631275Y-76341650D01*
X77068402Y-76428600D01*
X77363598Y-76428600D01*
X77800725Y-76341650D01*
X78296430Y-76010430D01*
X78486000Y-75726719D01*
X78675570Y-76010430D01*
X79171275Y-76341650D01*
X79608402Y-76428600D01*
X79903598Y-76428600D01*
X80340725Y-76341650D01*
X80836430Y-76010430D01*
X81026000Y-75726719D01*
X81215570Y-76010430D01*
X81711275Y-76341650D01*
X82148402Y-76428600D01*
X82443598Y-76428600D01*
X82880725Y-76341650D01*
X83376430Y-76010430D01*
X83569037Y-75722174D01*
X83947510Y-76136821D01*
X84476973Y-76384968D01*
X84709000Y-76264469D01*
X84709000Y-75057000D01*
X84689000Y-75057000D01*
X84689000Y-74803000D01*
X84709000Y-74803000D01*
X84709000Y-73595531D01*
X84476973Y-73475032D01*
X83947510Y-73723179D01*
X83569037Y-74137826D01*
X83376430Y-73849570D01*
X82880725Y-73518350D01*
X82443598Y-73431400D01*
X82148402Y-73431400D01*
X81711275Y-73518350D01*
X81215570Y-73849570D01*
X81026000Y-74133281D01*
X80836430Y-73849570D01*
X80340725Y-73518350D01*
X79903598Y-73431400D01*
X79608402Y-73431400D01*
X79171275Y-73518350D01*
X78675570Y-73849570D01*
X78486000Y-74133281D01*
X78296430Y-73849570D01*
X77800725Y-73518350D01*
X77363598Y-73431400D01*
X77068402Y-73431400D01*
X76631275Y-73518350D01*
X76135570Y-73849570D01*
X75824472Y-74315161D01*
X75554741Y-73663974D01*
X74990767Y-73100000D01*
X95745150Y-73100000D01*
X95691230Y-73136028D01*
X95648719Y-73199650D01*
X95371614Y-73476755D01*
X95143598Y-73431400D01*
X94848402Y-73431400D01*
X94411275Y-73518350D01*
X93915570Y-73849570D01*
X93726000Y-74133281D01*
X93536430Y-73849570D01*
X93040725Y-73518350D01*
X92603598Y-73431400D01*
X92308402Y-73431400D01*
X91871275Y-73518350D01*
X91375570Y-73849570D01*
X91186000Y-74133281D01*
X90996430Y-73849570D01*
X90500725Y-73518350D01*
X90063598Y-73431400D01*
X89768402Y-73431400D01*
X89331275Y-73518350D01*
X88835570Y-73849570D01*
X88646000Y-74133281D01*
X88456430Y-73849570D01*
X87960725Y-73518350D01*
X87523598Y-73431400D01*
X87228402Y-73431400D01*
X86791275Y-73518350D01*
X86295570Y-73849570D01*
X86102963Y-74137826D01*
X85724490Y-73723179D01*
X85195027Y-73475032D01*
X84963000Y-73595531D01*
X84963000Y-74803000D01*
X84983000Y-74803000D01*
X84983000Y-75057000D01*
X84963000Y-75057000D01*
X84963000Y-76264469D01*
X85195027Y-76384968D01*
X85724490Y-76136821D01*
X86102963Y-75722174D01*
X86295570Y-76010430D01*
X86791275Y-76341650D01*
X87228402Y-76428600D01*
X87523598Y-76428600D01*
X87960725Y-76341650D01*
X88456430Y-76010430D01*
X88646000Y-75726719D01*
X88835570Y-76010430D01*
X89331275Y-76341650D01*
X89768402Y-76428600D01*
X90063598Y-76428600D01*
X90500725Y-76341650D01*
X90996430Y-76010430D01*
X91186000Y-75726719D01*
X91375570Y-76010430D01*
X91871275Y-76341650D01*
X92308402Y-76428600D01*
X92603598Y-76428600D01*
X93040725Y-76341650D01*
X93536430Y-76010430D01*
X93726000Y-75726719D01*
X93915570Y-76010430D01*
X94411275Y-76341650D01*
X94848402Y-76428600D01*
X95143598Y-76428600D01*
X95580725Y-76341650D01*
X96076430Y-76010430D01*
X96266000Y-75726719D01*
X96455570Y-76010430D01*
X96951275Y-76341650D01*
X97388402Y-76428600D01*
X97683598Y-76428600D01*
X98120725Y-76341650D01*
X98616430Y-76010430D01*
X98806000Y-75726719D01*
X98995570Y-76010430D01*
X99491275Y-76341650D01*
X99928402Y-76428600D01*
X100223598Y-76428600D01*
X100660725Y-76341650D01*
X101156430Y-76010430D01*
X101487650Y-75514725D01*
X101603959Y-74930000D01*
X101507964Y-74447399D01*
X102708036Y-74447399D01*
X102612041Y-74930000D01*
X102728350Y-75514725D01*
X103059570Y-76010430D01*
X103555275Y-76341650D01*
X103992402Y-76428600D01*
X104287598Y-76428600D01*
X104724725Y-76341650D01*
X105220430Y-76010430D01*
X105410000Y-75726719D01*
X105599570Y-76010430D01*
X106095275Y-76341650D01*
X106532402Y-76428600D01*
X106827598Y-76428600D01*
X107264725Y-76341650D01*
X107760430Y-76010430D01*
X107950000Y-75726719D01*
X108139570Y-76010430D01*
X108457275Y-76222714D01*
X108502213Y-76448631D01*
X108619603Y-76624317D01*
X108670630Y-76700685D01*
X108734251Y-76743195D01*
X112255055Y-80264000D01*
X78812063Y-80264000D01*
X78711999Y-80244096D01*
X78611935Y-80264000D01*
X78315577Y-80322949D01*
X78315576Y-80322950D01*
X78315575Y-80322950D01*
X78303906Y-80330747D01*
X77979505Y-80547505D01*
X77922822Y-80632337D01*
X70857969Y-87697191D01*
X70787809Y-87592191D01*
X70577765Y-87451843D01*
X70536477Y-87443630D01*
X70738922Y-87241185D01*
X70965000Y-86695385D01*
X70965000Y-86104615D01*
X70738922Y-85558815D01*
X70321185Y-85141078D01*
X69775385Y-84915000D01*
X69184615Y-84915000D01*
X68638815Y-85141078D01*
X68480000Y-85299893D01*
X68321185Y-85141078D01*
X67775385Y-84915000D01*
X67184615Y-84915000D01*
X66638815Y-85141078D01*
X66221078Y-85558815D01*
X65995000Y-86104615D01*
X65995000Y-86695385D01*
X66221078Y-87241185D01*
X66638815Y-87658922D01*
X66673963Y-87673481D01*
X66615647Y-87856042D01*
X67480000Y-88720395D01*
X67494143Y-88706253D01*
X67673748Y-88885858D01*
X67659605Y-88900000D01*
X67673748Y-88914143D01*
X67494143Y-89093748D01*
X67480000Y-89079605D01*
X66615647Y-89943958D01*
X66695920Y-90195259D01*
X67251279Y-90396718D01*
X67841458Y-90370315D01*
X68195761Y-90223558D01*
X68382235Y-90348157D01*
X68630000Y-90397440D01*
X70330000Y-90397440D01*
X70577765Y-90348157D01*
X70787809Y-90207809D01*
X70928157Y-89997765D01*
X70944421Y-89916000D01*
X70991937Y-89916000D01*
X71092000Y-89935904D01*
X71192063Y-89916000D01*
X71192065Y-89916000D01*
X71488423Y-89857051D01*
X71824495Y-89632495D01*
X71881180Y-89547660D01*
X79132841Y-82296000D01*
X136113010Y-82296000D01*
X136125423Y-82314577D01*
X136600091Y-82631740D01*
X137018667Y-82715000D01*
X137301333Y-82715000D01*
X137719909Y-82631740D01*
X138194577Y-82314577D01*
X138463042Y-81912791D01*
X140259020Y-83708769D01*
X140301532Y-83772392D01*
X140553586Y-83940809D01*
X140775855Y-83985021D01*
X140775856Y-83985021D01*
X140850903Y-83999949D01*
X140925950Y-83985021D01*
X163171391Y-83985021D01*
X166397370Y-87211000D01*
X166228667Y-87211000D01*
X165810091Y-87294260D01*
X165335423Y-87611423D01*
X165100000Y-87963758D01*
X164864577Y-87611423D01*
X164389909Y-87294260D01*
X163971333Y-87211000D01*
X163688667Y-87211000D01*
X163270091Y-87294260D01*
X162795423Y-87611423D01*
X162539053Y-87995108D01*
X162442389Y-87790866D01*
X162027423Y-87414959D01*
X161639039Y-87254096D01*
X161417000Y-87376085D01*
X161417000Y-88519000D01*
X161437000Y-88519000D01*
X161437000Y-88773000D01*
X161417000Y-88773000D01*
X161417000Y-89915915D01*
X161639039Y-90037904D01*
X162027423Y-89877041D01*
X162442389Y-89501134D01*
X162539053Y-89296892D01*
X162795423Y-89680577D01*
X163270091Y-89997740D01*
X163688667Y-90081000D01*
X163971333Y-90081000D01*
X164389909Y-89997740D01*
X164864577Y-89680577D01*
X165100000Y-89328242D01*
X165335423Y-89680577D01*
X165810091Y-89997740D01*
X166228667Y-90081000D01*
X166511333Y-90081000D01*
X166929909Y-89997740D01*
X167404577Y-89680577D01*
X167640000Y-89328242D01*
X167875423Y-89680577D01*
X168350091Y-89997740D01*
X168768667Y-90081000D01*
X169051333Y-90081000D01*
X169469909Y-89997740D01*
X169944577Y-89680577D01*
X170180000Y-89328242D01*
X170415423Y-89680577D01*
X170890091Y-89997740D01*
X171308667Y-90081000D01*
X171591333Y-90081000D01*
X172009909Y-89997740D01*
X172484577Y-89680577D01*
X172720000Y-89328242D01*
X172955423Y-89680577D01*
X173430091Y-89997740D01*
X173848667Y-90081000D01*
X174131333Y-90081000D01*
X174549909Y-89997740D01*
X175024577Y-89680577D01*
X175260000Y-89328242D01*
X175495423Y-89680577D01*
X175970091Y-89997740D01*
X176388667Y-90081000D01*
X176671333Y-90081000D01*
X177089909Y-89997740D01*
X177564577Y-89680577D01*
X177881740Y-89205909D01*
X177993113Y-88646000D01*
X177881740Y-88086091D01*
X177564577Y-87611423D01*
X177089909Y-87294260D01*
X176671333Y-87211000D01*
X176388667Y-87211000D01*
X175970091Y-87294260D01*
X175495423Y-87611423D01*
X175260000Y-87963758D01*
X175024577Y-87611423D01*
X174549909Y-87294260D01*
X174131333Y-87211000D01*
X173848667Y-87211000D01*
X173430091Y-87294260D01*
X172955423Y-87611423D01*
X172720000Y-87963758D01*
X172484577Y-87611423D01*
X172009909Y-87294260D01*
X171591333Y-87211000D01*
X171308667Y-87211000D01*
X170890091Y-87294260D01*
X170415423Y-87611423D01*
X170180000Y-87963758D01*
X169944577Y-87611423D01*
X169469909Y-87294260D01*
X169051333Y-87211000D01*
X168768667Y-87211000D01*
X168588473Y-87246843D01*
X164818641Y-83477011D01*
X197777241Y-83477011D01*
X191465000Y-89789252D01*
X191465000Y-89725431D01*
X191124741Y-88903974D01*
X190496026Y-88275259D01*
X189674569Y-87935000D01*
X188785431Y-87935000D01*
X187963974Y-88275259D01*
X187335259Y-88903974D01*
X186995000Y-89725431D01*
X186995000Y-90614569D01*
X187335259Y-91436026D01*
X187963974Y-92064741D01*
X188785431Y-92405000D01*
X188849252Y-92405000D01*
X179019253Y-102234999D01*
X179018048Y-102234999D01*
X178943001Y-102220071D01*
X178867954Y-102234999D01*
X178867953Y-102234999D01*
X178645684Y-102279211D01*
X178393630Y-102447628D01*
X178351119Y-102511250D01*
X178107218Y-102755152D01*
X178077881Y-102743000D01*
X177522119Y-102743000D01*
X177008663Y-102955680D01*
X176615680Y-103348663D01*
X176530000Y-103555513D01*
X176444320Y-103348663D01*
X176051337Y-102955680D01*
X175537881Y-102743000D01*
X174982119Y-102743000D01*
X174468663Y-102955680D01*
X174075680Y-103348663D01*
X173863000Y-103862119D01*
X173863000Y-104417881D01*
X173905714Y-104521001D01*
X153858632Y-104521001D01*
X147106137Y-97768506D01*
X161429000Y-97768506D01*
X161429000Y-98319494D01*
X161639853Y-98828540D01*
X162029460Y-99218147D01*
X162538506Y-99429000D01*
X163089494Y-99429000D01*
X163598540Y-99218147D01*
X163988147Y-98828540D01*
X164199000Y-98319494D01*
X164199000Y-97768506D01*
X166309000Y-97768506D01*
X166309000Y-98319494D01*
X166519853Y-98828540D01*
X166909460Y-99218147D01*
X167418506Y-99429000D01*
X167969494Y-99429000D01*
X168478540Y-99218147D01*
X168868147Y-98828540D01*
X169079000Y-98319494D01*
X169079000Y-97768506D01*
X168868147Y-97259460D01*
X168478540Y-96869853D01*
X167969494Y-96659000D01*
X167418506Y-96659000D01*
X166909460Y-96869853D01*
X166519853Y-97259460D01*
X166309000Y-97768506D01*
X164199000Y-97768506D01*
X163988147Y-97259460D01*
X163598540Y-96869853D01*
X163089494Y-96659000D01*
X162538506Y-96659000D01*
X162029460Y-96869853D01*
X161639853Y-97259460D01*
X161429000Y-97768506D01*
X147106137Y-97768506D01*
X146641883Y-97304253D01*
X146599371Y-97240629D01*
X146347317Y-97072212D01*
X146125048Y-97028000D01*
X146125043Y-97028000D01*
X146050000Y-97013073D01*
X145974957Y-97028000D01*
X113412473Y-97028000D01*
X113400321Y-96998663D01*
X113007338Y-96605680D01*
X112800488Y-96520000D01*
X113007338Y-96434320D01*
X113400321Y-96041337D01*
X113613001Y-95527881D01*
X113613001Y-94972119D01*
X113400321Y-94458663D01*
X113007338Y-94065680D01*
X112800488Y-93980000D01*
X112820417Y-93971745D01*
X159445861Y-93971745D01*
X159519995Y-94217864D01*
X160057223Y-94410965D01*
X160627454Y-94383778D01*
X161028005Y-94217864D01*
X161102139Y-93971745D01*
X160274000Y-93143605D01*
X159445861Y-93971745D01*
X112820417Y-93971745D01*
X113007338Y-93894320D01*
X113400321Y-93501337D01*
X113613001Y-92987881D01*
X113613001Y-92747223D01*
X158827035Y-92747223D01*
X158854222Y-93317454D01*
X159020136Y-93718005D01*
X159266255Y-93792139D01*
X160094395Y-92964000D01*
X160453605Y-92964000D01*
X161281745Y-93792139D01*
X161527864Y-93718005D01*
X161530290Y-93711254D01*
X161557466Y-93776862D01*
X161961138Y-94180534D01*
X162488561Y-94399000D01*
X163059439Y-94399000D01*
X163586862Y-94180534D01*
X163990534Y-93776862D01*
X164209000Y-93249439D01*
X164209000Y-92678561D01*
X166459000Y-92678561D01*
X166459000Y-93249439D01*
X166677466Y-93776862D01*
X167081138Y-94180534D01*
X167608561Y-94399000D01*
X168179439Y-94399000D01*
X168706862Y-94180534D01*
X168915651Y-93971745D01*
X169565861Y-93971745D01*
X169639995Y-94217864D01*
X170177223Y-94410965D01*
X170747454Y-94383778D01*
X171148005Y-94217864D01*
X171222139Y-93971745D01*
X170394000Y-93143605D01*
X169565861Y-93971745D01*
X168915651Y-93971745D01*
X169110534Y-93776862D01*
X169137525Y-93711701D01*
X169140136Y-93718005D01*
X169386255Y-93792139D01*
X170214395Y-92964000D01*
X170573605Y-92964000D01*
X171401745Y-93792139D01*
X171647864Y-93718005D01*
X171840965Y-93180777D01*
X171813778Y-92610546D01*
X171647864Y-92209995D01*
X171401745Y-92135861D01*
X170573605Y-92964000D01*
X170214395Y-92964000D01*
X169386255Y-92135861D01*
X169140136Y-92209995D01*
X169137710Y-92216746D01*
X169110534Y-92151138D01*
X168915651Y-91956255D01*
X169565861Y-91956255D01*
X170394000Y-92784395D01*
X171222139Y-91956255D01*
X171148005Y-91710136D01*
X170610777Y-91517035D01*
X170040546Y-91544222D01*
X169639995Y-91710136D01*
X169565861Y-91956255D01*
X168915651Y-91956255D01*
X168706862Y-91747466D01*
X168179439Y-91529000D01*
X167608561Y-91529000D01*
X167081138Y-91747466D01*
X166677466Y-92151138D01*
X166459000Y-92678561D01*
X164209000Y-92678561D01*
X163990534Y-92151138D01*
X163586862Y-91747466D01*
X163059439Y-91529000D01*
X162488561Y-91529000D01*
X161961138Y-91747466D01*
X161557466Y-92151138D01*
X161530475Y-92216299D01*
X161527864Y-92209995D01*
X161281745Y-92135861D01*
X160453605Y-92964000D01*
X160094395Y-92964000D01*
X159266255Y-92135861D01*
X159020136Y-92209995D01*
X158827035Y-92747223D01*
X113613001Y-92747223D01*
X113613001Y-92432119D01*
X113400321Y-91918663D01*
X113007338Y-91525680D01*
X112800488Y-91440000D01*
X113007338Y-91354320D01*
X113400321Y-90961337D01*
X113613001Y-90447881D01*
X113613001Y-89892119D01*
X113543957Y-89725431D01*
X122225000Y-89725431D01*
X122225000Y-90614569D01*
X122565259Y-91436026D01*
X123193974Y-92064741D01*
X124015431Y-92405000D01*
X124904569Y-92405000D01*
X125726026Y-92064741D01*
X125834512Y-91956255D01*
X159445861Y-91956255D01*
X160274000Y-92784395D01*
X161102139Y-91956255D01*
X161028005Y-91710136D01*
X160490777Y-91517035D01*
X159920546Y-91544222D01*
X159519995Y-91710136D01*
X159445861Y-91956255D01*
X125834512Y-91956255D01*
X126354741Y-91436026D01*
X126695000Y-90614569D01*
X126695000Y-89725431D01*
X126354741Y-88903974D01*
X126065328Y-88614561D01*
X135725000Y-88614561D01*
X135725000Y-89185439D01*
X135943466Y-89712862D01*
X136347138Y-90116534D01*
X136874561Y-90335000D01*
X137445439Y-90335000D01*
X137972862Y-90116534D01*
X138376534Y-89712862D01*
X138595000Y-89185439D01*
X138595000Y-88614561D01*
X138376534Y-88087138D01*
X138135396Y-87846000D01*
X142062560Y-87846000D01*
X142062560Y-89446000D01*
X142111843Y-89693765D01*
X142252191Y-89903809D01*
X142462235Y-90044157D01*
X142710000Y-90093440D01*
X144310000Y-90093440D01*
X144557765Y-90044157D01*
X144767809Y-89903809D01*
X144908157Y-89693765D01*
X144934785Y-89559894D01*
X145015423Y-89680577D01*
X145490091Y-89997740D01*
X145908667Y-90081000D01*
X146191333Y-90081000D01*
X146609909Y-89997740D01*
X147084577Y-89680577D01*
X147320000Y-89328242D01*
X147555423Y-89680577D01*
X148030091Y-89997740D01*
X148448667Y-90081000D01*
X148731333Y-90081000D01*
X149149909Y-89997740D01*
X149624577Y-89680577D01*
X149860000Y-89328242D01*
X150095423Y-89680577D01*
X150570091Y-89997740D01*
X150988667Y-90081000D01*
X151271333Y-90081000D01*
X151689909Y-89997740D01*
X152164577Y-89680577D01*
X152400000Y-89328242D01*
X152635423Y-89680577D01*
X153110091Y-89997740D01*
X153528667Y-90081000D01*
X153811333Y-90081000D01*
X154229909Y-89997740D01*
X154704577Y-89680577D01*
X154940000Y-89328242D01*
X155175423Y-89680577D01*
X155650091Y-89997740D01*
X156068667Y-90081000D01*
X156351333Y-90081000D01*
X156769909Y-89997740D01*
X157244577Y-89680577D01*
X157480000Y-89328242D01*
X157715423Y-89680577D01*
X158190091Y-89997740D01*
X158608667Y-90081000D01*
X158891333Y-90081000D01*
X159309909Y-89997740D01*
X159784577Y-89680577D01*
X160040947Y-89296892D01*
X160137611Y-89501134D01*
X160552577Y-89877041D01*
X160940961Y-90037904D01*
X161163000Y-89915915D01*
X161163000Y-88773000D01*
X161143000Y-88773000D01*
X161143000Y-88519000D01*
X161163000Y-88519000D01*
X161163000Y-87376085D01*
X160940961Y-87254096D01*
X160552577Y-87414959D01*
X160137611Y-87790866D01*
X160040947Y-87995108D01*
X159784577Y-87611423D01*
X159309909Y-87294260D01*
X158891333Y-87211000D01*
X158608667Y-87211000D01*
X158190091Y-87294260D01*
X157715423Y-87611423D01*
X157480000Y-87963758D01*
X157244577Y-87611423D01*
X156769909Y-87294260D01*
X156351333Y-87211000D01*
X156068667Y-87211000D01*
X155650091Y-87294260D01*
X155175423Y-87611423D01*
X154940000Y-87963758D01*
X154704577Y-87611423D01*
X154229909Y-87294260D01*
X153811333Y-87211000D01*
X153528667Y-87211000D01*
X153110091Y-87294260D01*
X152635423Y-87611423D01*
X152400000Y-87963758D01*
X152164577Y-87611423D01*
X151689909Y-87294260D01*
X151271333Y-87211000D01*
X150988667Y-87211000D01*
X150570091Y-87294260D01*
X150095423Y-87611423D01*
X149860000Y-87963758D01*
X149624577Y-87611423D01*
X149149909Y-87294260D01*
X148731333Y-87211000D01*
X148448667Y-87211000D01*
X148030091Y-87294260D01*
X147555423Y-87611423D01*
X147320000Y-87963758D01*
X147084577Y-87611423D01*
X146609909Y-87294260D01*
X146191333Y-87211000D01*
X145908667Y-87211000D01*
X145490091Y-87294260D01*
X145015423Y-87611423D01*
X144934785Y-87732106D01*
X144908157Y-87598235D01*
X144767809Y-87388191D01*
X144557765Y-87247843D01*
X144310000Y-87198560D01*
X142710000Y-87198560D01*
X142462235Y-87247843D01*
X142252191Y-87388191D01*
X142111843Y-87598235D01*
X142062560Y-87846000D01*
X138135396Y-87846000D01*
X137972862Y-87683466D01*
X137445439Y-87465000D01*
X136874561Y-87465000D01*
X136347138Y-87683466D01*
X135943466Y-88087138D01*
X135725000Y-88614561D01*
X126065328Y-88614561D01*
X125726026Y-88275259D01*
X124904569Y-87935000D01*
X124015431Y-87935000D01*
X123193974Y-88275259D01*
X122565259Y-88903974D01*
X122225000Y-89725431D01*
X113543957Y-89725431D01*
X113400321Y-89378663D01*
X113007338Y-88985680D01*
X112493882Y-88773000D01*
X111938120Y-88773000D01*
X111424664Y-88985680D01*
X111031681Y-89378663D01*
X110819001Y-89892119D01*
X110819001Y-90447881D01*
X110831153Y-90477218D01*
X110587251Y-90721120D01*
X110523630Y-90763630D01*
X110481119Y-90827252D01*
X110481118Y-90827253D01*
X110355213Y-91015684D01*
X110296073Y-91313001D01*
X110311001Y-91388049D01*
X110311000Y-106731956D01*
X110296073Y-106806999D01*
X110311000Y-106882042D01*
X110311000Y-106882046D01*
X110355212Y-107104315D01*
X110523629Y-107356370D01*
X110587253Y-107398882D01*
X110831153Y-107642782D01*
X110819001Y-107672119D01*
X110819001Y-108227881D01*
X111031681Y-108741337D01*
X111424664Y-109134320D01*
X111938120Y-109347000D01*
X112493882Y-109347000D01*
X113007338Y-109134320D01*
X113400321Y-108741337D01*
X113412473Y-108712000D01*
X189154957Y-108712000D01*
X189230000Y-108726927D01*
X189305043Y-108712000D01*
X189305048Y-108712000D01*
X189527317Y-108667788D01*
X189779371Y-108499371D01*
X189821883Y-108435747D01*
X192732782Y-105524848D01*
X192762119Y-105537000D01*
X193317881Y-105537000D01*
X193831337Y-105324320D01*
X194224320Y-104931337D01*
X194310000Y-104724487D01*
X194395680Y-104931337D01*
X194788663Y-105324320D01*
X195302119Y-105537000D01*
X195857881Y-105537000D01*
X196371337Y-105324320D01*
X196764320Y-104931337D01*
X196850000Y-104724487D01*
X196935680Y-104931337D01*
X197328663Y-105324320D01*
X197842119Y-105537000D01*
X198397881Y-105537000D01*
X198911337Y-105324320D01*
X199304320Y-104931337D01*
X199390000Y-104724487D01*
X199475680Y-104931337D01*
X199868663Y-105324320D01*
X200382119Y-105537000D01*
X200937881Y-105537000D01*
X201451337Y-105324320D01*
X201844320Y-104931337D01*
X201930000Y-104724487D01*
X202015680Y-104931337D01*
X202408663Y-105324320D01*
X202922119Y-105537000D01*
X203477881Y-105537000D01*
X203991337Y-105324320D01*
X204384320Y-104931337D01*
X204470000Y-104724487D01*
X204555680Y-104931337D01*
X204948663Y-105324320D01*
X205462119Y-105537000D01*
X206017881Y-105537000D01*
X206531337Y-105324320D01*
X206924320Y-104931337D01*
X207010000Y-104724487D01*
X207095680Y-104931337D01*
X207488663Y-105324320D01*
X208002119Y-105537000D01*
X208557881Y-105537000D01*
X209071337Y-105324320D01*
X209464320Y-104931337D01*
X209677000Y-104417881D01*
X209677000Y-103862119D01*
X209464320Y-103348663D01*
X209239657Y-103124000D01*
X217310371Y-103124000D01*
X221829153Y-107642782D01*
X221817001Y-107672119D01*
X221817001Y-108227881D01*
X222029681Y-108741337D01*
X222422664Y-109134320D01*
X222936120Y-109347000D01*
X223491882Y-109347000D01*
X223907446Y-109174868D01*
X231364737Y-109174868D01*
X231475641Y-109452099D01*
X232121593Y-109695323D01*
X232811453Y-109672836D01*
X233344359Y-109452099D01*
X233455263Y-109174868D01*
X237864737Y-109174868D01*
X237975641Y-109452099D01*
X238621593Y-109695323D01*
X239311453Y-109672836D01*
X239844359Y-109452099D01*
X239955263Y-109174868D01*
X244064737Y-109174868D01*
X244175641Y-109452099D01*
X244821593Y-109695323D01*
X245511453Y-109672836D01*
X246044359Y-109452099D01*
X246155263Y-109174868D01*
X250564737Y-109174868D01*
X250675641Y-109452099D01*
X251321593Y-109695323D01*
X252011453Y-109672836D01*
X252544359Y-109452099D01*
X252655263Y-109174868D01*
X251610000Y-108129605D01*
X250564737Y-109174868D01*
X246155263Y-109174868D01*
X245110000Y-108129605D01*
X244064737Y-109174868D01*
X239955263Y-109174868D01*
X238910000Y-108129605D01*
X237864737Y-109174868D01*
X233455263Y-109174868D01*
X232410000Y-108129605D01*
X231364737Y-109174868D01*
X223907446Y-109174868D01*
X224005338Y-109134320D01*
X224398321Y-108741337D01*
X224611001Y-108227881D01*
X224611001Y-107672119D01*
X224606641Y-107661593D01*
X230664677Y-107661593D01*
X230687164Y-108351453D01*
X230907901Y-108884359D01*
X231185132Y-108995263D01*
X232230395Y-107950000D01*
X232589605Y-107950000D01*
X233634868Y-108995263D01*
X233912099Y-108884359D01*
X234155323Y-108238407D01*
X234136521Y-107661593D01*
X237164677Y-107661593D01*
X237187164Y-108351453D01*
X237407901Y-108884359D01*
X237685132Y-108995263D01*
X238730395Y-107950000D01*
X239089605Y-107950000D01*
X240134868Y-108995263D01*
X240412099Y-108884359D01*
X240655323Y-108238407D01*
X240636521Y-107661593D01*
X243364677Y-107661593D01*
X243387164Y-108351453D01*
X243607901Y-108884359D01*
X243885132Y-108995263D01*
X244930395Y-107950000D01*
X245289605Y-107950000D01*
X246334868Y-108995263D01*
X246612099Y-108884359D01*
X246855323Y-108238407D01*
X246836521Y-107661593D01*
X249864677Y-107661593D01*
X249887164Y-108351453D01*
X250107901Y-108884359D01*
X250385132Y-108995263D01*
X251430395Y-107950000D01*
X251789605Y-107950000D01*
X252834868Y-108995263D01*
X253112099Y-108884359D01*
X253355323Y-108238407D01*
X253332836Y-107548547D01*
X253112099Y-107015641D01*
X252834868Y-106904737D01*
X251789605Y-107950000D01*
X251430395Y-107950000D01*
X250385132Y-106904737D01*
X250107901Y-107015641D01*
X249864677Y-107661593D01*
X246836521Y-107661593D01*
X246832836Y-107548547D01*
X246612099Y-107015641D01*
X246334868Y-106904737D01*
X245289605Y-107950000D01*
X244930395Y-107950000D01*
X243885132Y-106904737D01*
X243607901Y-107015641D01*
X243364677Y-107661593D01*
X240636521Y-107661593D01*
X240632836Y-107548547D01*
X240412099Y-107015641D01*
X240134868Y-106904737D01*
X239089605Y-107950000D01*
X238730395Y-107950000D01*
X237685132Y-106904737D01*
X237407901Y-107015641D01*
X237164677Y-107661593D01*
X234136521Y-107661593D01*
X234132836Y-107548547D01*
X233912099Y-107015641D01*
X233634868Y-106904737D01*
X232589605Y-107950000D01*
X232230395Y-107950000D01*
X231185132Y-106904737D01*
X230907901Y-107015641D01*
X230664677Y-107661593D01*
X224606641Y-107661593D01*
X224398321Y-107158663D01*
X224005338Y-106765680D01*
X223907447Y-106725132D01*
X231364737Y-106725132D01*
X232410000Y-107770395D01*
X233455263Y-106725132D01*
X237864737Y-106725132D01*
X238910000Y-107770395D01*
X239955263Y-106725132D01*
X244064737Y-106725132D01*
X245110000Y-107770395D01*
X246155263Y-106725132D01*
X250564737Y-106725132D01*
X251610000Y-107770395D01*
X252655263Y-106725132D01*
X252544359Y-106447901D01*
X251898407Y-106204677D01*
X251208547Y-106227164D01*
X250675641Y-106447901D01*
X250564737Y-106725132D01*
X246155263Y-106725132D01*
X246044359Y-106447901D01*
X245398407Y-106204677D01*
X244708547Y-106227164D01*
X244175641Y-106447901D01*
X244064737Y-106725132D01*
X239955263Y-106725132D01*
X239844359Y-106447901D01*
X239198407Y-106204677D01*
X238508547Y-106227164D01*
X237975641Y-106447901D01*
X237864737Y-106725132D01*
X233455263Y-106725132D01*
X233344359Y-106447901D01*
X232698407Y-106204677D01*
X232008547Y-106227164D01*
X231475641Y-106447901D01*
X231364737Y-106725132D01*
X223907447Y-106725132D01*
X223798488Y-106680000D01*
X224005338Y-106594320D01*
X224398321Y-106201337D01*
X224611001Y-105687881D01*
X224611001Y-105132119D01*
X224398321Y-104618663D01*
X224005338Y-104225680D01*
X223798488Y-104140000D01*
X224005338Y-104054320D01*
X224398321Y-103661337D01*
X224611001Y-103147881D01*
X224611001Y-103104887D01*
X230675000Y-103104887D01*
X230675000Y-103795113D01*
X230939138Y-104432799D01*
X231427201Y-104920862D01*
X232064887Y-105185000D01*
X232755113Y-105185000D01*
X233392799Y-104920862D01*
X233880862Y-104432799D01*
X234145000Y-103795113D01*
X234145000Y-103104887D01*
X233880862Y-102467201D01*
X233763661Y-102350000D01*
X237162560Y-102350000D01*
X237162560Y-104550000D01*
X237211843Y-104797765D01*
X237352191Y-105007809D01*
X237562235Y-105148157D01*
X237810000Y-105197440D01*
X240010000Y-105197440D01*
X240257765Y-105148157D01*
X240467809Y-105007809D01*
X240608157Y-104797765D01*
X240657440Y-104550000D01*
X240657440Y-103104887D01*
X243375000Y-103104887D01*
X243375000Y-103795113D01*
X243639138Y-104432799D01*
X244127201Y-104920862D01*
X244764887Y-105185000D01*
X245455113Y-105185000D01*
X246092799Y-104920862D01*
X246580862Y-104432799D01*
X246845000Y-103795113D01*
X246845000Y-103104887D01*
X246580862Y-102467201D01*
X246463661Y-102350000D01*
X249862560Y-102350000D01*
X249862560Y-104550000D01*
X249911843Y-104797765D01*
X250052191Y-105007809D01*
X250262235Y-105148157D01*
X250510000Y-105197440D01*
X252710000Y-105197440D01*
X252957765Y-105148157D01*
X253167809Y-105007809D01*
X253308157Y-104797765D01*
X253357440Y-104550000D01*
X253357440Y-102350000D01*
X253308157Y-102102235D01*
X253167809Y-101892191D01*
X252957765Y-101751843D01*
X252710000Y-101702560D01*
X250510000Y-101702560D01*
X250262235Y-101751843D01*
X250052191Y-101892191D01*
X249911843Y-102102235D01*
X249862560Y-102350000D01*
X246463661Y-102350000D01*
X246092799Y-101979138D01*
X245455113Y-101715000D01*
X244764887Y-101715000D01*
X244127201Y-101979138D01*
X243639138Y-102467201D01*
X243375000Y-103104887D01*
X240657440Y-103104887D01*
X240657440Y-102350000D01*
X240608157Y-102102235D01*
X240467809Y-101892191D01*
X240257765Y-101751843D01*
X240010000Y-101702560D01*
X237810000Y-101702560D01*
X237562235Y-101751843D01*
X237352191Y-101892191D01*
X237211843Y-102102235D01*
X237162560Y-102350000D01*
X233763661Y-102350000D01*
X233392799Y-101979138D01*
X232755113Y-101715000D01*
X232064887Y-101715000D01*
X231427201Y-101979138D01*
X230939138Y-102467201D01*
X230675000Y-103104887D01*
X224611001Y-103104887D01*
X224611001Y-102592119D01*
X224398321Y-102078663D01*
X224005338Y-101685680D01*
X223798488Y-101600000D01*
X224005338Y-101514320D01*
X224398321Y-101121337D01*
X224611001Y-100607881D01*
X224611001Y-100052119D01*
X224398321Y-99538663D01*
X224005338Y-99145680D01*
X223798488Y-99060000D01*
X224005338Y-98974320D01*
X224398321Y-98581337D01*
X224611001Y-98067881D01*
X224611001Y-97512119D01*
X224398321Y-96998663D01*
X224005338Y-96605680D01*
X223798488Y-96520000D01*
X223907446Y-96474868D01*
X231364737Y-96474868D01*
X231475641Y-96752099D01*
X232121593Y-96995323D01*
X232811453Y-96972836D01*
X233344359Y-96752099D01*
X233455263Y-96474868D01*
X237864737Y-96474868D01*
X237975641Y-96752099D01*
X238621593Y-96995323D01*
X239311453Y-96972836D01*
X239844359Y-96752099D01*
X239955263Y-96474868D01*
X244064737Y-96474868D01*
X244175641Y-96752099D01*
X244821593Y-96995323D01*
X245511453Y-96972836D01*
X246044359Y-96752099D01*
X246155263Y-96474868D01*
X250564737Y-96474868D01*
X250675641Y-96752099D01*
X251321593Y-96995323D01*
X252011453Y-96972836D01*
X252544359Y-96752099D01*
X252655263Y-96474868D01*
X251610000Y-95429605D01*
X250564737Y-96474868D01*
X246155263Y-96474868D01*
X245110000Y-95429605D01*
X244064737Y-96474868D01*
X239955263Y-96474868D01*
X238910000Y-95429605D01*
X237864737Y-96474868D01*
X233455263Y-96474868D01*
X232410000Y-95429605D01*
X231364737Y-96474868D01*
X223907446Y-96474868D01*
X224005338Y-96434320D01*
X224398321Y-96041337D01*
X224611001Y-95527881D01*
X224611001Y-94972119D01*
X224606641Y-94961593D01*
X230664677Y-94961593D01*
X230687164Y-95651453D01*
X230907901Y-96184359D01*
X231185132Y-96295263D01*
X232230395Y-95250000D01*
X232589605Y-95250000D01*
X233634868Y-96295263D01*
X233912099Y-96184359D01*
X234155323Y-95538407D01*
X234136521Y-94961593D01*
X237164677Y-94961593D01*
X237187164Y-95651453D01*
X237407901Y-96184359D01*
X237685132Y-96295263D01*
X238730395Y-95250000D01*
X239089605Y-95250000D01*
X240134868Y-96295263D01*
X240412099Y-96184359D01*
X240655323Y-95538407D01*
X240636521Y-94961593D01*
X243364677Y-94961593D01*
X243387164Y-95651453D01*
X243607901Y-96184359D01*
X243885132Y-96295263D01*
X244930395Y-95250000D01*
X245289605Y-95250000D01*
X246334868Y-96295263D01*
X246612099Y-96184359D01*
X246855323Y-95538407D01*
X246836521Y-94961593D01*
X249864677Y-94961593D01*
X249887164Y-95651453D01*
X250107901Y-96184359D01*
X250385132Y-96295263D01*
X251430395Y-95250000D01*
X251789605Y-95250000D01*
X252834868Y-96295263D01*
X253112099Y-96184359D01*
X253355323Y-95538407D01*
X253332836Y-94848547D01*
X253112099Y-94315641D01*
X252834868Y-94204737D01*
X251789605Y-95250000D01*
X251430395Y-95250000D01*
X250385132Y-94204737D01*
X250107901Y-94315641D01*
X249864677Y-94961593D01*
X246836521Y-94961593D01*
X246832836Y-94848547D01*
X246612099Y-94315641D01*
X246334868Y-94204737D01*
X245289605Y-95250000D01*
X244930395Y-95250000D01*
X243885132Y-94204737D01*
X243607901Y-94315641D01*
X243364677Y-94961593D01*
X240636521Y-94961593D01*
X240632836Y-94848547D01*
X240412099Y-94315641D01*
X240134868Y-94204737D01*
X239089605Y-95250000D01*
X238730395Y-95250000D01*
X237685132Y-94204737D01*
X237407901Y-94315641D01*
X237164677Y-94961593D01*
X234136521Y-94961593D01*
X234132836Y-94848547D01*
X233912099Y-94315641D01*
X233634868Y-94204737D01*
X232589605Y-95250000D01*
X232230395Y-95250000D01*
X231185132Y-94204737D01*
X230907901Y-94315641D01*
X230664677Y-94961593D01*
X224606641Y-94961593D01*
X224398321Y-94458663D01*
X224005338Y-94065680D01*
X223907447Y-94025132D01*
X231364737Y-94025132D01*
X232410000Y-95070395D01*
X233455263Y-94025132D01*
X237864737Y-94025132D01*
X238910000Y-95070395D01*
X239955263Y-94025132D01*
X244064737Y-94025132D01*
X245110000Y-95070395D01*
X246155263Y-94025132D01*
X250564737Y-94025132D01*
X251610000Y-95070395D01*
X252655263Y-94025132D01*
X252544359Y-93747901D01*
X251898407Y-93504677D01*
X251208547Y-93527164D01*
X250675641Y-93747901D01*
X250564737Y-94025132D01*
X246155263Y-94025132D01*
X246044359Y-93747901D01*
X245398407Y-93504677D01*
X244708547Y-93527164D01*
X244175641Y-93747901D01*
X244064737Y-94025132D01*
X239955263Y-94025132D01*
X239844359Y-93747901D01*
X239198407Y-93504677D01*
X238508547Y-93527164D01*
X237975641Y-93747901D01*
X237864737Y-94025132D01*
X233455263Y-94025132D01*
X233344359Y-93747901D01*
X232698407Y-93504677D01*
X232008547Y-93527164D01*
X231475641Y-93747901D01*
X231364737Y-94025132D01*
X223907447Y-94025132D01*
X223798488Y-93980000D01*
X224005338Y-93894320D01*
X224398321Y-93501337D01*
X224611001Y-92987881D01*
X224611001Y-92432119D01*
X224398321Y-91918663D01*
X224045311Y-91565653D01*
X224223766Y-91530157D01*
X224433810Y-91389809D01*
X224574158Y-91179765D01*
X224623441Y-90932000D01*
X224623441Y-90404887D01*
X230675000Y-90404887D01*
X230675000Y-91095113D01*
X230939138Y-91732799D01*
X231427201Y-92220862D01*
X232064887Y-92485000D01*
X232755113Y-92485000D01*
X233392799Y-92220862D01*
X233880862Y-91732799D01*
X234145000Y-91095113D01*
X234145000Y-90404887D01*
X233880862Y-89767201D01*
X233763661Y-89650000D01*
X237162560Y-89650000D01*
X237162560Y-91850000D01*
X237211843Y-92097765D01*
X237352191Y-92307809D01*
X237562235Y-92448157D01*
X237810000Y-92497440D01*
X240010000Y-92497440D01*
X240257765Y-92448157D01*
X240467809Y-92307809D01*
X240608157Y-92097765D01*
X240657440Y-91850000D01*
X240657440Y-90404887D01*
X243375000Y-90404887D01*
X243375000Y-91095113D01*
X243639138Y-91732799D01*
X244127201Y-92220862D01*
X244764887Y-92485000D01*
X245455113Y-92485000D01*
X246092799Y-92220862D01*
X246580862Y-91732799D01*
X246845000Y-91095113D01*
X246845000Y-90404887D01*
X246580862Y-89767201D01*
X246463661Y-89650000D01*
X249862560Y-89650000D01*
X249862560Y-91850000D01*
X249911843Y-92097765D01*
X250052191Y-92307809D01*
X250262235Y-92448157D01*
X250510000Y-92497440D01*
X252710000Y-92497440D01*
X252957765Y-92448157D01*
X253167809Y-92307809D01*
X253308157Y-92097765D01*
X253357440Y-91850000D01*
X253357440Y-89650000D01*
X253308157Y-89402235D01*
X253167809Y-89192191D01*
X252957765Y-89051843D01*
X252710000Y-89002560D01*
X250510000Y-89002560D01*
X250262235Y-89051843D01*
X250052191Y-89192191D01*
X249911843Y-89402235D01*
X249862560Y-89650000D01*
X246463661Y-89650000D01*
X246092799Y-89279138D01*
X245455113Y-89015000D01*
X244764887Y-89015000D01*
X244127201Y-89279138D01*
X243639138Y-89767201D01*
X243375000Y-90404887D01*
X240657440Y-90404887D01*
X240657440Y-89650000D01*
X240608157Y-89402235D01*
X240467809Y-89192191D01*
X240257765Y-89051843D01*
X240010000Y-89002560D01*
X237810000Y-89002560D01*
X237562235Y-89051843D01*
X237352191Y-89192191D01*
X237211843Y-89402235D01*
X237162560Y-89650000D01*
X233763661Y-89650000D01*
X233392799Y-89279138D01*
X232755113Y-89015000D01*
X232064887Y-89015000D01*
X231427201Y-89279138D01*
X230939138Y-89767201D01*
X230675000Y-90404887D01*
X224623441Y-90404887D01*
X224623441Y-89408000D01*
X224574158Y-89160235D01*
X224433810Y-88950191D01*
X224223766Y-88809843D01*
X223976001Y-88760560D01*
X222452001Y-88760560D01*
X222204236Y-88809843D01*
X221994192Y-88950191D01*
X221853844Y-89160235D01*
X221804561Y-89408000D01*
X221804561Y-90932000D01*
X221853844Y-91179765D01*
X221994192Y-91389809D01*
X222204236Y-91530157D01*
X222382691Y-91565653D01*
X222029681Y-91918663D01*
X221817001Y-92432119D01*
X221817001Y-92987881D01*
X222029681Y-93501337D01*
X222422664Y-93894320D01*
X222629514Y-93980000D01*
X222422664Y-94065680D01*
X222029681Y-94458663D01*
X221817001Y-94972119D01*
X221817001Y-95527881D01*
X222029681Y-96041337D01*
X222422664Y-96434320D01*
X222629514Y-96520000D01*
X222422664Y-96605680D01*
X222029681Y-96998663D01*
X221817001Y-97512119D01*
X221817001Y-98067881D01*
X222029681Y-98581337D01*
X222422664Y-98974320D01*
X222629514Y-99060000D01*
X222422664Y-99145680D01*
X222029681Y-99538663D01*
X221817001Y-100052119D01*
X221817001Y-100430127D01*
X221733318Y-100374212D01*
X221511049Y-100330000D01*
X221511044Y-100330000D01*
X221436001Y-100315073D01*
X221360958Y-100330000D01*
X188543043Y-100330000D01*
X188468000Y-100315073D01*
X188392957Y-100330000D01*
X188392952Y-100330000D01*
X188170683Y-100374212D01*
X187918629Y-100542629D01*
X187876118Y-100606251D01*
X185727218Y-102755152D01*
X185697881Y-102743000D01*
X185142119Y-102743000D01*
X184628663Y-102955680D01*
X184235680Y-103348663D01*
X184150000Y-103555513D01*
X184064320Y-103348663D01*
X183671337Y-102955680D01*
X183157881Y-102743000D01*
X182814630Y-102743000D01*
X195832199Y-89725431D01*
X204775000Y-89725431D01*
X204775000Y-90614569D01*
X205115259Y-91436026D01*
X205743974Y-92064741D01*
X206565431Y-92405000D01*
X207454569Y-92405000D01*
X208276026Y-92064741D01*
X208904741Y-91436026D01*
X209245000Y-90614569D01*
X209245000Y-89725431D01*
X208904741Y-88903974D01*
X208276026Y-88275259D01*
X207454569Y-87935000D01*
X206565431Y-87935000D01*
X205743974Y-88275259D01*
X205115259Y-88903974D01*
X204775000Y-89725431D01*
X195832199Y-89725431D01*
X201782762Y-83774868D01*
X231364737Y-83774868D01*
X231475641Y-84052099D01*
X232121593Y-84295323D01*
X232811453Y-84272836D01*
X233344359Y-84052099D01*
X233455263Y-83774868D01*
X237864737Y-83774868D01*
X237975641Y-84052099D01*
X238621593Y-84295323D01*
X239311453Y-84272836D01*
X239844359Y-84052099D01*
X239955263Y-83774868D01*
X244064737Y-83774868D01*
X244175641Y-84052099D01*
X244821593Y-84295323D01*
X245511453Y-84272836D01*
X246044359Y-84052099D01*
X246155263Y-83774868D01*
X250564737Y-83774868D01*
X250675641Y-84052099D01*
X251321593Y-84295323D01*
X252011453Y-84272836D01*
X252544359Y-84052099D01*
X252655263Y-83774868D01*
X251610000Y-82729605D01*
X250564737Y-83774868D01*
X246155263Y-83774868D01*
X245110000Y-82729605D01*
X244064737Y-83774868D01*
X239955263Y-83774868D01*
X238910000Y-82729605D01*
X237864737Y-83774868D01*
X233455263Y-83774868D01*
X232410000Y-82729605D01*
X231364737Y-83774868D01*
X201782762Y-83774868D01*
X202415750Y-83141881D01*
X202479371Y-83099371D01*
X202647788Y-82847317D01*
X202692000Y-82625048D01*
X202692000Y-82625047D01*
X202706928Y-82550000D01*
X202692000Y-82474953D01*
X202692000Y-82261593D01*
X230664677Y-82261593D01*
X230687164Y-82951453D01*
X230907901Y-83484359D01*
X231185132Y-83595263D01*
X232230395Y-82550000D01*
X232589605Y-82550000D01*
X233634868Y-83595263D01*
X233912099Y-83484359D01*
X234155323Y-82838407D01*
X234136521Y-82261593D01*
X237164677Y-82261593D01*
X237187164Y-82951453D01*
X237407901Y-83484359D01*
X237685132Y-83595263D01*
X238730395Y-82550000D01*
X239089605Y-82550000D01*
X240134868Y-83595263D01*
X240412099Y-83484359D01*
X240655323Y-82838407D01*
X240636521Y-82261593D01*
X243364677Y-82261593D01*
X243387164Y-82951453D01*
X243607901Y-83484359D01*
X243885132Y-83595263D01*
X244930395Y-82550000D01*
X245289605Y-82550000D01*
X246334868Y-83595263D01*
X246612099Y-83484359D01*
X246855323Y-82838407D01*
X246836521Y-82261593D01*
X249864677Y-82261593D01*
X249887164Y-82951453D01*
X250107901Y-83484359D01*
X250385132Y-83595263D01*
X251430395Y-82550000D01*
X251789605Y-82550000D01*
X252834868Y-83595263D01*
X253112099Y-83484359D01*
X253355323Y-82838407D01*
X253332836Y-82148547D01*
X253112099Y-81615641D01*
X252834868Y-81504737D01*
X251789605Y-82550000D01*
X251430395Y-82550000D01*
X250385132Y-81504737D01*
X250107901Y-81615641D01*
X249864677Y-82261593D01*
X246836521Y-82261593D01*
X246832836Y-82148547D01*
X246612099Y-81615641D01*
X246334868Y-81504737D01*
X245289605Y-82550000D01*
X244930395Y-82550000D01*
X243885132Y-81504737D01*
X243607901Y-81615641D01*
X243364677Y-82261593D01*
X240636521Y-82261593D01*
X240632836Y-82148547D01*
X240412099Y-81615641D01*
X240134868Y-81504737D01*
X239089605Y-82550000D01*
X238730395Y-82550000D01*
X237685132Y-81504737D01*
X237407901Y-81615641D01*
X237164677Y-82261593D01*
X234136521Y-82261593D01*
X234132836Y-82148547D01*
X233912099Y-81615641D01*
X233634868Y-81504737D01*
X232589605Y-82550000D01*
X232230395Y-82550000D01*
X231185132Y-81504737D01*
X230907901Y-81615641D01*
X230664677Y-82261593D01*
X202692000Y-82261593D01*
X202692000Y-81325132D01*
X231364737Y-81325132D01*
X232410000Y-82370395D01*
X233455263Y-81325132D01*
X237864737Y-81325132D01*
X238910000Y-82370395D01*
X239955263Y-81325132D01*
X244064737Y-81325132D01*
X245110000Y-82370395D01*
X246155263Y-81325132D01*
X250564737Y-81325132D01*
X251610000Y-82370395D01*
X252655263Y-81325132D01*
X252544359Y-81047901D01*
X251898407Y-80804677D01*
X251208547Y-80827164D01*
X250675641Y-81047901D01*
X250564737Y-81325132D01*
X246155263Y-81325132D01*
X246044359Y-81047901D01*
X245398407Y-80804677D01*
X244708547Y-80827164D01*
X244175641Y-81047901D01*
X244064737Y-81325132D01*
X239955263Y-81325132D01*
X239844359Y-81047901D01*
X239198407Y-80804677D01*
X238508547Y-80827164D01*
X237975641Y-81047901D01*
X237864737Y-81325132D01*
X233455263Y-81325132D01*
X233344359Y-81047901D01*
X232698407Y-80804677D01*
X232008547Y-80827164D01*
X231475641Y-81047901D01*
X231364737Y-81325132D01*
X202692000Y-81325132D01*
X202692000Y-78666472D01*
X202721337Y-78654320D01*
X202925444Y-78450213D01*
X203669392Y-78450213D01*
X203738857Y-78692397D01*
X204262302Y-78879144D01*
X204817368Y-78851362D01*
X205201143Y-78692397D01*
X205270608Y-78450213D01*
X204470000Y-77649605D01*
X203669392Y-78450213D01*
X202925444Y-78450213D01*
X203114320Y-78261337D01*
X203193428Y-78070353D01*
X203247603Y-78201143D01*
X203489787Y-78270608D01*
X204290395Y-77470000D01*
X204649605Y-77470000D01*
X205450213Y-78270608D01*
X205600560Y-78227484D01*
X205600560Y-78232000D01*
X205649843Y-78479765D01*
X205790191Y-78689809D01*
X206000235Y-78830157D01*
X206248000Y-78879440D01*
X207772000Y-78879440D01*
X208019765Y-78830157D01*
X208229809Y-78689809D01*
X208370157Y-78479765D01*
X208419440Y-78232000D01*
X208419440Y-76708000D01*
X208370157Y-76460235D01*
X208229809Y-76250191D01*
X208019765Y-76109843D01*
X207772000Y-76060560D01*
X206248000Y-76060560D01*
X206000235Y-76109843D01*
X205790191Y-76250191D01*
X205649843Y-76460235D01*
X205600560Y-76708000D01*
X205600560Y-76712516D01*
X205450213Y-76669392D01*
X204649605Y-77470000D01*
X204290395Y-77470000D01*
X203489787Y-76669392D01*
X203247603Y-76738857D01*
X203197465Y-76879393D01*
X203114320Y-76678663D01*
X202925444Y-76489787D01*
X203669392Y-76489787D01*
X204470000Y-77290395D01*
X205270608Y-76489787D01*
X205201143Y-76247603D01*
X204677698Y-76060856D01*
X204122632Y-76088638D01*
X203738857Y-76247603D01*
X203669392Y-76489787D01*
X202925444Y-76489787D01*
X202721337Y-76285680D01*
X202207881Y-76073000D01*
X201652119Y-76073000D01*
X201622782Y-76085152D01*
X201378882Y-75841252D01*
X201336370Y-75777628D01*
X201084316Y-75609211D01*
X200862047Y-75564999D01*
X200862042Y-75564999D01*
X200786999Y-75550072D01*
X200711956Y-75564999D01*
X179526043Y-75564999D01*
X179451000Y-75550072D01*
X179375957Y-75564999D01*
X179375953Y-75564999D01*
X179153684Y-75609211D01*
X178901630Y-75777628D01*
X178859119Y-75841250D01*
X174835371Y-79864999D01*
X174549909Y-79674260D01*
X174131333Y-79591000D01*
X173848667Y-79591000D01*
X173668473Y-79626843D01*
X172892872Y-78851242D01*
X172850360Y-78787618D01*
X172598306Y-78619201D01*
X172376037Y-78574989D01*
X172376032Y-78574989D01*
X172300989Y-78560062D01*
X172225946Y-78574989D01*
X114615631Y-78574989D01*
X112367244Y-76326603D01*
X112840430Y-76010430D01*
X113030000Y-75726719D01*
X113219570Y-76010430D01*
X113715275Y-76341650D01*
X114152402Y-76428600D01*
X114447598Y-76428600D01*
X114884725Y-76341650D01*
X115380430Y-76010430D01*
X115570000Y-75726719D01*
X115759570Y-76010430D01*
X116255275Y-76341650D01*
X116692402Y-76428600D01*
X116987598Y-76428600D01*
X117424725Y-76341650D01*
X117920430Y-76010430D01*
X118110000Y-75726719D01*
X118299570Y-76010430D01*
X118795275Y-76341650D01*
X119232402Y-76428600D01*
X119527598Y-76428600D01*
X119964725Y-76341650D01*
X120460430Y-76010430D01*
X120650000Y-75726719D01*
X120839570Y-76010430D01*
X121335275Y-76341650D01*
X121772402Y-76428600D01*
X122067598Y-76428600D01*
X122504725Y-76341650D01*
X123000430Y-76010430D01*
X123331650Y-75514725D01*
X123410079Y-75120431D01*
X128575000Y-75120431D01*
X128575000Y-76009569D01*
X128915259Y-76831026D01*
X129543974Y-77459741D01*
X130365431Y-77800000D01*
X131254569Y-77800000D01*
X132076026Y-77459741D01*
X132704741Y-76831026D01*
X133045000Y-76009569D01*
X133045000Y-75120431D01*
X223825000Y-75120431D01*
X223825000Y-76009569D01*
X224165259Y-76831026D01*
X224793974Y-77459741D01*
X225615431Y-77800000D01*
X226504569Y-77800000D01*
X226734191Y-77704887D01*
X230675000Y-77704887D01*
X230675000Y-78395113D01*
X230939138Y-79032799D01*
X231427201Y-79520862D01*
X232064887Y-79785000D01*
X232755113Y-79785000D01*
X233392799Y-79520862D01*
X233880862Y-79032799D01*
X234145000Y-78395113D01*
X234145000Y-77704887D01*
X233880862Y-77067201D01*
X233763661Y-76950000D01*
X237162560Y-76950000D01*
X237162560Y-79150000D01*
X237211843Y-79397765D01*
X237352191Y-79607809D01*
X237562235Y-79748157D01*
X237810000Y-79797440D01*
X240010000Y-79797440D01*
X240257765Y-79748157D01*
X240467809Y-79607809D01*
X240608157Y-79397765D01*
X240657440Y-79150000D01*
X240657440Y-77704887D01*
X243375000Y-77704887D01*
X243375000Y-78395113D01*
X243639138Y-79032799D01*
X244127201Y-79520862D01*
X244764887Y-79785000D01*
X245455113Y-79785000D01*
X246092799Y-79520862D01*
X246580862Y-79032799D01*
X246845000Y-78395113D01*
X246845000Y-77704887D01*
X246580862Y-77067201D01*
X246463661Y-76950000D01*
X249862560Y-76950000D01*
X249862560Y-79150000D01*
X249911843Y-79397765D01*
X250052191Y-79607809D01*
X250262235Y-79748157D01*
X250510000Y-79797440D01*
X252710000Y-79797440D01*
X252957765Y-79748157D01*
X253167809Y-79607809D01*
X253308157Y-79397765D01*
X253357440Y-79150000D01*
X253357440Y-76950000D01*
X253308157Y-76702235D01*
X253167809Y-76492191D01*
X252957765Y-76351843D01*
X252710000Y-76302560D01*
X250510000Y-76302560D01*
X250262235Y-76351843D01*
X250052191Y-76492191D01*
X249911843Y-76702235D01*
X249862560Y-76950000D01*
X246463661Y-76950000D01*
X246092799Y-76579138D01*
X245455113Y-76315000D01*
X244764887Y-76315000D01*
X244127201Y-76579138D01*
X243639138Y-77067201D01*
X243375000Y-77704887D01*
X240657440Y-77704887D01*
X240657440Y-76950000D01*
X240608157Y-76702235D01*
X240467809Y-76492191D01*
X240257765Y-76351843D01*
X240010000Y-76302560D01*
X237810000Y-76302560D01*
X237562235Y-76351843D01*
X237352191Y-76492191D01*
X237211843Y-76702235D01*
X237162560Y-76950000D01*
X233763661Y-76950000D01*
X233392799Y-76579138D01*
X232755113Y-76315000D01*
X232064887Y-76315000D01*
X231427201Y-76579138D01*
X230939138Y-77067201D01*
X230675000Y-77704887D01*
X226734191Y-77704887D01*
X227326026Y-77459741D01*
X227954741Y-76831026D01*
X228295000Y-76009569D01*
X228295000Y-75120431D01*
X227954741Y-74298974D01*
X227326026Y-73670259D01*
X226504569Y-73330000D01*
X225615431Y-73330000D01*
X224793974Y-73670259D01*
X224165259Y-74298974D01*
X223825000Y-75120431D01*
X133045000Y-75120431D01*
X132704741Y-74298974D01*
X132076026Y-73670259D01*
X131254569Y-73330000D01*
X130365431Y-73330000D01*
X129543974Y-73670259D01*
X128915259Y-74298974D01*
X128575000Y-75120431D01*
X123410079Y-75120431D01*
X123447959Y-74930000D01*
X123331650Y-74345275D01*
X123000430Y-73849570D01*
X122504725Y-73518350D01*
X122067598Y-73431400D01*
X121772402Y-73431400D01*
X121335275Y-73518350D01*
X120839570Y-73849570D01*
X120650000Y-74133281D01*
X120460430Y-73849570D01*
X119964725Y-73518350D01*
X119527598Y-73431400D01*
X119232402Y-73431400D01*
X118795275Y-73518350D01*
X118299570Y-73849570D01*
X118110000Y-74133281D01*
X117920430Y-73849570D01*
X117424725Y-73518350D01*
X116987598Y-73431400D01*
X116692402Y-73431400D01*
X116255275Y-73518350D01*
X115759570Y-73849570D01*
X115570000Y-74133281D01*
X115380430Y-73849570D01*
X114884725Y-73518350D01*
X114447598Y-73431400D01*
X114152402Y-73431400D01*
X113715275Y-73518350D01*
X113219570Y-73849570D01*
X113030000Y-74133281D01*
X112840430Y-73849570D01*
X112344725Y-73518350D01*
X111907598Y-73431400D01*
X111612402Y-73431400D01*
X111175275Y-73518350D01*
X110907148Y-73697507D01*
X110409292Y-73199652D01*
X110366780Y-73136028D01*
X110312860Y-73100000D01*
X255830000Y-73100000D01*
X255830001Y-125020000D01*
X73720767Y-125020000D01*
X74284741Y-124456026D01*
X74625000Y-123634569D01*
X74625000Y-123190000D01*
X84832041Y-123190000D01*
X84948350Y-123774725D01*
X85279570Y-124270430D01*
X85775275Y-124601650D01*
X86212402Y-124688600D01*
X86507598Y-124688600D01*
X86944725Y-124601650D01*
X87440430Y-124270430D01*
X87630000Y-123986719D01*
X87819570Y-124270430D01*
X88315275Y-124601650D01*
X88752402Y-124688600D01*
X89047598Y-124688600D01*
X89484725Y-124601650D01*
X89980430Y-124270430D01*
X90170000Y-123986719D01*
X90359570Y-124270430D01*
X90855275Y-124601650D01*
X91292402Y-124688600D01*
X91587598Y-124688600D01*
X92024725Y-124601650D01*
X92520430Y-124270430D01*
X92710000Y-123986719D01*
X92899570Y-124270430D01*
X93395275Y-124601650D01*
X93832402Y-124688600D01*
X94127598Y-124688600D01*
X94564725Y-124601650D01*
X95060430Y-124270430D01*
X95250000Y-123986719D01*
X95439570Y-124270430D01*
X95935275Y-124601650D01*
X96372402Y-124688600D01*
X96667598Y-124688600D01*
X97104725Y-124601650D01*
X97600430Y-124270430D01*
X97793037Y-123982174D01*
X98171510Y-124396821D01*
X98700973Y-124644968D01*
X98933000Y-124524469D01*
X98933000Y-123317000D01*
X99187000Y-123317000D01*
X99187000Y-124524469D01*
X99419027Y-124644968D01*
X99948490Y-124396821D01*
X100330000Y-123978848D01*
X100711510Y-124396821D01*
X101240973Y-124644968D01*
X101473000Y-124524469D01*
X101473000Y-123317000D01*
X99187000Y-123317000D01*
X98933000Y-123317000D01*
X98913000Y-123317000D01*
X98913000Y-123063000D01*
X98933000Y-123063000D01*
X98933000Y-121855531D01*
X99187000Y-121855531D01*
X99187000Y-123063000D01*
X101473000Y-123063000D01*
X101473000Y-121855531D01*
X101727000Y-121855531D01*
X101727000Y-123063000D01*
X101747000Y-123063000D01*
X101747000Y-123317000D01*
X101727000Y-123317000D01*
X101727000Y-124524469D01*
X101959027Y-124644968D01*
X102488490Y-124396821D01*
X102866963Y-123982174D01*
X103059570Y-124270430D01*
X103555275Y-124601650D01*
X103992402Y-124688600D01*
X104287598Y-124688600D01*
X104724725Y-124601650D01*
X105220430Y-124270430D01*
X105551650Y-123774725D01*
X105667959Y-123190000D01*
X107692041Y-123190000D01*
X107808350Y-123774725D01*
X108139570Y-124270430D01*
X108635275Y-124601650D01*
X109072402Y-124688600D01*
X109367598Y-124688600D01*
X109804725Y-124601650D01*
X110300430Y-124270430D01*
X110490000Y-123986719D01*
X110679570Y-124270430D01*
X111175275Y-124601650D01*
X111612402Y-124688600D01*
X111907598Y-124688600D01*
X112344725Y-124601650D01*
X112840430Y-124270430D01*
X113030000Y-123986719D01*
X113219570Y-124270430D01*
X113715275Y-124601650D01*
X114152402Y-124688600D01*
X114447598Y-124688600D01*
X114884725Y-124601650D01*
X115380430Y-124270430D01*
X115570000Y-123986719D01*
X115759570Y-124270430D01*
X116255275Y-124601650D01*
X116692402Y-124688600D01*
X116987598Y-124688600D01*
X117424725Y-124601650D01*
X117920430Y-124270430D01*
X118110000Y-123986719D01*
X118299570Y-124270430D01*
X118795275Y-124601650D01*
X119232402Y-124688600D01*
X119527598Y-124688600D01*
X119964725Y-124601650D01*
X120460430Y-124270430D01*
X120650000Y-123986719D01*
X120839570Y-124270430D01*
X121335275Y-124601650D01*
X121772402Y-124688600D01*
X122067598Y-124688600D01*
X122504725Y-124601650D01*
X123000430Y-124270430D01*
X123331650Y-123774725D01*
X123447959Y-123190000D01*
X123331650Y-122605275D01*
X123001006Y-122110431D01*
X128575000Y-122110431D01*
X128575000Y-122999569D01*
X128915259Y-123821026D01*
X129543974Y-124449741D01*
X130365431Y-124790000D01*
X131254569Y-124790000D01*
X132076026Y-124449741D01*
X132704741Y-123821026D01*
X133045000Y-122999569D01*
X133045000Y-122205750D01*
X173863000Y-122205750D01*
X173863000Y-122808309D01*
X173959673Y-123041698D01*
X174138301Y-123220327D01*
X174371690Y-123317000D01*
X174974250Y-123317000D01*
X175133000Y-123158250D01*
X175133000Y-122047000D01*
X174021750Y-122047000D01*
X173863000Y-122205750D01*
X133045000Y-122205750D01*
X133045000Y-122110431D01*
X132704741Y-121288974D01*
X132447458Y-121031691D01*
X173863000Y-121031691D01*
X173863000Y-121634250D01*
X174021750Y-121793000D01*
X175133000Y-121793000D01*
X175133000Y-120681750D01*
X175387000Y-120681750D01*
X175387000Y-121793000D01*
X175407000Y-121793000D01*
X175407000Y-122047000D01*
X175387000Y-122047000D01*
X175387000Y-123158250D01*
X175545750Y-123317000D01*
X176148310Y-123317000D01*
X176381699Y-123220327D01*
X176560327Y-123041698D01*
X176657000Y-122808309D01*
X176657000Y-122752657D01*
X177008663Y-123104320D01*
X177522119Y-123317000D01*
X178077881Y-123317000D01*
X178591337Y-123104320D01*
X178984320Y-122711337D01*
X179070000Y-122504487D01*
X179155680Y-122711337D01*
X179548663Y-123104320D01*
X180062119Y-123317000D01*
X180617881Y-123317000D01*
X181131337Y-123104320D01*
X181524320Y-122711337D01*
X181610000Y-122504487D01*
X181695680Y-122711337D01*
X182088663Y-123104320D01*
X182602119Y-123317000D01*
X183157881Y-123317000D01*
X183671337Y-123104320D01*
X184064320Y-122711337D01*
X184150000Y-122504487D01*
X184235680Y-122711337D01*
X184628663Y-123104320D01*
X185142119Y-123317000D01*
X185697881Y-123317000D01*
X186211337Y-123104320D01*
X186604320Y-122711337D01*
X186690000Y-122504487D01*
X186775680Y-122711337D01*
X187168663Y-123104320D01*
X187682119Y-123317000D01*
X188237881Y-123317000D01*
X188751337Y-123104320D01*
X189144320Y-122711337D01*
X189230000Y-122504487D01*
X189315680Y-122711337D01*
X189708663Y-123104320D01*
X190222119Y-123317000D01*
X190777881Y-123317000D01*
X191291337Y-123104320D01*
X191684320Y-122711337D01*
X191770000Y-122504487D01*
X191855680Y-122711337D01*
X192248663Y-123104320D01*
X192762119Y-123317000D01*
X193317881Y-123317000D01*
X193831337Y-123104320D01*
X194224320Y-122711337D01*
X194310000Y-122504487D01*
X194395680Y-122711337D01*
X194788663Y-123104320D01*
X195302119Y-123317000D01*
X195857881Y-123317000D01*
X196371337Y-123104320D01*
X196764320Y-122711337D01*
X196850000Y-122504487D01*
X196935680Y-122711337D01*
X197328663Y-123104320D01*
X197842119Y-123317000D01*
X198397881Y-123317000D01*
X198911337Y-123104320D01*
X199304320Y-122711337D01*
X199390000Y-122504487D01*
X199475680Y-122711337D01*
X199868663Y-123104320D01*
X200382119Y-123317000D01*
X200937881Y-123317000D01*
X201451337Y-123104320D01*
X201844320Y-122711337D01*
X201930000Y-122504487D01*
X202015680Y-122711337D01*
X202408663Y-123104320D01*
X202922119Y-123317000D01*
X203477881Y-123317000D01*
X203991337Y-123104320D01*
X204384320Y-122711337D01*
X204470000Y-122504487D01*
X204555680Y-122711337D01*
X204948663Y-123104320D01*
X205462119Y-123317000D01*
X206017881Y-123317000D01*
X206531337Y-123104320D01*
X206924320Y-122711337D01*
X207010000Y-122504487D01*
X207095680Y-122711337D01*
X207488663Y-123104320D01*
X208002119Y-123317000D01*
X208557881Y-123317000D01*
X209071337Y-123104320D01*
X209464320Y-122711337D01*
X209677000Y-122197881D01*
X209677000Y-122110431D01*
X223825000Y-122110431D01*
X223825000Y-122999569D01*
X224165259Y-123821026D01*
X224793974Y-124449741D01*
X225615431Y-124790000D01*
X226504569Y-124790000D01*
X227326026Y-124449741D01*
X227954741Y-123821026D01*
X228295000Y-122999569D01*
X228295000Y-122110431D01*
X228197427Y-121874868D01*
X231214737Y-121874868D01*
X231325641Y-122152099D01*
X231971593Y-122395323D01*
X232661453Y-122372836D01*
X233194359Y-122152099D01*
X233305263Y-121874868D01*
X237714737Y-121874868D01*
X237825641Y-122152099D01*
X238471593Y-122395323D01*
X239161453Y-122372836D01*
X239694359Y-122152099D01*
X239805263Y-121874868D01*
X244064737Y-121874868D01*
X244175641Y-122152099D01*
X244821593Y-122395323D01*
X245511453Y-122372836D01*
X246044359Y-122152099D01*
X246155263Y-121874868D01*
X250564737Y-121874868D01*
X250675641Y-122152099D01*
X251321593Y-122395323D01*
X252011453Y-122372836D01*
X252544359Y-122152099D01*
X252655263Y-121874868D01*
X251610000Y-120829605D01*
X250564737Y-121874868D01*
X246155263Y-121874868D01*
X245110000Y-120829605D01*
X244064737Y-121874868D01*
X239805263Y-121874868D01*
X238760000Y-120829605D01*
X237714737Y-121874868D01*
X233305263Y-121874868D01*
X232260000Y-120829605D01*
X231214737Y-121874868D01*
X228197427Y-121874868D01*
X227954741Y-121288974D01*
X227326026Y-120660259D01*
X226604984Y-120361593D01*
X230514677Y-120361593D01*
X230537164Y-121051453D01*
X230757901Y-121584359D01*
X231035132Y-121695263D01*
X232080395Y-120650000D01*
X232439605Y-120650000D01*
X233484868Y-121695263D01*
X233762099Y-121584359D01*
X234005323Y-120938407D01*
X233986521Y-120361593D01*
X237014677Y-120361593D01*
X237037164Y-121051453D01*
X237257901Y-121584359D01*
X237535132Y-121695263D01*
X238580395Y-120650000D01*
X238939605Y-120650000D01*
X239984868Y-121695263D01*
X240262099Y-121584359D01*
X240505323Y-120938407D01*
X240486521Y-120361593D01*
X243364677Y-120361593D01*
X243387164Y-121051453D01*
X243607901Y-121584359D01*
X243885132Y-121695263D01*
X244930395Y-120650000D01*
X245289605Y-120650000D01*
X246334868Y-121695263D01*
X246612099Y-121584359D01*
X246855323Y-120938407D01*
X246836521Y-120361593D01*
X249864677Y-120361593D01*
X249887164Y-121051453D01*
X250107901Y-121584359D01*
X250385132Y-121695263D01*
X251430395Y-120650000D01*
X251789605Y-120650000D01*
X252834868Y-121695263D01*
X253112099Y-121584359D01*
X253355323Y-120938407D01*
X253332836Y-120248547D01*
X253112099Y-119715641D01*
X252834868Y-119604737D01*
X251789605Y-120650000D01*
X251430395Y-120650000D01*
X250385132Y-119604737D01*
X250107901Y-119715641D01*
X249864677Y-120361593D01*
X246836521Y-120361593D01*
X246832836Y-120248547D01*
X246612099Y-119715641D01*
X246334868Y-119604737D01*
X245289605Y-120650000D01*
X244930395Y-120650000D01*
X243885132Y-119604737D01*
X243607901Y-119715641D01*
X243364677Y-120361593D01*
X240486521Y-120361593D01*
X240482836Y-120248547D01*
X240262099Y-119715641D01*
X239984868Y-119604737D01*
X238939605Y-120650000D01*
X238580395Y-120650000D01*
X237535132Y-119604737D01*
X237257901Y-119715641D01*
X237014677Y-120361593D01*
X233986521Y-120361593D01*
X233982836Y-120248547D01*
X233762099Y-119715641D01*
X233484868Y-119604737D01*
X232439605Y-120650000D01*
X232080395Y-120650000D01*
X231035132Y-119604737D01*
X230757901Y-119715641D01*
X230514677Y-120361593D01*
X226604984Y-120361593D01*
X226504569Y-120320000D01*
X225615431Y-120320000D01*
X224793974Y-120660259D01*
X224165259Y-121288974D01*
X223825000Y-122110431D01*
X209677000Y-122110431D01*
X209677000Y-121642119D01*
X209464320Y-121128663D01*
X209071337Y-120735680D01*
X208557881Y-120523000D01*
X208002119Y-120523000D01*
X207488663Y-120735680D01*
X207095680Y-121128663D01*
X207010000Y-121335513D01*
X206924320Y-121128663D01*
X206531337Y-120735680D01*
X206017881Y-120523000D01*
X205462119Y-120523000D01*
X204948663Y-120735680D01*
X204555680Y-121128663D01*
X204470000Y-121335513D01*
X204384320Y-121128663D01*
X203991337Y-120735680D01*
X203477881Y-120523000D01*
X202922119Y-120523000D01*
X202408663Y-120735680D01*
X202015680Y-121128663D01*
X201930000Y-121335513D01*
X201844320Y-121128663D01*
X201451337Y-120735680D01*
X200937881Y-120523000D01*
X200382119Y-120523000D01*
X199868663Y-120735680D01*
X199475680Y-121128663D01*
X199390000Y-121335513D01*
X199304320Y-121128663D01*
X198911337Y-120735680D01*
X198397881Y-120523000D01*
X197842119Y-120523000D01*
X197328663Y-120735680D01*
X196935680Y-121128663D01*
X196850000Y-121335513D01*
X196764320Y-121128663D01*
X196371337Y-120735680D01*
X195857881Y-120523000D01*
X195302119Y-120523000D01*
X194788663Y-120735680D01*
X194395680Y-121128663D01*
X194310000Y-121335513D01*
X194224320Y-121128663D01*
X193831337Y-120735680D01*
X193317881Y-120523000D01*
X192762119Y-120523000D01*
X192248663Y-120735680D01*
X191855680Y-121128663D01*
X191770000Y-121335513D01*
X191684320Y-121128663D01*
X191291337Y-120735680D01*
X190777881Y-120523000D01*
X190222119Y-120523000D01*
X189708663Y-120735680D01*
X189315680Y-121128663D01*
X189230000Y-121335513D01*
X189144320Y-121128663D01*
X188751337Y-120735680D01*
X188237881Y-120523000D01*
X187682119Y-120523000D01*
X187168663Y-120735680D01*
X186775680Y-121128663D01*
X186690000Y-121335513D01*
X186604320Y-121128663D01*
X186211337Y-120735680D01*
X185697881Y-120523000D01*
X185142119Y-120523000D01*
X184628663Y-120735680D01*
X184235680Y-121128663D01*
X184150000Y-121335513D01*
X184064320Y-121128663D01*
X183671337Y-120735680D01*
X183157881Y-120523000D01*
X182602119Y-120523000D01*
X182088663Y-120735680D01*
X181695680Y-121128663D01*
X181610000Y-121335513D01*
X181524320Y-121128663D01*
X181131337Y-120735680D01*
X180617881Y-120523000D01*
X180062119Y-120523000D01*
X179548663Y-120735680D01*
X179155680Y-121128663D01*
X179070000Y-121335513D01*
X178984320Y-121128663D01*
X178591337Y-120735680D01*
X178077881Y-120523000D01*
X177522119Y-120523000D01*
X177008663Y-120735680D01*
X176657000Y-121087343D01*
X176657000Y-121031691D01*
X176560327Y-120798302D01*
X176381699Y-120619673D01*
X176148310Y-120523000D01*
X175545750Y-120523000D01*
X175387000Y-120681750D01*
X175133000Y-120681750D01*
X174974250Y-120523000D01*
X174371690Y-120523000D01*
X174138301Y-120619673D01*
X173959673Y-120798302D01*
X173863000Y-121031691D01*
X132447458Y-121031691D01*
X132076026Y-120660259D01*
X131254569Y-120320000D01*
X130365431Y-120320000D01*
X129543974Y-120660259D01*
X128915259Y-121288974D01*
X128575000Y-122110431D01*
X123001006Y-122110431D01*
X123000430Y-122109570D01*
X122504725Y-121778350D01*
X122067598Y-121691400D01*
X121772402Y-121691400D01*
X121335275Y-121778350D01*
X120839570Y-122109570D01*
X120650000Y-122393281D01*
X120460430Y-122109570D01*
X119964725Y-121778350D01*
X119527598Y-121691400D01*
X119232402Y-121691400D01*
X118795275Y-121778350D01*
X118299570Y-122109570D01*
X118110000Y-122393281D01*
X117920430Y-122109570D01*
X117424725Y-121778350D01*
X116987598Y-121691400D01*
X116692402Y-121691400D01*
X116255275Y-121778350D01*
X115759570Y-122109570D01*
X115570000Y-122393281D01*
X115380430Y-122109570D01*
X114884725Y-121778350D01*
X114447598Y-121691400D01*
X114152402Y-121691400D01*
X113715275Y-121778350D01*
X113219570Y-122109570D01*
X113030000Y-122393281D01*
X112840430Y-122109570D01*
X112344725Y-121778350D01*
X111907598Y-121691400D01*
X111612402Y-121691400D01*
X111175275Y-121778350D01*
X110679570Y-122109570D01*
X110490000Y-122393281D01*
X110300430Y-122109570D01*
X109804725Y-121778350D01*
X109367598Y-121691400D01*
X109072402Y-121691400D01*
X108635275Y-121778350D01*
X108139570Y-122109570D01*
X107808350Y-122605275D01*
X107692041Y-123190000D01*
X105667959Y-123190000D01*
X105551650Y-122605275D01*
X105220430Y-122109570D01*
X104724725Y-121778350D01*
X104287598Y-121691400D01*
X103992402Y-121691400D01*
X103555275Y-121778350D01*
X103059570Y-122109570D01*
X102866963Y-122397826D01*
X102488490Y-121983179D01*
X101959027Y-121735032D01*
X101727000Y-121855531D01*
X101473000Y-121855531D01*
X101240973Y-121735032D01*
X100711510Y-121983179D01*
X100330000Y-122401152D01*
X99948490Y-121983179D01*
X99419027Y-121735032D01*
X99187000Y-121855531D01*
X98933000Y-121855531D01*
X98700973Y-121735032D01*
X98171510Y-121983179D01*
X97793037Y-122397826D01*
X97600430Y-122109570D01*
X97104725Y-121778350D01*
X96667598Y-121691400D01*
X96372402Y-121691400D01*
X95935275Y-121778350D01*
X95439570Y-122109570D01*
X95250000Y-122393281D01*
X95060430Y-122109570D01*
X94564725Y-121778350D01*
X94127598Y-121691400D01*
X93832402Y-121691400D01*
X93395275Y-121778350D01*
X92899570Y-122109570D01*
X92710000Y-122393281D01*
X92520430Y-122109570D01*
X92024725Y-121778350D01*
X91587598Y-121691400D01*
X91292402Y-121691400D01*
X90855275Y-121778350D01*
X90359570Y-122109570D01*
X90170000Y-122393281D01*
X89980430Y-122109570D01*
X89484725Y-121778350D01*
X89047598Y-121691400D01*
X88752402Y-121691400D01*
X88315275Y-121778350D01*
X87819570Y-122109570D01*
X87630000Y-122393281D01*
X87440430Y-122109570D01*
X86944725Y-121778350D01*
X86507598Y-121691400D01*
X86212402Y-121691400D01*
X85775275Y-121778350D01*
X85279570Y-122109570D01*
X84948350Y-122605275D01*
X84832041Y-123190000D01*
X74625000Y-123190000D01*
X74625000Y-122745431D01*
X74284741Y-121923974D01*
X73656026Y-121295259D01*
X72834569Y-120955000D01*
X71945431Y-120955000D01*
X71123974Y-121295259D01*
X70495259Y-121923974D01*
X70155000Y-122745431D01*
X70155000Y-123634569D01*
X70495259Y-124456026D01*
X71059233Y-125020000D01*
X59130000Y-125020000D01*
X59130000Y-117665431D01*
X122225000Y-117665431D01*
X122225000Y-118554569D01*
X122565259Y-119376026D01*
X123193974Y-120004741D01*
X124015431Y-120345000D01*
X124904569Y-120345000D01*
X125726026Y-120004741D01*
X126305635Y-119425132D01*
X231214737Y-119425132D01*
X232260000Y-120470395D01*
X233305263Y-119425132D01*
X237714737Y-119425132D01*
X238760000Y-120470395D01*
X239805263Y-119425132D01*
X244064737Y-119425132D01*
X245110000Y-120470395D01*
X246155263Y-119425132D01*
X250564737Y-119425132D01*
X251610000Y-120470395D01*
X252655263Y-119425132D01*
X252544359Y-119147901D01*
X251898407Y-118904677D01*
X251208547Y-118927164D01*
X250675641Y-119147901D01*
X250564737Y-119425132D01*
X246155263Y-119425132D01*
X246044359Y-119147901D01*
X245398407Y-118904677D01*
X244708547Y-118927164D01*
X244175641Y-119147901D01*
X244064737Y-119425132D01*
X239805263Y-119425132D01*
X239694359Y-119147901D01*
X239048407Y-118904677D01*
X238358547Y-118927164D01*
X237825641Y-119147901D01*
X237714737Y-119425132D01*
X233305263Y-119425132D01*
X233194359Y-119147901D01*
X232548407Y-118904677D01*
X231858547Y-118927164D01*
X231325641Y-119147901D01*
X231214737Y-119425132D01*
X126305635Y-119425132D01*
X126354741Y-119376026D01*
X126695000Y-118554569D01*
X126695000Y-117665431D01*
X126354741Y-116843974D01*
X125726026Y-116215259D01*
X124904569Y-115875000D01*
X124015431Y-115875000D01*
X123193974Y-116215259D01*
X122565259Y-116843974D01*
X122225000Y-117665431D01*
X59130000Y-117665431D01*
X59130000Y-115804887D01*
X230525000Y-115804887D01*
X230525000Y-116495113D01*
X230789138Y-117132799D01*
X231277201Y-117620862D01*
X231914887Y-117885000D01*
X232605113Y-117885000D01*
X233242799Y-117620862D01*
X233730862Y-117132799D01*
X233995000Y-116495113D01*
X233995000Y-115804887D01*
X233730862Y-115167201D01*
X233613661Y-115050000D01*
X237012560Y-115050000D01*
X237012560Y-117250000D01*
X237061843Y-117497765D01*
X237202191Y-117707809D01*
X237412235Y-117848157D01*
X237660000Y-117897440D01*
X239860000Y-117897440D01*
X240107765Y-117848157D01*
X240317809Y-117707809D01*
X240458157Y-117497765D01*
X240507440Y-117250000D01*
X240507440Y-115804887D01*
X243375000Y-115804887D01*
X243375000Y-116495113D01*
X243639138Y-117132799D01*
X244127201Y-117620862D01*
X244764887Y-117885000D01*
X245455113Y-117885000D01*
X246092799Y-117620862D01*
X246580862Y-117132799D01*
X246845000Y-116495113D01*
X246845000Y-115804887D01*
X246580862Y-115167201D01*
X246463661Y-115050000D01*
X249862560Y-115050000D01*
X249862560Y-117250000D01*
X249911843Y-117497765D01*
X250052191Y-117707809D01*
X250262235Y-117848157D01*
X250510000Y-117897440D01*
X252710000Y-117897440D01*
X252957765Y-117848157D01*
X253167809Y-117707809D01*
X253308157Y-117497765D01*
X253357440Y-117250000D01*
X253357440Y-115050000D01*
X253308157Y-114802235D01*
X253167809Y-114592191D01*
X252957765Y-114451843D01*
X252710000Y-114402560D01*
X250510000Y-114402560D01*
X250262235Y-114451843D01*
X250052191Y-114592191D01*
X249911843Y-114802235D01*
X249862560Y-115050000D01*
X246463661Y-115050000D01*
X246092799Y-114679138D01*
X245455113Y-114415000D01*
X244764887Y-114415000D01*
X244127201Y-114679138D01*
X243639138Y-115167201D01*
X243375000Y-115804887D01*
X240507440Y-115804887D01*
X240507440Y-115050000D01*
X240458157Y-114802235D01*
X240317809Y-114592191D01*
X240107765Y-114451843D01*
X239860000Y-114402560D01*
X237660000Y-114402560D01*
X237412235Y-114451843D01*
X237202191Y-114592191D01*
X237061843Y-114802235D01*
X237012560Y-115050000D01*
X233613661Y-115050000D01*
X233242799Y-114679138D01*
X232605113Y-114415000D01*
X231914887Y-114415000D01*
X231277201Y-114679138D01*
X230789138Y-115167201D01*
X230525000Y-115804887D01*
X59130000Y-115804887D01*
X59130000Y-112585431D01*
X174295000Y-112585431D01*
X174295000Y-113474569D01*
X174635259Y-114296026D01*
X175263974Y-114924741D01*
X176085431Y-115265000D01*
X176974569Y-115265000D01*
X177796026Y-114924741D01*
X178424741Y-114296026D01*
X178765000Y-113474569D01*
X178765000Y-112585431D01*
X204775000Y-112585431D01*
X204775000Y-113474569D01*
X205115259Y-114296026D01*
X205743974Y-114924741D01*
X206565431Y-115265000D01*
X207454569Y-115265000D01*
X208276026Y-114924741D01*
X208904741Y-114296026D01*
X209245000Y-113474569D01*
X209245000Y-112585431D01*
X208904741Y-111763974D01*
X208276026Y-111135259D01*
X207454569Y-110795000D01*
X206565431Y-110795000D01*
X205743974Y-111135259D01*
X205115259Y-111763974D01*
X204775000Y-112585431D01*
X178765000Y-112585431D01*
X178424741Y-111763974D01*
X177796026Y-111135259D01*
X176974569Y-110795000D01*
X176085431Y-110795000D01*
X175263974Y-111135259D01*
X174635259Y-111763974D01*
X174295000Y-112585431D01*
X59130000Y-112585431D01*
X59130000Y-95364528D01*
X63255077Y-95364528D01*
X63445364Y-95709271D01*
X64326591Y-96060956D01*
X65275323Y-96048641D01*
X66094636Y-95709271D01*
X66284923Y-95364528D01*
X64770000Y-93849605D01*
X63255077Y-95364528D01*
X59130000Y-95364528D01*
X59130000Y-93226591D01*
X62379044Y-93226591D01*
X62391359Y-94175323D01*
X62730729Y-94994636D01*
X63075472Y-95184923D01*
X64590395Y-93670000D01*
X64949605Y-93670000D01*
X66464528Y-95184923D01*
X66809271Y-94994636D01*
X67160956Y-94113409D01*
X67148641Y-93164677D01*
X66809271Y-92345364D01*
X66464528Y-92155077D01*
X64949605Y-93670000D01*
X64590395Y-93670000D01*
X63075472Y-92155077D01*
X62730729Y-92345364D01*
X62379044Y-93226591D01*
X59130000Y-93226591D01*
X59130000Y-91975472D01*
X63255077Y-91975472D01*
X64770000Y-93490395D01*
X66284923Y-91975472D01*
X66094636Y-91630729D01*
X65213409Y-91279044D01*
X64264677Y-91291359D01*
X63445364Y-91630729D01*
X63255077Y-91975472D01*
X59130000Y-91975472D01*
X59130000Y-88671279D01*
X65983282Y-88671279D01*
X66009685Y-89261458D01*
X66184741Y-89684080D01*
X66436042Y-89764353D01*
X67300395Y-88900000D01*
X66436042Y-88035647D01*
X66184741Y-88115920D01*
X65983282Y-88671279D01*
X59130000Y-88671279D01*
X59130000Y-83324528D01*
X63255077Y-83324528D01*
X63445364Y-83669271D01*
X64326591Y-84020956D01*
X65275323Y-84008641D01*
X66094636Y-83669271D01*
X66284923Y-83324528D01*
X64770000Y-81809605D01*
X63255077Y-83324528D01*
X59130000Y-83324528D01*
X59130000Y-81186591D01*
X62379044Y-81186591D01*
X62391359Y-82135323D01*
X62730729Y-82954636D01*
X63075472Y-83144923D01*
X64590395Y-81630000D01*
X64949605Y-81630000D01*
X66464528Y-83144923D01*
X66809271Y-82954636D01*
X67160956Y-82073409D01*
X67148641Y-81124677D01*
X66809271Y-80305364D01*
X66464528Y-80115077D01*
X64949605Y-81630000D01*
X64590395Y-81630000D01*
X63075472Y-80115077D01*
X62730729Y-80305364D01*
X62379044Y-81186591D01*
X59130000Y-81186591D01*
X59130000Y-79935472D01*
X63255077Y-79935472D01*
X64770000Y-81450395D01*
X66284923Y-79935472D01*
X66094636Y-79590729D01*
X65213409Y-79239044D01*
X64264677Y-79251359D01*
X63445364Y-79590729D01*
X63255077Y-79935472D01*
X59130000Y-79935472D01*
X59130000Y-73100000D01*
X72329233Y-73100000D01*
X71765259Y-73663974D01*
X71765259Y-73663974D01*
G37*
X71765259Y-73663974D02*
X71425000Y-74485431D01*
X71425000Y-75374569D01*
X71765259Y-76196026D01*
X72393974Y-76824741D01*
X73215431Y-77165000D01*
X74104569Y-77165000D01*
X74926026Y-76824741D01*
X75554741Y-76196026D01*
X75824472Y-75544839D01*
X76135570Y-76010430D01*
X76631275Y-76341650D01*
X77068402Y-76428600D01*
X77363598Y-76428600D01*
X77800725Y-76341650D01*
X78296430Y-76010430D01*
X78486000Y-75726719D01*
X78675570Y-76010430D01*
X79171275Y-76341650D01*
X79608402Y-76428600D01*
X79903598Y-76428600D01*
X80340725Y-76341650D01*
X80836430Y-76010430D01*
X81026000Y-75726719D01*
X81215570Y-76010430D01*
X81711275Y-76341650D01*
X82148402Y-76428600D01*
X82443598Y-76428600D01*
X82880725Y-76341650D01*
X83376430Y-76010430D01*
X83569037Y-75722174D01*
X83947510Y-76136821D01*
X84476973Y-76384968D01*
X84709000Y-76264469D01*
X84709000Y-75057000D01*
X84689000Y-75057000D01*
X84689000Y-74803000D01*
X84709000Y-74803000D01*
X84709000Y-73595531D01*
X84476973Y-73475032D01*
X83947510Y-73723179D01*
X83569037Y-74137826D01*
X83376430Y-73849570D01*
X82880725Y-73518350D01*
X82443598Y-73431400D01*
X82148402Y-73431400D01*
X81711275Y-73518350D01*
X81215570Y-73849570D01*
X81026000Y-74133281D01*
X80836430Y-73849570D01*
X80340725Y-73518350D01*
X79903598Y-73431400D01*
X79608402Y-73431400D01*
X79171275Y-73518350D01*
X78675570Y-73849570D01*
X78486000Y-74133281D01*
X78296430Y-73849570D01*
X77800725Y-73518350D01*
X77363598Y-73431400D01*
X77068402Y-73431400D01*
X76631275Y-73518350D01*
X76135570Y-73849570D01*
X75824472Y-74315161D01*
X75554741Y-73663974D01*
X74990767Y-73100000D01*
X95745150Y-73100000D01*
X95691230Y-73136028D01*
X95648719Y-73199650D01*
X95371614Y-73476755D01*
X95143598Y-73431400D01*
X94848402Y-73431400D01*
X94411275Y-73518350D01*
X93915570Y-73849570D01*
X93726000Y-74133281D01*
X93536430Y-73849570D01*
X93040725Y-73518350D01*
X92603598Y-73431400D01*
X92308402Y-73431400D01*
X91871275Y-73518350D01*
X91375570Y-73849570D01*
X91186000Y-74133281D01*
X90996430Y-73849570D01*
X90500725Y-73518350D01*
X90063598Y-73431400D01*
X89768402Y-73431400D01*
X89331275Y-73518350D01*
X88835570Y-73849570D01*
X88646000Y-74133281D01*
X88456430Y-73849570D01*
X87960725Y-73518350D01*
X87523598Y-73431400D01*
X87228402Y-73431400D01*
X86791275Y-73518350D01*
X86295570Y-73849570D01*
X86102963Y-74137826D01*
X85724490Y-73723179D01*
X85195027Y-73475032D01*
X84963000Y-73595531D01*
X84963000Y-74803000D01*
X84983000Y-74803000D01*
X84983000Y-75057000D01*
X84963000Y-75057000D01*
X84963000Y-76264469D01*
X85195027Y-76384968D01*
X85724490Y-76136821D01*
X86102963Y-75722174D01*
X86295570Y-76010430D01*
X86791275Y-76341650D01*
X87228402Y-76428600D01*
X87523598Y-76428600D01*
X87960725Y-76341650D01*
X88456430Y-76010430D01*
X88646000Y-75726719D01*
X88835570Y-76010430D01*
X89331275Y-76341650D01*
X89768402Y-76428600D01*
X90063598Y-76428600D01*
X90500725Y-76341650D01*
X90996430Y-76010430D01*
X91186000Y-75726719D01*
X91375570Y-76010430D01*
X91871275Y-76341650D01*
X92308402Y-76428600D01*
X92603598Y-76428600D01*
X93040725Y-76341650D01*
X93536430Y-76010430D01*
X93726000Y-75726719D01*
X93915570Y-76010430D01*
X94411275Y-76341650D01*
X94848402Y-76428600D01*
X95143598Y-76428600D01*
X95580725Y-76341650D01*
X96076430Y-76010430D01*
X96266000Y-75726719D01*
X96455570Y-76010430D01*
X96951275Y-76341650D01*
X97388402Y-76428600D01*
X97683598Y-76428600D01*
X98120725Y-76341650D01*
X98616430Y-76010430D01*
X98806000Y-75726719D01*
X98995570Y-76010430D01*
X99491275Y-76341650D01*
X99928402Y-76428600D01*
X100223598Y-76428600D01*
X100660725Y-76341650D01*
X101156430Y-76010430D01*
X101487650Y-75514725D01*
X101603959Y-74930000D01*
X101507964Y-74447399D01*
X102708036Y-74447399D01*
X102612041Y-74930000D01*
X102728350Y-75514725D01*
X103059570Y-76010430D01*
X103555275Y-76341650D01*
X103992402Y-76428600D01*
X104287598Y-76428600D01*
X104724725Y-76341650D01*
X105220430Y-76010430D01*
X105410000Y-75726719D01*
X105599570Y-76010430D01*
X106095275Y-76341650D01*
X106532402Y-76428600D01*
X106827598Y-76428600D01*
X107264725Y-76341650D01*
X107760430Y-76010430D01*
X107950000Y-75726719D01*
X108139570Y-76010430D01*
X108457275Y-76222714D01*
X108502213Y-76448631D01*
X108619603Y-76624317D01*
X108670630Y-76700685D01*
X108734251Y-76743195D01*
X112255055Y-80264000D01*
X78812063Y-80264000D01*
X78711999Y-80244096D01*
X78611935Y-80264000D01*
X78315577Y-80322949D01*
X78315576Y-80322950D01*
X78315575Y-80322950D01*
X78303906Y-80330747D01*
X77979505Y-80547505D01*
X77922822Y-80632337D01*
X70857969Y-87697191D01*
X70787809Y-87592191D01*
X70577765Y-87451843D01*
X70536477Y-87443630D01*
X70738922Y-87241185D01*
X70965000Y-86695385D01*
X70965000Y-86104615D01*
X70738922Y-85558815D01*
X70321185Y-85141078D01*
X69775385Y-84915000D01*
X69184615Y-84915000D01*
X68638815Y-85141078D01*
X68480000Y-85299893D01*
X68321185Y-85141078D01*
X67775385Y-84915000D01*
X67184615Y-84915000D01*
X66638815Y-85141078D01*
X66221078Y-85558815D01*
X65995000Y-86104615D01*
X65995000Y-86695385D01*
X66221078Y-87241185D01*
X66638815Y-87658922D01*
X66673963Y-87673481D01*
X66615647Y-87856042D01*
X67480000Y-88720395D01*
X67494143Y-88706253D01*
X67673748Y-88885858D01*
X67659605Y-88900000D01*
X67673748Y-88914143D01*
X67494143Y-89093748D01*
X67480000Y-89079605D01*
X66615647Y-89943958D01*
X66695920Y-90195259D01*
X67251279Y-90396718D01*
X67841458Y-90370315D01*
X68195761Y-90223558D01*
X68382235Y-90348157D01*
X68630000Y-90397440D01*
X70330000Y-90397440D01*
X70577765Y-90348157D01*
X70787809Y-90207809D01*
X70928157Y-89997765D01*
X70944421Y-89916000D01*
X70991937Y-89916000D01*
X71092000Y-89935904D01*
X71192063Y-89916000D01*
X71192065Y-89916000D01*
X71488423Y-89857051D01*
X71824495Y-89632495D01*
X71881180Y-89547660D01*
X79132841Y-82296000D01*
X136113010Y-82296000D01*
X136125423Y-82314577D01*
X136600091Y-82631740D01*
X137018667Y-82715000D01*
X137301333Y-82715000D01*
X137719909Y-82631740D01*
X138194577Y-82314577D01*
X138463042Y-81912791D01*
X140259020Y-83708769D01*
X140301532Y-83772392D01*
X140553586Y-83940809D01*
X140775855Y-83985021D01*
X140775856Y-83985021D01*
X140850903Y-83999949D01*
X140925950Y-83985021D01*
X163171391Y-83985021D01*
X166397370Y-87211000D01*
X166228667Y-87211000D01*
X165810091Y-87294260D01*
X165335423Y-87611423D01*
X165100000Y-87963758D01*
X164864577Y-87611423D01*
X164389909Y-87294260D01*
X163971333Y-87211000D01*
X163688667Y-87211000D01*
X163270091Y-87294260D01*
X162795423Y-87611423D01*
X162539053Y-87995108D01*
X162442389Y-87790866D01*
X162027423Y-87414959D01*
X161639039Y-87254096D01*
X161417000Y-87376085D01*
X161417000Y-88519000D01*
X161437000Y-88519000D01*
X161437000Y-88773000D01*
X161417000Y-88773000D01*
X161417000Y-89915915D01*
X161639039Y-90037904D01*
X162027423Y-89877041D01*
X162442389Y-89501134D01*
X162539053Y-89296892D01*
X162795423Y-89680577D01*
X163270091Y-89997740D01*
X163688667Y-90081000D01*
X163971333Y-90081000D01*
X164389909Y-89997740D01*
X164864577Y-89680577D01*
X165100000Y-89328242D01*
X165335423Y-89680577D01*
X165810091Y-89997740D01*
X166228667Y-90081000D01*
X166511333Y-90081000D01*
X166929909Y-89997740D01*
X167404577Y-89680577D01*
X167640000Y-89328242D01*
X167875423Y-89680577D01*
X168350091Y-89997740D01*
X168768667Y-90081000D01*
X169051333Y-90081000D01*
X169469909Y-89997740D01*
X169944577Y-89680577D01*
X170180000Y-89328242D01*
X170415423Y-89680577D01*
X170890091Y-89997740D01*
X171308667Y-90081000D01*
X171591333Y-90081000D01*
X172009909Y-89997740D01*
X172484577Y-89680577D01*
X172720000Y-89328242D01*
X172955423Y-89680577D01*
X173430091Y-89997740D01*
X173848667Y-90081000D01*
X174131333Y-90081000D01*
X174549909Y-89997740D01*
X175024577Y-89680577D01*
X175260000Y-89328242D01*
X175495423Y-89680577D01*
X175970091Y-89997740D01*
X176388667Y-90081000D01*
X176671333Y-90081000D01*
X177089909Y-89997740D01*
X177564577Y-89680577D01*
X177881740Y-89205909D01*
X177993113Y-88646000D01*
X177881740Y-88086091D01*
X177564577Y-87611423D01*
X177089909Y-87294260D01*
X176671333Y-87211000D01*
X176388667Y-87211000D01*
X175970091Y-87294260D01*
X175495423Y-87611423D01*
X175260000Y-87963758D01*
X175024577Y-87611423D01*
X174549909Y-87294260D01*
X174131333Y-87211000D01*
X173848667Y-87211000D01*
X173430091Y-87294260D01*
X172955423Y-87611423D01*
X172720000Y-87963758D01*
X172484577Y-87611423D01*
X172009909Y-87294260D01*
X171591333Y-87211000D01*
X171308667Y-87211000D01*
X170890091Y-87294260D01*
X170415423Y-87611423D01*
X170180000Y-87963758D01*
X169944577Y-87611423D01*
X169469909Y-87294260D01*
X169051333Y-87211000D01*
X168768667Y-87211000D01*
X168588473Y-87246843D01*
X164818641Y-83477011D01*
X197777241Y-83477011D01*
X191465000Y-89789252D01*
X191465000Y-89725431D01*
X191124741Y-88903974D01*
X190496026Y-88275259D01*
X189674569Y-87935000D01*
X188785431Y-87935000D01*
X187963974Y-88275259D01*
X187335259Y-88903974D01*
X186995000Y-89725431D01*
X186995000Y-90614569D01*
X187335259Y-91436026D01*
X187963974Y-92064741D01*
X188785431Y-92405000D01*
X188849252Y-92405000D01*
X179019253Y-102234999D01*
X179018048Y-102234999D01*
X178943001Y-102220071D01*
X178867954Y-102234999D01*
X178867953Y-102234999D01*
X178645684Y-102279211D01*
X178393630Y-102447628D01*
X178351119Y-102511250D01*
X178107218Y-102755152D01*
X178077881Y-102743000D01*
X177522119Y-102743000D01*
X177008663Y-102955680D01*
X176615680Y-103348663D01*
X176530000Y-103555513D01*
X176444320Y-103348663D01*
X176051337Y-102955680D01*
X175537881Y-102743000D01*
X174982119Y-102743000D01*
X174468663Y-102955680D01*
X174075680Y-103348663D01*
X173863000Y-103862119D01*
X173863000Y-104417881D01*
X173905714Y-104521001D01*
X153858632Y-104521001D01*
X147106137Y-97768506D01*
X161429000Y-97768506D01*
X161429000Y-98319494D01*
X161639853Y-98828540D01*
X162029460Y-99218147D01*
X162538506Y-99429000D01*
X163089494Y-99429000D01*
X163598540Y-99218147D01*
X163988147Y-98828540D01*
X164199000Y-98319494D01*
X164199000Y-97768506D01*
X166309000Y-97768506D01*
X166309000Y-98319494D01*
X166519853Y-98828540D01*
X166909460Y-99218147D01*
X167418506Y-99429000D01*
X167969494Y-99429000D01*
X168478540Y-99218147D01*
X168868147Y-98828540D01*
X169079000Y-98319494D01*
X169079000Y-97768506D01*
X168868147Y-97259460D01*
X168478540Y-96869853D01*
X167969494Y-96659000D01*
X167418506Y-96659000D01*
X166909460Y-96869853D01*
X166519853Y-97259460D01*
X166309000Y-97768506D01*
X164199000Y-97768506D01*
X163988147Y-97259460D01*
X163598540Y-96869853D01*
X163089494Y-96659000D01*
X162538506Y-96659000D01*
X162029460Y-96869853D01*
X161639853Y-97259460D01*
X161429000Y-97768506D01*
X147106137Y-97768506D01*
X146641883Y-97304253D01*
X146599371Y-97240629D01*
X146347317Y-97072212D01*
X146125048Y-97028000D01*
X146125043Y-97028000D01*
X146050000Y-97013073D01*
X145974957Y-97028000D01*
X113412473Y-97028000D01*
X113400321Y-96998663D01*
X113007338Y-96605680D01*
X112800488Y-96520000D01*
X113007338Y-96434320D01*
X113400321Y-96041337D01*
X113613001Y-95527881D01*
X113613001Y-94972119D01*
X113400321Y-94458663D01*
X113007338Y-94065680D01*
X112800488Y-93980000D01*
X112820417Y-93971745D01*
X159445861Y-93971745D01*
X159519995Y-94217864D01*
X160057223Y-94410965D01*
X160627454Y-94383778D01*
X161028005Y-94217864D01*
X161102139Y-93971745D01*
X160274000Y-93143605D01*
X159445861Y-93971745D01*
X112820417Y-93971745D01*
X113007338Y-93894320D01*
X113400321Y-93501337D01*
X113613001Y-92987881D01*
X113613001Y-92747223D01*
X158827035Y-92747223D01*
X158854222Y-93317454D01*
X159020136Y-93718005D01*
X159266255Y-93792139D01*
X160094395Y-92964000D01*
X160453605Y-92964000D01*
X161281745Y-93792139D01*
X161527864Y-93718005D01*
X161530290Y-93711254D01*
X161557466Y-93776862D01*
X161961138Y-94180534D01*
X162488561Y-94399000D01*
X163059439Y-94399000D01*
X163586862Y-94180534D01*
X163990534Y-93776862D01*
X164209000Y-93249439D01*
X164209000Y-92678561D01*
X166459000Y-92678561D01*
X166459000Y-93249439D01*
X166677466Y-93776862D01*
X167081138Y-94180534D01*
X167608561Y-94399000D01*
X168179439Y-94399000D01*
X168706862Y-94180534D01*
X168915651Y-93971745D01*
X169565861Y-93971745D01*
X169639995Y-94217864D01*
X170177223Y-94410965D01*
X170747454Y-94383778D01*
X171148005Y-94217864D01*
X171222139Y-93971745D01*
X170394000Y-93143605D01*
X169565861Y-93971745D01*
X168915651Y-93971745D01*
X169110534Y-93776862D01*
X169137525Y-93711701D01*
X169140136Y-93718005D01*
X169386255Y-93792139D01*
X170214395Y-92964000D01*
X170573605Y-92964000D01*
X171401745Y-93792139D01*
X171647864Y-93718005D01*
X171840965Y-93180777D01*
X171813778Y-92610546D01*
X171647864Y-92209995D01*
X171401745Y-92135861D01*
X170573605Y-92964000D01*
X170214395Y-92964000D01*
X169386255Y-92135861D01*
X169140136Y-92209995D01*
X169137710Y-92216746D01*
X169110534Y-92151138D01*
X168915651Y-91956255D01*
X169565861Y-91956255D01*
X170394000Y-92784395D01*
X171222139Y-91956255D01*
X171148005Y-91710136D01*
X170610777Y-91517035D01*
X170040546Y-91544222D01*
X169639995Y-91710136D01*
X169565861Y-91956255D01*
X168915651Y-91956255D01*
X168706862Y-91747466D01*
X168179439Y-91529000D01*
X167608561Y-91529000D01*
X167081138Y-91747466D01*
X166677466Y-92151138D01*
X166459000Y-92678561D01*
X164209000Y-92678561D01*
X163990534Y-92151138D01*
X163586862Y-91747466D01*
X163059439Y-91529000D01*
X162488561Y-91529000D01*
X161961138Y-91747466D01*
X161557466Y-92151138D01*
X161530475Y-92216299D01*
X161527864Y-92209995D01*
X161281745Y-92135861D01*
X160453605Y-92964000D01*
X160094395Y-92964000D01*
X159266255Y-92135861D01*
X159020136Y-92209995D01*
X158827035Y-92747223D01*
X113613001Y-92747223D01*
X113613001Y-92432119D01*
X113400321Y-91918663D01*
X113007338Y-91525680D01*
X112800488Y-91440000D01*
X113007338Y-91354320D01*
X113400321Y-90961337D01*
X113613001Y-90447881D01*
X113613001Y-89892119D01*
X113543957Y-89725431D01*
X122225000Y-89725431D01*
X122225000Y-90614569D01*
X122565259Y-91436026D01*
X123193974Y-92064741D01*
X124015431Y-92405000D01*
X124904569Y-92405000D01*
X125726026Y-92064741D01*
X125834512Y-91956255D01*
X159445861Y-91956255D01*
X160274000Y-92784395D01*
X161102139Y-91956255D01*
X161028005Y-91710136D01*
X160490777Y-91517035D01*
X159920546Y-91544222D01*
X159519995Y-91710136D01*
X159445861Y-91956255D01*
X125834512Y-91956255D01*
X126354741Y-91436026D01*
X126695000Y-90614569D01*
X126695000Y-89725431D01*
X126354741Y-88903974D01*
X126065328Y-88614561D01*
X135725000Y-88614561D01*
X135725000Y-89185439D01*
X135943466Y-89712862D01*
X136347138Y-90116534D01*
X136874561Y-90335000D01*
X137445439Y-90335000D01*
X137972862Y-90116534D01*
X138376534Y-89712862D01*
X138595000Y-89185439D01*
X138595000Y-88614561D01*
X138376534Y-88087138D01*
X138135396Y-87846000D01*
X142062560Y-87846000D01*
X142062560Y-89446000D01*
X142111843Y-89693765D01*
X142252191Y-89903809D01*
X142462235Y-90044157D01*
X142710000Y-90093440D01*
X144310000Y-90093440D01*
X144557765Y-90044157D01*
X144767809Y-89903809D01*
X144908157Y-89693765D01*
X144934785Y-89559894D01*
X145015423Y-89680577D01*
X145490091Y-89997740D01*
X145908667Y-90081000D01*
X146191333Y-90081000D01*
X146609909Y-89997740D01*
X147084577Y-89680577D01*
X147320000Y-89328242D01*
X147555423Y-89680577D01*
X148030091Y-89997740D01*
X148448667Y-90081000D01*
X148731333Y-90081000D01*
X149149909Y-89997740D01*
X149624577Y-89680577D01*
X149860000Y-89328242D01*
X150095423Y-89680577D01*
X150570091Y-89997740D01*
X150988667Y-90081000D01*
X151271333Y-90081000D01*
X151689909Y-89997740D01*
X152164577Y-89680577D01*
X152400000Y-89328242D01*
X152635423Y-89680577D01*
X153110091Y-89997740D01*
X153528667Y-90081000D01*
X153811333Y-90081000D01*
X154229909Y-89997740D01*
X154704577Y-89680577D01*
X154940000Y-89328242D01*
X155175423Y-89680577D01*
X155650091Y-89997740D01*
X156068667Y-90081000D01*
X156351333Y-90081000D01*
X156769909Y-89997740D01*
X157244577Y-89680577D01*
X157480000Y-89328242D01*
X157715423Y-89680577D01*
X158190091Y-89997740D01*
X158608667Y-90081000D01*
X158891333Y-90081000D01*
X159309909Y-89997740D01*
X159784577Y-89680577D01*
X160040947Y-89296892D01*
X160137611Y-89501134D01*
X160552577Y-89877041D01*
X160940961Y-90037904D01*
X161163000Y-89915915D01*
X161163000Y-88773000D01*
X161143000Y-88773000D01*
X161143000Y-88519000D01*
X161163000Y-88519000D01*
X161163000Y-87376085D01*
X160940961Y-87254096D01*
X160552577Y-87414959D01*
X160137611Y-87790866D01*
X160040947Y-87995108D01*
X159784577Y-87611423D01*
X159309909Y-87294260D01*
X158891333Y-87211000D01*
X158608667Y-87211000D01*
X158190091Y-87294260D01*
X157715423Y-87611423D01*
X157480000Y-87963758D01*
X157244577Y-87611423D01*
X156769909Y-87294260D01*
X156351333Y-87211000D01*
X156068667Y-87211000D01*
X155650091Y-87294260D01*
X155175423Y-87611423D01*
X154940000Y-87963758D01*
X154704577Y-87611423D01*
X154229909Y-87294260D01*
X153811333Y-87211000D01*
X153528667Y-87211000D01*
X153110091Y-87294260D01*
X152635423Y-87611423D01*
X152400000Y-87963758D01*
X152164577Y-87611423D01*
X151689909Y-87294260D01*
X151271333Y-87211000D01*
X150988667Y-87211000D01*
X150570091Y-87294260D01*
X150095423Y-87611423D01*
X149860000Y-87963758D01*
X149624577Y-87611423D01*
X149149909Y-87294260D01*
X148731333Y-87211000D01*
X148448667Y-87211000D01*
X148030091Y-87294260D01*
X147555423Y-87611423D01*
X147320000Y-87963758D01*
X147084577Y-87611423D01*
X146609909Y-87294260D01*
X146191333Y-87211000D01*
X145908667Y-87211000D01*
X145490091Y-87294260D01*
X145015423Y-87611423D01*
X144934785Y-87732106D01*
X144908157Y-87598235D01*
X144767809Y-87388191D01*
X144557765Y-87247843D01*
X144310000Y-87198560D01*
X142710000Y-87198560D01*
X142462235Y-87247843D01*
X142252191Y-87388191D01*
X142111843Y-87598235D01*
X142062560Y-87846000D01*
X138135396Y-87846000D01*
X137972862Y-87683466D01*
X137445439Y-87465000D01*
X136874561Y-87465000D01*
X136347138Y-87683466D01*
X135943466Y-88087138D01*
X135725000Y-88614561D01*
X126065328Y-88614561D01*
X125726026Y-88275259D01*
X124904569Y-87935000D01*
X124015431Y-87935000D01*
X123193974Y-88275259D01*
X122565259Y-88903974D01*
X122225000Y-89725431D01*
X113543957Y-89725431D01*
X113400321Y-89378663D01*
X113007338Y-88985680D01*
X112493882Y-88773000D01*
X111938120Y-88773000D01*
X111424664Y-88985680D01*
X111031681Y-89378663D01*
X110819001Y-89892119D01*
X110819001Y-90447881D01*
X110831153Y-90477218D01*
X110587251Y-90721120D01*
X110523630Y-90763630D01*
X110481119Y-90827252D01*
X110481118Y-90827253D01*
X110355213Y-91015684D01*
X110296073Y-91313001D01*
X110311001Y-91388049D01*
X110311000Y-106731956D01*
X110296073Y-106806999D01*
X110311000Y-106882042D01*
X110311000Y-106882046D01*
X110355212Y-107104315D01*
X110523629Y-107356370D01*
X110587253Y-107398882D01*
X110831153Y-107642782D01*
X110819001Y-107672119D01*
X110819001Y-108227881D01*
X111031681Y-108741337D01*
X111424664Y-109134320D01*
X111938120Y-109347000D01*
X112493882Y-109347000D01*
X113007338Y-109134320D01*
X113400321Y-108741337D01*
X113412473Y-108712000D01*
X189154957Y-108712000D01*
X189230000Y-108726927D01*
X189305043Y-108712000D01*
X189305048Y-108712000D01*
X189527317Y-108667788D01*
X189779371Y-108499371D01*
X189821883Y-108435747D01*
X192732782Y-105524848D01*
X192762119Y-105537000D01*
X193317881Y-105537000D01*
X193831337Y-105324320D01*
X194224320Y-104931337D01*
X194310000Y-104724487D01*
X194395680Y-104931337D01*
X194788663Y-105324320D01*
X195302119Y-105537000D01*
X195857881Y-105537000D01*
X196371337Y-105324320D01*
X196764320Y-104931337D01*
X196850000Y-104724487D01*
X196935680Y-104931337D01*
X197328663Y-105324320D01*
X197842119Y-105537000D01*
X198397881Y-105537000D01*
X198911337Y-105324320D01*
X199304320Y-104931337D01*
X199390000Y-104724487D01*
X199475680Y-104931337D01*
X199868663Y-105324320D01*
X200382119Y-105537000D01*
X200937881Y-105537000D01*
X201451337Y-105324320D01*
X201844320Y-104931337D01*
X201930000Y-104724487D01*
X202015680Y-104931337D01*
X202408663Y-105324320D01*
X202922119Y-105537000D01*
X203477881Y-105537000D01*
X203991337Y-105324320D01*
X204384320Y-104931337D01*
X204470000Y-104724487D01*
X204555680Y-104931337D01*
X204948663Y-105324320D01*
X205462119Y-105537000D01*
X206017881Y-105537000D01*
X206531337Y-105324320D01*
X206924320Y-104931337D01*
X207010000Y-104724487D01*
X207095680Y-104931337D01*
X207488663Y-105324320D01*
X208002119Y-105537000D01*
X208557881Y-105537000D01*
X209071337Y-105324320D01*
X209464320Y-104931337D01*
X209677000Y-104417881D01*
X209677000Y-103862119D01*
X209464320Y-103348663D01*
X209239657Y-103124000D01*
X217310371Y-103124000D01*
X221829153Y-107642782D01*
X221817001Y-107672119D01*
X221817001Y-108227881D01*
X222029681Y-108741337D01*
X222422664Y-109134320D01*
X222936120Y-109347000D01*
X223491882Y-109347000D01*
X223907446Y-109174868D01*
X231364737Y-109174868D01*
X231475641Y-109452099D01*
X232121593Y-109695323D01*
X232811453Y-109672836D01*
X233344359Y-109452099D01*
X233455263Y-109174868D01*
X237864737Y-109174868D01*
X237975641Y-109452099D01*
X238621593Y-109695323D01*
X239311453Y-109672836D01*
X239844359Y-109452099D01*
X239955263Y-109174868D01*
X244064737Y-109174868D01*
X244175641Y-109452099D01*
X244821593Y-109695323D01*
X245511453Y-109672836D01*
X246044359Y-109452099D01*
X246155263Y-109174868D01*
X250564737Y-109174868D01*
X250675641Y-109452099D01*
X251321593Y-109695323D01*
X252011453Y-109672836D01*
X252544359Y-109452099D01*
X252655263Y-109174868D01*
X251610000Y-108129605D01*
X250564737Y-109174868D01*
X246155263Y-109174868D01*
X245110000Y-108129605D01*
X244064737Y-109174868D01*
X239955263Y-109174868D01*
X238910000Y-108129605D01*
X237864737Y-109174868D01*
X233455263Y-109174868D01*
X232410000Y-108129605D01*
X231364737Y-109174868D01*
X223907446Y-109174868D01*
X224005338Y-109134320D01*
X224398321Y-108741337D01*
X224611001Y-108227881D01*
X224611001Y-107672119D01*
X224606641Y-107661593D01*
X230664677Y-107661593D01*
X230687164Y-108351453D01*
X230907901Y-108884359D01*
X231185132Y-108995263D01*
X232230395Y-107950000D01*
X232589605Y-107950000D01*
X233634868Y-108995263D01*
X233912099Y-108884359D01*
X234155323Y-108238407D01*
X234136521Y-107661593D01*
X237164677Y-107661593D01*
X237187164Y-108351453D01*
X237407901Y-108884359D01*
X237685132Y-108995263D01*
X238730395Y-107950000D01*
X239089605Y-107950000D01*
X240134868Y-108995263D01*
X240412099Y-108884359D01*
X240655323Y-108238407D01*
X240636521Y-107661593D01*
X243364677Y-107661593D01*
X243387164Y-108351453D01*
X243607901Y-108884359D01*
X243885132Y-108995263D01*
X244930395Y-107950000D01*
X245289605Y-107950000D01*
X246334868Y-108995263D01*
X246612099Y-108884359D01*
X246855323Y-108238407D01*
X246836521Y-107661593D01*
X249864677Y-107661593D01*
X249887164Y-108351453D01*
X250107901Y-108884359D01*
X250385132Y-108995263D01*
X251430395Y-107950000D01*
X251789605Y-107950000D01*
X252834868Y-108995263D01*
X253112099Y-108884359D01*
X253355323Y-108238407D01*
X253332836Y-107548547D01*
X253112099Y-107015641D01*
X252834868Y-106904737D01*
X251789605Y-107950000D01*
X251430395Y-107950000D01*
X250385132Y-106904737D01*
X250107901Y-107015641D01*
X249864677Y-107661593D01*
X246836521Y-107661593D01*
X246832836Y-107548547D01*
X246612099Y-107015641D01*
X246334868Y-106904737D01*
X245289605Y-107950000D01*
X244930395Y-107950000D01*
X243885132Y-106904737D01*
X243607901Y-107015641D01*
X243364677Y-107661593D01*
X240636521Y-107661593D01*
X240632836Y-107548547D01*
X240412099Y-107015641D01*
X240134868Y-106904737D01*
X239089605Y-107950000D01*
X238730395Y-107950000D01*
X237685132Y-106904737D01*
X237407901Y-107015641D01*
X237164677Y-107661593D01*
X234136521Y-107661593D01*
X234132836Y-107548547D01*
X233912099Y-107015641D01*
X233634868Y-106904737D01*
X232589605Y-107950000D01*
X232230395Y-107950000D01*
X231185132Y-106904737D01*
X230907901Y-107015641D01*
X230664677Y-107661593D01*
X224606641Y-107661593D01*
X224398321Y-107158663D01*
X224005338Y-106765680D01*
X223907447Y-106725132D01*
X231364737Y-106725132D01*
X232410000Y-107770395D01*
X233455263Y-106725132D01*
X237864737Y-106725132D01*
X238910000Y-107770395D01*
X239955263Y-106725132D01*
X244064737Y-106725132D01*
X245110000Y-107770395D01*
X246155263Y-106725132D01*
X250564737Y-106725132D01*
X251610000Y-107770395D01*
X252655263Y-106725132D01*
X252544359Y-106447901D01*
X251898407Y-106204677D01*
X251208547Y-106227164D01*
X250675641Y-106447901D01*
X250564737Y-106725132D01*
X246155263Y-106725132D01*
X246044359Y-106447901D01*
X245398407Y-106204677D01*
X244708547Y-106227164D01*
X244175641Y-106447901D01*
X244064737Y-106725132D01*
X239955263Y-106725132D01*
X239844359Y-106447901D01*
X239198407Y-106204677D01*
X238508547Y-106227164D01*
X237975641Y-106447901D01*
X237864737Y-106725132D01*
X233455263Y-106725132D01*
X233344359Y-106447901D01*
X232698407Y-106204677D01*
X232008547Y-106227164D01*
X231475641Y-106447901D01*
X231364737Y-106725132D01*
X223907447Y-106725132D01*
X223798488Y-106680000D01*
X224005338Y-106594320D01*
X224398321Y-106201337D01*
X224611001Y-105687881D01*
X224611001Y-105132119D01*
X224398321Y-104618663D01*
X224005338Y-104225680D01*
X223798488Y-104140000D01*
X224005338Y-104054320D01*
X224398321Y-103661337D01*
X224611001Y-103147881D01*
X224611001Y-103104887D01*
X230675000Y-103104887D01*
X230675000Y-103795113D01*
X230939138Y-104432799D01*
X231427201Y-104920862D01*
X232064887Y-105185000D01*
X232755113Y-105185000D01*
X233392799Y-104920862D01*
X233880862Y-104432799D01*
X234145000Y-103795113D01*
X234145000Y-103104887D01*
X233880862Y-102467201D01*
X233763661Y-102350000D01*
X237162560Y-102350000D01*
X237162560Y-104550000D01*
X237211843Y-104797765D01*
X237352191Y-105007809D01*
X237562235Y-105148157D01*
X237810000Y-105197440D01*
X240010000Y-105197440D01*
X240257765Y-105148157D01*
X240467809Y-105007809D01*
X240608157Y-104797765D01*
X240657440Y-104550000D01*
X240657440Y-103104887D01*
X243375000Y-103104887D01*
X243375000Y-103795113D01*
X243639138Y-104432799D01*
X244127201Y-104920862D01*
X244764887Y-105185000D01*
X245455113Y-105185000D01*
X246092799Y-104920862D01*
X246580862Y-104432799D01*
X246845000Y-103795113D01*
X246845000Y-103104887D01*
X246580862Y-102467201D01*
X246463661Y-102350000D01*
X249862560Y-102350000D01*
X249862560Y-104550000D01*
X249911843Y-104797765D01*
X250052191Y-105007809D01*
X250262235Y-105148157D01*
X250510000Y-105197440D01*
X252710000Y-105197440D01*
X252957765Y-105148157D01*
X253167809Y-105007809D01*
X253308157Y-104797765D01*
X253357440Y-104550000D01*
X253357440Y-102350000D01*
X253308157Y-102102235D01*
X253167809Y-101892191D01*
X252957765Y-101751843D01*
X252710000Y-101702560D01*
X250510000Y-101702560D01*
X250262235Y-101751843D01*
X250052191Y-101892191D01*
X249911843Y-102102235D01*
X249862560Y-102350000D01*
X246463661Y-102350000D01*
X246092799Y-101979138D01*
X245455113Y-101715000D01*
X244764887Y-101715000D01*
X244127201Y-101979138D01*
X243639138Y-102467201D01*
X243375000Y-103104887D01*
X240657440Y-103104887D01*
X240657440Y-102350000D01*
X240608157Y-102102235D01*
X240467809Y-101892191D01*
X240257765Y-101751843D01*
X240010000Y-101702560D01*
X237810000Y-101702560D01*
X237562235Y-101751843D01*
X237352191Y-101892191D01*
X237211843Y-102102235D01*
X237162560Y-102350000D01*
X233763661Y-102350000D01*
X233392799Y-101979138D01*
X232755113Y-101715000D01*
X232064887Y-101715000D01*
X231427201Y-101979138D01*
X230939138Y-102467201D01*
X230675000Y-103104887D01*
X224611001Y-103104887D01*
X224611001Y-102592119D01*
X224398321Y-102078663D01*
X224005338Y-101685680D01*
X223798488Y-101600000D01*
X224005338Y-101514320D01*
X224398321Y-101121337D01*
X224611001Y-100607881D01*
X224611001Y-100052119D01*
X224398321Y-99538663D01*
X224005338Y-99145680D01*
X223798488Y-99060000D01*
X224005338Y-98974320D01*
X224398321Y-98581337D01*
X224611001Y-98067881D01*
X224611001Y-97512119D01*
X224398321Y-96998663D01*
X224005338Y-96605680D01*
X223798488Y-96520000D01*
X223907446Y-96474868D01*
X231364737Y-96474868D01*
X231475641Y-96752099D01*
X232121593Y-96995323D01*
X232811453Y-96972836D01*
X233344359Y-96752099D01*
X233455263Y-96474868D01*
X237864737Y-96474868D01*
X237975641Y-96752099D01*
X238621593Y-96995323D01*
X239311453Y-96972836D01*
X239844359Y-96752099D01*
X239955263Y-96474868D01*
X244064737Y-96474868D01*
X244175641Y-96752099D01*
X244821593Y-96995323D01*
X245511453Y-96972836D01*
X246044359Y-96752099D01*
X246155263Y-96474868D01*
X250564737Y-96474868D01*
X250675641Y-96752099D01*
X251321593Y-96995323D01*
X252011453Y-96972836D01*
X252544359Y-96752099D01*
X252655263Y-96474868D01*
X251610000Y-95429605D01*
X250564737Y-96474868D01*
X246155263Y-96474868D01*
X245110000Y-95429605D01*
X244064737Y-96474868D01*
X239955263Y-96474868D01*
X238910000Y-95429605D01*
X237864737Y-96474868D01*
X233455263Y-96474868D01*
X232410000Y-95429605D01*
X231364737Y-96474868D01*
X223907446Y-96474868D01*
X224005338Y-96434320D01*
X224398321Y-96041337D01*
X224611001Y-95527881D01*
X224611001Y-94972119D01*
X224606641Y-94961593D01*
X230664677Y-94961593D01*
X230687164Y-95651453D01*
X230907901Y-96184359D01*
X231185132Y-96295263D01*
X232230395Y-95250000D01*
X232589605Y-95250000D01*
X233634868Y-96295263D01*
X233912099Y-96184359D01*
X234155323Y-95538407D01*
X234136521Y-94961593D01*
X237164677Y-94961593D01*
X237187164Y-95651453D01*
X237407901Y-96184359D01*
X237685132Y-96295263D01*
X238730395Y-95250000D01*
X239089605Y-95250000D01*
X240134868Y-96295263D01*
X240412099Y-96184359D01*
X240655323Y-95538407D01*
X240636521Y-94961593D01*
X243364677Y-94961593D01*
X243387164Y-95651453D01*
X243607901Y-96184359D01*
X243885132Y-96295263D01*
X244930395Y-95250000D01*
X245289605Y-95250000D01*
X246334868Y-96295263D01*
X246612099Y-96184359D01*
X246855323Y-95538407D01*
X246836521Y-94961593D01*
X249864677Y-94961593D01*
X249887164Y-95651453D01*
X250107901Y-96184359D01*
X250385132Y-96295263D01*
X251430395Y-95250000D01*
X251789605Y-95250000D01*
X252834868Y-96295263D01*
X253112099Y-96184359D01*
X253355323Y-95538407D01*
X253332836Y-94848547D01*
X253112099Y-94315641D01*
X252834868Y-94204737D01*
X251789605Y-95250000D01*
X251430395Y-95250000D01*
X250385132Y-94204737D01*
X250107901Y-94315641D01*
X249864677Y-94961593D01*
X246836521Y-94961593D01*
X246832836Y-94848547D01*
X246612099Y-94315641D01*
X246334868Y-94204737D01*
X245289605Y-95250000D01*
X244930395Y-95250000D01*
X243885132Y-94204737D01*
X243607901Y-94315641D01*
X243364677Y-94961593D01*
X240636521Y-94961593D01*
X240632836Y-94848547D01*
X240412099Y-94315641D01*
X240134868Y-94204737D01*
X239089605Y-95250000D01*
X238730395Y-95250000D01*
X237685132Y-94204737D01*
X237407901Y-94315641D01*
X237164677Y-94961593D01*
X234136521Y-94961593D01*
X234132836Y-94848547D01*
X233912099Y-94315641D01*
X233634868Y-94204737D01*
X232589605Y-95250000D01*
X232230395Y-95250000D01*
X231185132Y-94204737D01*
X230907901Y-94315641D01*
X230664677Y-94961593D01*
X224606641Y-94961593D01*
X224398321Y-94458663D01*
X224005338Y-94065680D01*
X223907447Y-94025132D01*
X231364737Y-94025132D01*
X232410000Y-95070395D01*
X233455263Y-94025132D01*
X237864737Y-94025132D01*
X238910000Y-95070395D01*
X239955263Y-94025132D01*
X244064737Y-94025132D01*
X245110000Y-95070395D01*
X246155263Y-94025132D01*
X250564737Y-94025132D01*
X251610000Y-95070395D01*
X252655263Y-94025132D01*
X252544359Y-93747901D01*
X251898407Y-93504677D01*
X251208547Y-93527164D01*
X250675641Y-93747901D01*
X250564737Y-94025132D01*
X246155263Y-94025132D01*
X246044359Y-93747901D01*
X245398407Y-93504677D01*
X244708547Y-93527164D01*
X244175641Y-93747901D01*
X244064737Y-94025132D01*
X239955263Y-94025132D01*
X239844359Y-93747901D01*
X239198407Y-93504677D01*
X238508547Y-93527164D01*
X237975641Y-93747901D01*
X237864737Y-94025132D01*
X233455263Y-94025132D01*
X233344359Y-93747901D01*
X232698407Y-93504677D01*
X232008547Y-93527164D01*
X231475641Y-93747901D01*
X231364737Y-94025132D01*
X223907447Y-94025132D01*
X223798488Y-93980000D01*
X224005338Y-93894320D01*
X224398321Y-93501337D01*
X224611001Y-92987881D01*
X224611001Y-92432119D01*
X224398321Y-91918663D01*
X224045311Y-91565653D01*
X224223766Y-91530157D01*
X224433810Y-91389809D01*
X224574158Y-91179765D01*
X224623441Y-90932000D01*
X224623441Y-90404887D01*
X230675000Y-90404887D01*
X230675000Y-91095113D01*
X230939138Y-91732799D01*
X231427201Y-92220862D01*
X232064887Y-92485000D01*
X232755113Y-92485000D01*
X233392799Y-92220862D01*
X233880862Y-91732799D01*
X234145000Y-91095113D01*
X234145000Y-90404887D01*
X233880862Y-89767201D01*
X233763661Y-89650000D01*
X237162560Y-89650000D01*
X237162560Y-91850000D01*
X237211843Y-92097765D01*
X237352191Y-92307809D01*
X237562235Y-92448157D01*
X237810000Y-92497440D01*
X240010000Y-92497440D01*
X240257765Y-92448157D01*
X240467809Y-92307809D01*
X240608157Y-92097765D01*
X240657440Y-91850000D01*
X240657440Y-90404887D01*
X243375000Y-90404887D01*
X243375000Y-91095113D01*
X243639138Y-91732799D01*
X244127201Y-92220862D01*
X244764887Y-92485000D01*
X245455113Y-92485000D01*
X246092799Y-92220862D01*
X246580862Y-91732799D01*
X246845000Y-91095113D01*
X246845000Y-90404887D01*
X246580862Y-89767201D01*
X246463661Y-89650000D01*
X249862560Y-89650000D01*
X249862560Y-91850000D01*
X249911843Y-92097765D01*
X250052191Y-92307809D01*
X250262235Y-92448157D01*
X250510000Y-92497440D01*
X252710000Y-92497440D01*
X252957765Y-92448157D01*
X253167809Y-92307809D01*
X253308157Y-92097765D01*
X253357440Y-91850000D01*
X253357440Y-89650000D01*
X253308157Y-89402235D01*
X253167809Y-89192191D01*
X252957765Y-89051843D01*
X252710000Y-89002560D01*
X250510000Y-89002560D01*
X250262235Y-89051843D01*
X250052191Y-89192191D01*
X249911843Y-89402235D01*
X249862560Y-89650000D01*
X246463661Y-89650000D01*
X246092799Y-89279138D01*
X245455113Y-89015000D01*
X244764887Y-89015000D01*
X244127201Y-89279138D01*
X243639138Y-89767201D01*
X243375000Y-90404887D01*
X240657440Y-90404887D01*
X240657440Y-89650000D01*
X240608157Y-89402235D01*
X240467809Y-89192191D01*
X240257765Y-89051843D01*
X240010000Y-89002560D01*
X237810000Y-89002560D01*
X237562235Y-89051843D01*
X237352191Y-89192191D01*
X237211843Y-89402235D01*
X237162560Y-89650000D01*
X233763661Y-89650000D01*
X233392799Y-89279138D01*
X232755113Y-89015000D01*
X232064887Y-89015000D01*
X231427201Y-89279138D01*
X230939138Y-89767201D01*
X230675000Y-90404887D01*
X224623441Y-90404887D01*
X224623441Y-89408000D01*
X224574158Y-89160235D01*
X224433810Y-88950191D01*
X224223766Y-88809843D01*
X223976001Y-88760560D01*
X222452001Y-88760560D01*
X222204236Y-88809843D01*
X221994192Y-88950191D01*
X221853844Y-89160235D01*
X221804561Y-89408000D01*
X221804561Y-90932000D01*
X221853844Y-91179765D01*
X221994192Y-91389809D01*
X222204236Y-91530157D01*
X222382691Y-91565653D01*
X222029681Y-91918663D01*
X221817001Y-92432119D01*
X221817001Y-92987881D01*
X222029681Y-93501337D01*
X222422664Y-93894320D01*
X222629514Y-93980000D01*
X222422664Y-94065680D01*
X222029681Y-94458663D01*
X221817001Y-94972119D01*
X221817001Y-95527881D01*
X222029681Y-96041337D01*
X222422664Y-96434320D01*
X222629514Y-96520000D01*
X222422664Y-96605680D01*
X222029681Y-96998663D01*
X221817001Y-97512119D01*
X221817001Y-98067881D01*
X222029681Y-98581337D01*
X222422664Y-98974320D01*
X222629514Y-99060000D01*
X222422664Y-99145680D01*
X222029681Y-99538663D01*
X221817001Y-100052119D01*
X221817001Y-100430127D01*
X221733318Y-100374212D01*
X221511049Y-100330000D01*
X221511044Y-100330000D01*
X221436001Y-100315073D01*
X221360958Y-100330000D01*
X188543043Y-100330000D01*
X188468000Y-100315073D01*
X188392957Y-100330000D01*
X188392952Y-100330000D01*
X188170683Y-100374212D01*
X187918629Y-100542629D01*
X187876118Y-100606251D01*
X185727218Y-102755152D01*
X185697881Y-102743000D01*
X185142119Y-102743000D01*
X184628663Y-102955680D01*
X184235680Y-103348663D01*
X184150000Y-103555513D01*
X184064320Y-103348663D01*
X183671337Y-102955680D01*
X183157881Y-102743000D01*
X182814630Y-102743000D01*
X195832199Y-89725431D01*
X204775000Y-89725431D01*
X204775000Y-90614569D01*
X205115259Y-91436026D01*
X205743974Y-92064741D01*
X206565431Y-92405000D01*
X207454569Y-92405000D01*
X208276026Y-92064741D01*
X208904741Y-91436026D01*
X209245000Y-90614569D01*
X209245000Y-89725431D01*
X208904741Y-88903974D01*
X208276026Y-88275259D01*
X207454569Y-87935000D01*
X206565431Y-87935000D01*
X205743974Y-88275259D01*
X205115259Y-88903974D01*
X204775000Y-89725431D01*
X195832199Y-89725431D01*
X201782762Y-83774868D01*
X231364737Y-83774868D01*
X231475641Y-84052099D01*
X232121593Y-84295323D01*
X232811453Y-84272836D01*
X233344359Y-84052099D01*
X233455263Y-83774868D01*
X237864737Y-83774868D01*
X237975641Y-84052099D01*
X238621593Y-84295323D01*
X239311453Y-84272836D01*
X239844359Y-84052099D01*
X239955263Y-83774868D01*
X244064737Y-83774868D01*
X244175641Y-84052099D01*
X244821593Y-84295323D01*
X245511453Y-84272836D01*
X246044359Y-84052099D01*
X246155263Y-83774868D01*
X250564737Y-83774868D01*
X250675641Y-84052099D01*
X251321593Y-84295323D01*
X252011453Y-84272836D01*
X252544359Y-84052099D01*
X252655263Y-83774868D01*
X251610000Y-82729605D01*
X250564737Y-83774868D01*
X246155263Y-83774868D01*
X245110000Y-82729605D01*
X244064737Y-83774868D01*
X239955263Y-83774868D01*
X238910000Y-82729605D01*
X237864737Y-83774868D01*
X233455263Y-83774868D01*
X232410000Y-82729605D01*
X231364737Y-83774868D01*
X201782762Y-83774868D01*
X202415750Y-83141881D01*
X202479371Y-83099371D01*
X202647788Y-82847317D01*
X202692000Y-82625048D01*
X202692000Y-82625047D01*
X202706928Y-82550000D01*
X202692000Y-82474953D01*
X202692000Y-82261593D01*
X230664677Y-82261593D01*
X230687164Y-82951453D01*
X230907901Y-83484359D01*
X231185132Y-83595263D01*
X232230395Y-82550000D01*
X232589605Y-82550000D01*
X233634868Y-83595263D01*
X233912099Y-83484359D01*
X234155323Y-82838407D01*
X234136521Y-82261593D01*
X237164677Y-82261593D01*
X237187164Y-82951453D01*
X237407901Y-83484359D01*
X237685132Y-83595263D01*
X238730395Y-82550000D01*
X239089605Y-82550000D01*
X240134868Y-83595263D01*
X240412099Y-83484359D01*
X240655323Y-82838407D01*
X240636521Y-82261593D01*
X243364677Y-82261593D01*
X243387164Y-82951453D01*
X243607901Y-83484359D01*
X243885132Y-83595263D01*
X244930395Y-82550000D01*
X245289605Y-82550000D01*
X246334868Y-83595263D01*
X246612099Y-83484359D01*
X246855323Y-82838407D01*
X246836521Y-82261593D01*
X249864677Y-82261593D01*
X249887164Y-82951453D01*
X250107901Y-83484359D01*
X250385132Y-83595263D01*
X251430395Y-82550000D01*
X251789605Y-82550000D01*
X252834868Y-83595263D01*
X253112099Y-83484359D01*
X253355323Y-82838407D01*
X253332836Y-82148547D01*
X253112099Y-81615641D01*
X252834868Y-81504737D01*
X251789605Y-82550000D01*
X251430395Y-82550000D01*
X250385132Y-81504737D01*
X250107901Y-81615641D01*
X249864677Y-82261593D01*
X246836521Y-82261593D01*
X246832836Y-82148547D01*
X246612099Y-81615641D01*
X246334868Y-81504737D01*
X245289605Y-82550000D01*
X244930395Y-82550000D01*
X243885132Y-81504737D01*
X243607901Y-81615641D01*
X243364677Y-82261593D01*
X240636521Y-82261593D01*
X240632836Y-82148547D01*
X240412099Y-81615641D01*
X240134868Y-81504737D01*
X239089605Y-82550000D01*
X238730395Y-82550000D01*
X237685132Y-81504737D01*
X237407901Y-81615641D01*
X237164677Y-82261593D01*
X234136521Y-82261593D01*
X234132836Y-82148547D01*
X233912099Y-81615641D01*
X233634868Y-81504737D01*
X232589605Y-82550000D01*
X232230395Y-82550000D01*
X231185132Y-81504737D01*
X230907901Y-81615641D01*
X230664677Y-82261593D01*
X202692000Y-82261593D01*
X202692000Y-81325132D01*
X231364737Y-81325132D01*
X232410000Y-82370395D01*
X233455263Y-81325132D01*
X237864737Y-81325132D01*
X238910000Y-82370395D01*
X239955263Y-81325132D01*
X244064737Y-81325132D01*
X245110000Y-82370395D01*
X246155263Y-81325132D01*
X250564737Y-81325132D01*
X251610000Y-82370395D01*
X252655263Y-81325132D01*
X252544359Y-81047901D01*
X251898407Y-80804677D01*
X251208547Y-80827164D01*
X250675641Y-81047901D01*
X250564737Y-81325132D01*
X246155263Y-81325132D01*
X246044359Y-81047901D01*
X245398407Y-80804677D01*
X244708547Y-80827164D01*
X244175641Y-81047901D01*
X244064737Y-81325132D01*
X239955263Y-81325132D01*
X239844359Y-81047901D01*
X239198407Y-80804677D01*
X238508547Y-80827164D01*
X237975641Y-81047901D01*
X237864737Y-81325132D01*
X233455263Y-81325132D01*
X233344359Y-81047901D01*
X232698407Y-80804677D01*
X232008547Y-80827164D01*
X231475641Y-81047901D01*
X231364737Y-81325132D01*
X202692000Y-81325132D01*
X202692000Y-78666472D01*
X202721337Y-78654320D01*
X202925444Y-78450213D01*
X203669392Y-78450213D01*
X203738857Y-78692397D01*
X204262302Y-78879144D01*
X204817368Y-78851362D01*
X205201143Y-78692397D01*
X205270608Y-78450213D01*
X204470000Y-77649605D01*
X203669392Y-78450213D01*
X202925444Y-78450213D01*
X203114320Y-78261337D01*
X203193428Y-78070353D01*
X203247603Y-78201143D01*
X203489787Y-78270608D01*
X204290395Y-77470000D01*
X204649605Y-77470000D01*
X205450213Y-78270608D01*
X205600560Y-78227484D01*
X205600560Y-78232000D01*
X205649843Y-78479765D01*
X205790191Y-78689809D01*
X206000235Y-78830157D01*
X206248000Y-78879440D01*
X207772000Y-78879440D01*
X208019765Y-78830157D01*
X208229809Y-78689809D01*
X208370157Y-78479765D01*
X208419440Y-78232000D01*
X208419440Y-76708000D01*
X208370157Y-76460235D01*
X208229809Y-76250191D01*
X208019765Y-76109843D01*
X207772000Y-76060560D01*
X206248000Y-76060560D01*
X206000235Y-76109843D01*
X205790191Y-76250191D01*
X205649843Y-76460235D01*
X205600560Y-76708000D01*
X205600560Y-76712516D01*
X205450213Y-76669392D01*
X204649605Y-77470000D01*
X204290395Y-77470000D01*
X203489787Y-76669392D01*
X203247603Y-76738857D01*
X203197465Y-76879393D01*
X203114320Y-76678663D01*
X202925444Y-76489787D01*
X203669392Y-76489787D01*
X204470000Y-77290395D01*
X205270608Y-76489787D01*
X205201143Y-76247603D01*
X204677698Y-76060856D01*
X204122632Y-76088638D01*
X203738857Y-76247603D01*
X203669392Y-76489787D01*
X202925444Y-76489787D01*
X202721337Y-76285680D01*
X202207881Y-76073000D01*
X201652119Y-76073000D01*
X201622782Y-76085152D01*
X201378882Y-75841252D01*
X201336370Y-75777628D01*
X201084316Y-75609211D01*
X200862047Y-75564999D01*
X200862042Y-75564999D01*
X200786999Y-75550072D01*
X200711956Y-75564999D01*
X179526043Y-75564999D01*
X179451000Y-75550072D01*
X179375957Y-75564999D01*
X179375953Y-75564999D01*
X179153684Y-75609211D01*
X178901630Y-75777628D01*
X178859119Y-75841250D01*
X174835371Y-79864999D01*
X174549909Y-79674260D01*
X174131333Y-79591000D01*
X173848667Y-79591000D01*
X173668473Y-79626843D01*
X172892872Y-78851242D01*
X172850360Y-78787618D01*
X172598306Y-78619201D01*
X172376037Y-78574989D01*
X172376032Y-78574989D01*
X172300989Y-78560062D01*
X172225946Y-78574989D01*
X114615631Y-78574989D01*
X112367244Y-76326603D01*
X112840430Y-76010430D01*
X113030000Y-75726719D01*
X113219570Y-76010430D01*
X113715275Y-76341650D01*
X114152402Y-76428600D01*
X114447598Y-76428600D01*
X114884725Y-76341650D01*
X115380430Y-76010430D01*
X115570000Y-75726719D01*
X115759570Y-76010430D01*
X116255275Y-76341650D01*
X116692402Y-76428600D01*
X116987598Y-76428600D01*
X117424725Y-76341650D01*
X117920430Y-76010430D01*
X118110000Y-75726719D01*
X118299570Y-76010430D01*
X118795275Y-76341650D01*
X119232402Y-76428600D01*
X119527598Y-76428600D01*
X119964725Y-76341650D01*
X120460430Y-76010430D01*
X120650000Y-75726719D01*
X120839570Y-76010430D01*
X121335275Y-76341650D01*
X121772402Y-76428600D01*
X122067598Y-76428600D01*
X122504725Y-76341650D01*
X123000430Y-76010430D01*
X123331650Y-75514725D01*
X123410079Y-75120431D01*
X128575000Y-75120431D01*
X128575000Y-76009569D01*
X128915259Y-76831026D01*
X129543974Y-77459741D01*
X130365431Y-77800000D01*
X131254569Y-77800000D01*
X132076026Y-77459741D01*
X132704741Y-76831026D01*
X133045000Y-76009569D01*
X133045000Y-75120431D01*
X223825000Y-75120431D01*
X223825000Y-76009569D01*
X224165259Y-76831026D01*
X224793974Y-77459741D01*
X225615431Y-77800000D01*
X226504569Y-77800000D01*
X226734191Y-77704887D01*
X230675000Y-77704887D01*
X230675000Y-78395113D01*
X230939138Y-79032799D01*
X231427201Y-79520862D01*
X232064887Y-79785000D01*
X232755113Y-79785000D01*
X233392799Y-79520862D01*
X233880862Y-79032799D01*
X234145000Y-78395113D01*
X234145000Y-77704887D01*
X233880862Y-77067201D01*
X233763661Y-76950000D01*
X237162560Y-76950000D01*
X237162560Y-79150000D01*
X237211843Y-79397765D01*
X237352191Y-79607809D01*
X237562235Y-79748157D01*
X237810000Y-79797440D01*
X240010000Y-79797440D01*
X240257765Y-79748157D01*
X240467809Y-79607809D01*
X240608157Y-79397765D01*
X240657440Y-79150000D01*
X240657440Y-77704887D01*
X243375000Y-77704887D01*
X243375000Y-78395113D01*
X243639138Y-79032799D01*
X244127201Y-79520862D01*
X244764887Y-79785000D01*
X245455113Y-79785000D01*
X246092799Y-79520862D01*
X246580862Y-79032799D01*
X246845000Y-78395113D01*
X246845000Y-77704887D01*
X246580862Y-77067201D01*
X246463661Y-76950000D01*
X249862560Y-76950000D01*
X249862560Y-79150000D01*
X249911843Y-79397765D01*
X250052191Y-79607809D01*
X250262235Y-79748157D01*
X250510000Y-79797440D01*
X252710000Y-79797440D01*
X252957765Y-79748157D01*
X253167809Y-79607809D01*
X253308157Y-79397765D01*
X253357440Y-79150000D01*
X253357440Y-76950000D01*
X253308157Y-76702235D01*
X253167809Y-76492191D01*
X252957765Y-76351843D01*
X252710000Y-76302560D01*
X250510000Y-76302560D01*
X250262235Y-76351843D01*
X250052191Y-76492191D01*
X249911843Y-76702235D01*
X249862560Y-76950000D01*
X246463661Y-76950000D01*
X246092799Y-76579138D01*
X245455113Y-76315000D01*
X244764887Y-76315000D01*
X244127201Y-76579138D01*
X243639138Y-77067201D01*
X243375000Y-77704887D01*
X240657440Y-77704887D01*
X240657440Y-76950000D01*
X240608157Y-76702235D01*
X240467809Y-76492191D01*
X240257765Y-76351843D01*
X240010000Y-76302560D01*
X237810000Y-76302560D01*
X237562235Y-76351843D01*
X237352191Y-76492191D01*
X237211843Y-76702235D01*
X237162560Y-76950000D01*
X233763661Y-76950000D01*
X233392799Y-76579138D01*
X232755113Y-76315000D01*
X232064887Y-76315000D01*
X231427201Y-76579138D01*
X230939138Y-77067201D01*
X230675000Y-77704887D01*
X226734191Y-77704887D01*
X227326026Y-77459741D01*
X227954741Y-76831026D01*
X228295000Y-76009569D01*
X228295000Y-75120431D01*
X227954741Y-74298974D01*
X227326026Y-73670259D01*
X226504569Y-73330000D01*
X225615431Y-73330000D01*
X224793974Y-73670259D01*
X224165259Y-74298974D01*
X223825000Y-75120431D01*
X133045000Y-75120431D01*
X132704741Y-74298974D01*
X132076026Y-73670259D01*
X131254569Y-73330000D01*
X130365431Y-73330000D01*
X129543974Y-73670259D01*
X128915259Y-74298974D01*
X128575000Y-75120431D01*
X123410079Y-75120431D01*
X123447959Y-74930000D01*
X123331650Y-74345275D01*
X123000430Y-73849570D01*
X122504725Y-73518350D01*
X122067598Y-73431400D01*
X121772402Y-73431400D01*
X121335275Y-73518350D01*
X120839570Y-73849570D01*
X120650000Y-74133281D01*
X120460430Y-73849570D01*
X119964725Y-73518350D01*
X119527598Y-73431400D01*
X119232402Y-73431400D01*
X118795275Y-73518350D01*
X118299570Y-73849570D01*
X118110000Y-74133281D01*
X117920430Y-73849570D01*
X117424725Y-73518350D01*
X116987598Y-73431400D01*
X116692402Y-73431400D01*
X116255275Y-73518350D01*
X115759570Y-73849570D01*
X115570000Y-74133281D01*
X115380430Y-73849570D01*
X114884725Y-73518350D01*
X114447598Y-73431400D01*
X114152402Y-73431400D01*
X113715275Y-73518350D01*
X113219570Y-73849570D01*
X113030000Y-74133281D01*
X112840430Y-73849570D01*
X112344725Y-73518350D01*
X111907598Y-73431400D01*
X111612402Y-73431400D01*
X111175275Y-73518350D01*
X110907148Y-73697507D01*
X110409292Y-73199652D01*
X110366780Y-73136028D01*
X110312860Y-73100000D01*
X255830000Y-73100000D01*
X255830001Y-125020000D01*
X73720767Y-125020000D01*
X74284741Y-124456026D01*
X74625000Y-123634569D01*
X74625000Y-123190000D01*
X84832041Y-123190000D01*
X84948350Y-123774725D01*
X85279570Y-124270430D01*
X85775275Y-124601650D01*
X86212402Y-124688600D01*
X86507598Y-124688600D01*
X86944725Y-124601650D01*
X87440430Y-124270430D01*
X87630000Y-123986719D01*
X87819570Y-124270430D01*
X88315275Y-124601650D01*
X88752402Y-124688600D01*
X89047598Y-124688600D01*
X89484725Y-124601650D01*
X89980430Y-124270430D01*
X90170000Y-123986719D01*
X90359570Y-124270430D01*
X90855275Y-124601650D01*
X91292402Y-124688600D01*
X91587598Y-124688600D01*
X92024725Y-124601650D01*
X92520430Y-124270430D01*
X92710000Y-123986719D01*
X92899570Y-124270430D01*
X93395275Y-124601650D01*
X93832402Y-124688600D01*
X94127598Y-124688600D01*
X94564725Y-124601650D01*
X95060430Y-124270430D01*
X95250000Y-123986719D01*
X95439570Y-124270430D01*
X95935275Y-124601650D01*
X96372402Y-124688600D01*
X96667598Y-124688600D01*
X97104725Y-124601650D01*
X97600430Y-124270430D01*
X97793037Y-123982174D01*
X98171510Y-124396821D01*
X98700973Y-124644968D01*
X98933000Y-124524469D01*
X98933000Y-123317000D01*
X99187000Y-123317000D01*
X99187000Y-124524469D01*
X99419027Y-124644968D01*
X99948490Y-124396821D01*
X100330000Y-123978848D01*
X100711510Y-124396821D01*
X101240973Y-124644968D01*
X101473000Y-124524469D01*
X101473000Y-123317000D01*
X99187000Y-123317000D01*
X98933000Y-123317000D01*
X98913000Y-123317000D01*
X98913000Y-123063000D01*
X98933000Y-123063000D01*
X98933000Y-121855531D01*
X99187000Y-121855531D01*
X99187000Y-123063000D01*
X101473000Y-123063000D01*
X101473000Y-121855531D01*
X101727000Y-121855531D01*
X101727000Y-123063000D01*
X101747000Y-123063000D01*
X101747000Y-123317000D01*
X101727000Y-123317000D01*
X101727000Y-124524469D01*
X101959027Y-124644968D01*
X102488490Y-124396821D01*
X102866963Y-123982174D01*
X103059570Y-124270430D01*
X103555275Y-124601650D01*
X103992402Y-124688600D01*
X104287598Y-124688600D01*
X104724725Y-124601650D01*
X105220430Y-124270430D01*
X105551650Y-123774725D01*
X105667959Y-123190000D01*
X107692041Y-123190000D01*
X107808350Y-123774725D01*
X108139570Y-124270430D01*
X108635275Y-124601650D01*
X109072402Y-124688600D01*
X109367598Y-124688600D01*
X109804725Y-124601650D01*
X110300430Y-124270430D01*
X110490000Y-123986719D01*
X110679570Y-124270430D01*
X111175275Y-124601650D01*
X111612402Y-124688600D01*
X111907598Y-124688600D01*
X112344725Y-124601650D01*
X112840430Y-124270430D01*
X113030000Y-123986719D01*
X113219570Y-124270430D01*
X113715275Y-124601650D01*
X114152402Y-124688600D01*
X114447598Y-124688600D01*
X114884725Y-124601650D01*
X115380430Y-124270430D01*
X115570000Y-123986719D01*
X115759570Y-124270430D01*
X116255275Y-124601650D01*
X116692402Y-124688600D01*
X116987598Y-124688600D01*
X117424725Y-124601650D01*
X117920430Y-124270430D01*
X118110000Y-123986719D01*
X118299570Y-124270430D01*
X118795275Y-124601650D01*
X119232402Y-124688600D01*
X119527598Y-124688600D01*
X119964725Y-124601650D01*
X120460430Y-124270430D01*
X120650000Y-123986719D01*
X120839570Y-124270430D01*
X121335275Y-124601650D01*
X121772402Y-124688600D01*
X122067598Y-124688600D01*
X122504725Y-124601650D01*
X123000430Y-124270430D01*
X123331650Y-123774725D01*
X123447959Y-123190000D01*
X123331650Y-122605275D01*
X123001006Y-122110431D01*
X128575000Y-122110431D01*
X128575000Y-122999569D01*
X128915259Y-123821026D01*
X129543974Y-124449741D01*
X130365431Y-124790000D01*
X131254569Y-124790000D01*
X132076026Y-124449741D01*
X132704741Y-123821026D01*
X133045000Y-122999569D01*
X133045000Y-122205750D01*
X173863000Y-122205750D01*
X173863000Y-122808309D01*
X173959673Y-123041698D01*
X174138301Y-123220327D01*
X174371690Y-123317000D01*
X174974250Y-123317000D01*
X175133000Y-123158250D01*
X175133000Y-122047000D01*
X174021750Y-122047000D01*
X173863000Y-122205750D01*
X133045000Y-122205750D01*
X133045000Y-122110431D01*
X132704741Y-121288974D01*
X132447458Y-121031691D01*
X173863000Y-121031691D01*
X173863000Y-121634250D01*
X174021750Y-121793000D01*
X175133000Y-121793000D01*
X175133000Y-120681750D01*
X175387000Y-120681750D01*
X175387000Y-121793000D01*
X175407000Y-121793000D01*
X175407000Y-122047000D01*
X175387000Y-122047000D01*
X175387000Y-123158250D01*
X175545750Y-123317000D01*
X176148310Y-123317000D01*
X176381699Y-123220327D01*
X176560327Y-123041698D01*
X176657000Y-122808309D01*
X176657000Y-122752657D01*
X177008663Y-123104320D01*
X177522119Y-123317000D01*
X178077881Y-123317000D01*
X178591337Y-123104320D01*
X178984320Y-122711337D01*
X179070000Y-122504487D01*
X179155680Y-122711337D01*
X179548663Y-123104320D01*
X180062119Y-123317000D01*
X180617881Y-123317000D01*
X181131337Y-123104320D01*
X181524320Y-122711337D01*
X181610000Y-122504487D01*
X181695680Y-122711337D01*
X182088663Y-123104320D01*
X182602119Y-123317000D01*
X183157881Y-123317000D01*
X183671337Y-123104320D01*
X184064320Y-122711337D01*
X184150000Y-122504487D01*
X184235680Y-122711337D01*
X184628663Y-123104320D01*
X185142119Y-123317000D01*
X185697881Y-123317000D01*
X186211337Y-123104320D01*
X186604320Y-122711337D01*
X186690000Y-122504487D01*
X186775680Y-122711337D01*
X187168663Y-123104320D01*
X187682119Y-123317000D01*
X188237881Y-123317000D01*
X188751337Y-123104320D01*
X189144320Y-122711337D01*
X189230000Y-122504487D01*
X189315680Y-122711337D01*
X189708663Y-123104320D01*
X190222119Y-123317000D01*
X190777881Y-123317000D01*
X191291337Y-123104320D01*
X191684320Y-122711337D01*
X191770000Y-122504487D01*
X191855680Y-122711337D01*
X192248663Y-123104320D01*
X192762119Y-123317000D01*
X193317881Y-123317000D01*
X193831337Y-123104320D01*
X194224320Y-122711337D01*
X194310000Y-122504487D01*
X194395680Y-122711337D01*
X194788663Y-123104320D01*
X195302119Y-123317000D01*
X195857881Y-123317000D01*
X196371337Y-123104320D01*
X196764320Y-122711337D01*
X196850000Y-122504487D01*
X196935680Y-122711337D01*
X197328663Y-123104320D01*
X197842119Y-123317000D01*
X198397881Y-123317000D01*
X198911337Y-123104320D01*
X199304320Y-122711337D01*
X199390000Y-122504487D01*
X199475680Y-122711337D01*
X199868663Y-123104320D01*
X200382119Y-123317000D01*
X200937881Y-123317000D01*
X201451337Y-123104320D01*
X201844320Y-122711337D01*
X201930000Y-122504487D01*
X202015680Y-122711337D01*
X202408663Y-123104320D01*
X202922119Y-123317000D01*
X203477881Y-123317000D01*
X203991337Y-123104320D01*
X204384320Y-122711337D01*
X204470000Y-122504487D01*
X204555680Y-122711337D01*
X204948663Y-123104320D01*
X205462119Y-123317000D01*
X206017881Y-123317000D01*
X206531337Y-123104320D01*
X206924320Y-122711337D01*
X207010000Y-122504487D01*
X207095680Y-122711337D01*
X207488663Y-123104320D01*
X208002119Y-123317000D01*
X208557881Y-123317000D01*
X209071337Y-123104320D01*
X209464320Y-122711337D01*
X209677000Y-122197881D01*
X209677000Y-122110431D01*
X223825000Y-122110431D01*
X223825000Y-122999569D01*
X224165259Y-123821026D01*
X224793974Y-124449741D01*
X225615431Y-124790000D01*
X226504569Y-124790000D01*
X227326026Y-124449741D01*
X227954741Y-123821026D01*
X228295000Y-122999569D01*
X228295000Y-122110431D01*
X228197427Y-121874868D01*
X231214737Y-121874868D01*
X231325641Y-122152099D01*
X231971593Y-122395323D01*
X232661453Y-122372836D01*
X233194359Y-122152099D01*
X233305263Y-121874868D01*
X237714737Y-121874868D01*
X237825641Y-122152099D01*
X238471593Y-122395323D01*
X239161453Y-122372836D01*
X239694359Y-122152099D01*
X239805263Y-121874868D01*
X244064737Y-121874868D01*
X244175641Y-122152099D01*
X244821593Y-122395323D01*
X245511453Y-122372836D01*
X246044359Y-122152099D01*
X246155263Y-121874868D01*
X250564737Y-121874868D01*
X250675641Y-122152099D01*
X251321593Y-122395323D01*
X252011453Y-122372836D01*
X252544359Y-122152099D01*
X252655263Y-121874868D01*
X251610000Y-120829605D01*
X250564737Y-121874868D01*
X246155263Y-121874868D01*
X245110000Y-120829605D01*
X244064737Y-121874868D01*
X239805263Y-121874868D01*
X238760000Y-120829605D01*
X237714737Y-121874868D01*
X233305263Y-121874868D01*
X232260000Y-120829605D01*
X231214737Y-121874868D01*
X228197427Y-121874868D01*
X227954741Y-121288974D01*
X227326026Y-120660259D01*
X226604984Y-120361593D01*
X230514677Y-120361593D01*
X230537164Y-121051453D01*
X230757901Y-121584359D01*
X231035132Y-121695263D01*
X232080395Y-120650000D01*
X232439605Y-120650000D01*
X233484868Y-121695263D01*
X233762099Y-121584359D01*
X234005323Y-120938407D01*
X233986521Y-120361593D01*
X237014677Y-120361593D01*
X237037164Y-121051453D01*
X237257901Y-121584359D01*
X237535132Y-121695263D01*
X238580395Y-120650000D01*
X238939605Y-120650000D01*
X239984868Y-121695263D01*
X240262099Y-121584359D01*
X240505323Y-120938407D01*
X240486521Y-120361593D01*
X243364677Y-120361593D01*
X243387164Y-121051453D01*
X243607901Y-121584359D01*
X243885132Y-121695263D01*
X244930395Y-120650000D01*
X245289605Y-120650000D01*
X246334868Y-121695263D01*
X246612099Y-121584359D01*
X246855323Y-120938407D01*
X246836521Y-120361593D01*
X249864677Y-120361593D01*
X249887164Y-121051453D01*
X250107901Y-121584359D01*
X250385132Y-121695263D01*
X251430395Y-120650000D01*
X251789605Y-120650000D01*
X252834868Y-121695263D01*
X253112099Y-121584359D01*
X253355323Y-120938407D01*
X253332836Y-120248547D01*
X253112099Y-119715641D01*
X252834868Y-119604737D01*
X251789605Y-120650000D01*
X251430395Y-120650000D01*
X250385132Y-119604737D01*
X250107901Y-119715641D01*
X249864677Y-120361593D01*
X246836521Y-120361593D01*
X246832836Y-120248547D01*
X246612099Y-119715641D01*
X246334868Y-119604737D01*
X245289605Y-120650000D01*
X244930395Y-120650000D01*
X243885132Y-119604737D01*
X243607901Y-119715641D01*
X243364677Y-120361593D01*
X240486521Y-120361593D01*
X240482836Y-120248547D01*
X240262099Y-119715641D01*
X239984868Y-119604737D01*
X238939605Y-120650000D01*
X238580395Y-120650000D01*
X237535132Y-119604737D01*
X237257901Y-119715641D01*
X237014677Y-120361593D01*
X233986521Y-120361593D01*
X233982836Y-120248547D01*
X233762099Y-119715641D01*
X233484868Y-119604737D01*
X232439605Y-120650000D01*
X232080395Y-120650000D01*
X231035132Y-119604737D01*
X230757901Y-119715641D01*
X230514677Y-120361593D01*
X226604984Y-120361593D01*
X226504569Y-120320000D01*
X225615431Y-120320000D01*
X224793974Y-120660259D01*
X224165259Y-121288974D01*
X223825000Y-122110431D01*
X209677000Y-122110431D01*
X209677000Y-121642119D01*
X209464320Y-121128663D01*
X209071337Y-120735680D01*
X208557881Y-120523000D01*
X208002119Y-120523000D01*
X207488663Y-120735680D01*
X207095680Y-121128663D01*
X207010000Y-121335513D01*
X206924320Y-121128663D01*
X206531337Y-120735680D01*
X206017881Y-120523000D01*
X205462119Y-120523000D01*
X204948663Y-120735680D01*
X204555680Y-121128663D01*
X204470000Y-121335513D01*
X204384320Y-121128663D01*
X203991337Y-120735680D01*
X203477881Y-120523000D01*
X202922119Y-120523000D01*
X202408663Y-120735680D01*
X202015680Y-121128663D01*
X201930000Y-121335513D01*
X201844320Y-121128663D01*
X201451337Y-120735680D01*
X200937881Y-120523000D01*
X200382119Y-120523000D01*
X199868663Y-120735680D01*
X199475680Y-121128663D01*
X199390000Y-121335513D01*
X199304320Y-121128663D01*
X198911337Y-120735680D01*
X198397881Y-120523000D01*
X197842119Y-120523000D01*
X197328663Y-120735680D01*
X196935680Y-121128663D01*
X196850000Y-121335513D01*
X196764320Y-121128663D01*
X196371337Y-120735680D01*
X195857881Y-120523000D01*
X195302119Y-120523000D01*
X194788663Y-120735680D01*
X194395680Y-121128663D01*
X194310000Y-121335513D01*
X194224320Y-121128663D01*
X193831337Y-120735680D01*
X193317881Y-120523000D01*
X192762119Y-120523000D01*
X192248663Y-120735680D01*
X191855680Y-121128663D01*
X191770000Y-121335513D01*
X191684320Y-121128663D01*
X191291337Y-120735680D01*
X190777881Y-120523000D01*
X190222119Y-120523000D01*
X189708663Y-120735680D01*
X189315680Y-121128663D01*
X189230000Y-121335513D01*
X189144320Y-121128663D01*
X188751337Y-120735680D01*
X188237881Y-120523000D01*
X187682119Y-120523000D01*
X187168663Y-120735680D01*
X186775680Y-121128663D01*
X186690000Y-121335513D01*
X186604320Y-121128663D01*
X186211337Y-120735680D01*
X185697881Y-120523000D01*
X185142119Y-120523000D01*
X184628663Y-120735680D01*
X184235680Y-121128663D01*
X184150000Y-121335513D01*
X184064320Y-121128663D01*
X183671337Y-120735680D01*
X183157881Y-120523000D01*
X182602119Y-120523000D01*
X182088663Y-120735680D01*
X181695680Y-121128663D01*
X181610000Y-121335513D01*
X181524320Y-121128663D01*
X181131337Y-120735680D01*
X180617881Y-120523000D01*
X180062119Y-120523000D01*
X179548663Y-120735680D01*
X179155680Y-121128663D01*
X179070000Y-121335513D01*
X178984320Y-121128663D01*
X178591337Y-120735680D01*
X178077881Y-120523000D01*
X177522119Y-120523000D01*
X177008663Y-120735680D01*
X176657000Y-121087343D01*
X176657000Y-121031691D01*
X176560327Y-120798302D01*
X176381699Y-120619673D01*
X176148310Y-120523000D01*
X175545750Y-120523000D01*
X175387000Y-120681750D01*
X175133000Y-120681750D01*
X174974250Y-120523000D01*
X174371690Y-120523000D01*
X174138301Y-120619673D01*
X173959673Y-120798302D01*
X173863000Y-121031691D01*
X132447458Y-121031691D01*
X132076026Y-120660259D01*
X131254569Y-120320000D01*
X130365431Y-120320000D01*
X129543974Y-120660259D01*
X128915259Y-121288974D01*
X128575000Y-122110431D01*
X123001006Y-122110431D01*
X123000430Y-122109570D01*
X122504725Y-121778350D01*
X122067598Y-121691400D01*
X121772402Y-121691400D01*
X121335275Y-121778350D01*
X120839570Y-122109570D01*
X120650000Y-122393281D01*
X120460430Y-122109570D01*
X119964725Y-121778350D01*
X119527598Y-121691400D01*
X119232402Y-121691400D01*
X118795275Y-121778350D01*
X118299570Y-122109570D01*
X118110000Y-122393281D01*
X117920430Y-122109570D01*
X117424725Y-121778350D01*
X116987598Y-121691400D01*
X116692402Y-121691400D01*
X116255275Y-121778350D01*
X115759570Y-122109570D01*
X115570000Y-122393281D01*
X115380430Y-122109570D01*
X114884725Y-121778350D01*
X114447598Y-121691400D01*
X114152402Y-121691400D01*
X113715275Y-121778350D01*
X113219570Y-122109570D01*
X113030000Y-122393281D01*
X112840430Y-122109570D01*
X112344725Y-121778350D01*
X111907598Y-121691400D01*
X111612402Y-121691400D01*
X111175275Y-121778350D01*
X110679570Y-122109570D01*
X110490000Y-122393281D01*
X110300430Y-122109570D01*
X109804725Y-121778350D01*
X109367598Y-121691400D01*
X109072402Y-121691400D01*
X108635275Y-121778350D01*
X108139570Y-122109570D01*
X107808350Y-122605275D01*
X107692041Y-123190000D01*
X105667959Y-123190000D01*
X105551650Y-122605275D01*
X105220430Y-122109570D01*
X104724725Y-121778350D01*
X104287598Y-121691400D01*
X103992402Y-121691400D01*
X103555275Y-121778350D01*
X103059570Y-122109570D01*
X102866963Y-122397826D01*
X102488490Y-121983179D01*
X101959027Y-121735032D01*
X101727000Y-121855531D01*
X101473000Y-121855531D01*
X101240973Y-121735032D01*
X100711510Y-121983179D01*
X100330000Y-122401152D01*
X99948490Y-121983179D01*
X99419027Y-121735032D01*
X99187000Y-121855531D01*
X98933000Y-121855531D01*
X98700973Y-121735032D01*
X98171510Y-121983179D01*
X97793037Y-122397826D01*
X97600430Y-122109570D01*
X97104725Y-121778350D01*
X96667598Y-121691400D01*
X96372402Y-121691400D01*
X95935275Y-121778350D01*
X95439570Y-122109570D01*
X95250000Y-122393281D01*
X95060430Y-122109570D01*
X94564725Y-121778350D01*
X94127598Y-121691400D01*
X93832402Y-121691400D01*
X93395275Y-121778350D01*
X92899570Y-122109570D01*
X92710000Y-122393281D01*
X92520430Y-122109570D01*
X92024725Y-121778350D01*
X91587598Y-121691400D01*
X91292402Y-121691400D01*
X90855275Y-121778350D01*
X90359570Y-122109570D01*
X90170000Y-122393281D01*
X89980430Y-122109570D01*
X89484725Y-121778350D01*
X89047598Y-121691400D01*
X88752402Y-121691400D01*
X88315275Y-121778350D01*
X87819570Y-122109570D01*
X87630000Y-122393281D01*
X87440430Y-122109570D01*
X86944725Y-121778350D01*
X86507598Y-121691400D01*
X86212402Y-121691400D01*
X85775275Y-121778350D01*
X85279570Y-122109570D01*
X84948350Y-122605275D01*
X84832041Y-123190000D01*
X74625000Y-123190000D01*
X74625000Y-122745431D01*
X74284741Y-121923974D01*
X73656026Y-121295259D01*
X72834569Y-120955000D01*
X71945431Y-120955000D01*
X71123974Y-121295259D01*
X70495259Y-121923974D01*
X70155000Y-122745431D01*
X70155000Y-123634569D01*
X70495259Y-124456026D01*
X71059233Y-125020000D01*
X59130000Y-125020000D01*
X59130000Y-117665431D01*
X122225000Y-117665431D01*
X122225000Y-118554569D01*
X122565259Y-119376026D01*
X123193974Y-120004741D01*
X124015431Y-120345000D01*
X124904569Y-120345000D01*
X125726026Y-120004741D01*
X126305635Y-119425132D01*
X231214737Y-119425132D01*
X232260000Y-120470395D01*
X233305263Y-119425132D01*
X237714737Y-119425132D01*
X238760000Y-120470395D01*
X239805263Y-119425132D01*
X244064737Y-119425132D01*
X245110000Y-120470395D01*
X246155263Y-119425132D01*
X250564737Y-119425132D01*
X251610000Y-120470395D01*
X252655263Y-119425132D01*
X252544359Y-119147901D01*
X251898407Y-118904677D01*
X251208547Y-118927164D01*
X250675641Y-119147901D01*
X250564737Y-119425132D01*
X246155263Y-119425132D01*
X246044359Y-119147901D01*
X245398407Y-118904677D01*
X244708547Y-118927164D01*
X244175641Y-119147901D01*
X244064737Y-119425132D01*
X239805263Y-119425132D01*
X239694359Y-119147901D01*
X239048407Y-118904677D01*
X238358547Y-118927164D01*
X237825641Y-119147901D01*
X237714737Y-119425132D01*
X233305263Y-119425132D01*
X233194359Y-119147901D01*
X232548407Y-118904677D01*
X231858547Y-118927164D01*
X231325641Y-119147901D01*
X231214737Y-119425132D01*
X126305635Y-119425132D01*
X126354741Y-119376026D01*
X126695000Y-118554569D01*
X126695000Y-117665431D01*
X126354741Y-116843974D01*
X125726026Y-116215259D01*
X124904569Y-115875000D01*
X124015431Y-115875000D01*
X123193974Y-116215259D01*
X122565259Y-116843974D01*
X122225000Y-117665431D01*
X59130000Y-117665431D01*
X59130000Y-115804887D01*
X230525000Y-115804887D01*
X230525000Y-116495113D01*
X230789138Y-117132799D01*
X231277201Y-117620862D01*
X231914887Y-117885000D01*
X232605113Y-117885000D01*
X233242799Y-117620862D01*
X233730862Y-117132799D01*
X233995000Y-116495113D01*
X233995000Y-115804887D01*
X233730862Y-115167201D01*
X233613661Y-115050000D01*
X237012560Y-115050000D01*
X237012560Y-117250000D01*
X237061843Y-117497765D01*
X237202191Y-117707809D01*
X237412235Y-117848157D01*
X237660000Y-117897440D01*
X239860000Y-117897440D01*
X240107765Y-117848157D01*
X240317809Y-117707809D01*
X240458157Y-117497765D01*
X240507440Y-117250000D01*
X240507440Y-115804887D01*
X243375000Y-115804887D01*
X243375000Y-116495113D01*
X243639138Y-117132799D01*
X244127201Y-117620862D01*
X244764887Y-117885000D01*
X245455113Y-117885000D01*
X246092799Y-117620862D01*
X246580862Y-117132799D01*
X246845000Y-116495113D01*
X246845000Y-115804887D01*
X246580862Y-115167201D01*
X246463661Y-115050000D01*
X249862560Y-115050000D01*
X249862560Y-117250000D01*
X249911843Y-117497765D01*
X250052191Y-117707809D01*
X250262235Y-117848157D01*
X250510000Y-117897440D01*
X252710000Y-117897440D01*
X252957765Y-117848157D01*
X253167809Y-117707809D01*
X253308157Y-117497765D01*
X253357440Y-117250000D01*
X253357440Y-115050000D01*
X253308157Y-114802235D01*
X253167809Y-114592191D01*
X252957765Y-114451843D01*
X252710000Y-114402560D01*
X250510000Y-114402560D01*
X250262235Y-114451843D01*
X250052191Y-114592191D01*
X249911843Y-114802235D01*
X249862560Y-115050000D01*
X246463661Y-115050000D01*
X246092799Y-114679138D01*
X245455113Y-114415000D01*
X244764887Y-114415000D01*
X244127201Y-114679138D01*
X243639138Y-115167201D01*
X243375000Y-115804887D01*
X240507440Y-115804887D01*
X240507440Y-115050000D01*
X240458157Y-114802235D01*
X240317809Y-114592191D01*
X240107765Y-114451843D01*
X239860000Y-114402560D01*
X237660000Y-114402560D01*
X237412235Y-114451843D01*
X237202191Y-114592191D01*
X237061843Y-114802235D01*
X237012560Y-115050000D01*
X233613661Y-115050000D01*
X233242799Y-114679138D01*
X232605113Y-114415000D01*
X231914887Y-114415000D01*
X231277201Y-114679138D01*
X230789138Y-115167201D01*
X230525000Y-115804887D01*
X59130000Y-115804887D01*
X59130000Y-112585431D01*
X174295000Y-112585431D01*
X174295000Y-113474569D01*
X174635259Y-114296026D01*
X175263974Y-114924741D01*
X176085431Y-115265000D01*
X176974569Y-115265000D01*
X177796026Y-114924741D01*
X178424741Y-114296026D01*
X178765000Y-113474569D01*
X178765000Y-112585431D01*
X204775000Y-112585431D01*
X204775000Y-113474569D01*
X205115259Y-114296026D01*
X205743974Y-114924741D01*
X206565431Y-115265000D01*
X207454569Y-115265000D01*
X208276026Y-114924741D01*
X208904741Y-114296026D01*
X209245000Y-113474569D01*
X209245000Y-112585431D01*
X208904741Y-111763974D01*
X208276026Y-111135259D01*
X207454569Y-110795000D01*
X206565431Y-110795000D01*
X205743974Y-111135259D01*
X205115259Y-111763974D01*
X204775000Y-112585431D01*
X178765000Y-112585431D01*
X178424741Y-111763974D01*
X177796026Y-111135259D01*
X176974569Y-110795000D01*
X176085431Y-110795000D01*
X175263974Y-111135259D01*
X174635259Y-111763974D01*
X174295000Y-112585431D01*
X59130000Y-112585431D01*
X59130000Y-95364528D01*
X63255077Y-95364528D01*
X63445364Y-95709271D01*
X64326591Y-96060956D01*
X65275323Y-96048641D01*
X66094636Y-95709271D01*
X66284923Y-95364528D01*
X64770000Y-93849605D01*
X63255077Y-95364528D01*
X59130000Y-95364528D01*
X59130000Y-93226591D01*
X62379044Y-93226591D01*
X62391359Y-94175323D01*
X62730729Y-94994636D01*
X63075472Y-95184923D01*
X64590395Y-93670000D01*
X64949605Y-93670000D01*
X66464528Y-95184923D01*
X66809271Y-94994636D01*
X67160956Y-94113409D01*
X67148641Y-93164677D01*
X66809271Y-92345364D01*
X66464528Y-92155077D01*
X64949605Y-93670000D01*
X64590395Y-93670000D01*
X63075472Y-92155077D01*
X62730729Y-92345364D01*
X62379044Y-93226591D01*
X59130000Y-93226591D01*
X59130000Y-91975472D01*
X63255077Y-91975472D01*
X64770000Y-93490395D01*
X66284923Y-91975472D01*
X66094636Y-91630729D01*
X65213409Y-91279044D01*
X64264677Y-91291359D01*
X63445364Y-91630729D01*
X63255077Y-91975472D01*
X59130000Y-91975472D01*
X59130000Y-88671279D01*
X65983282Y-88671279D01*
X66009685Y-89261458D01*
X66184741Y-89684080D01*
X66436042Y-89764353D01*
X67300395Y-88900000D01*
X66436042Y-88035647D01*
X66184741Y-88115920D01*
X65983282Y-88671279D01*
X59130000Y-88671279D01*
X59130000Y-83324528D01*
X63255077Y-83324528D01*
X63445364Y-83669271D01*
X64326591Y-84020956D01*
X65275323Y-84008641D01*
X66094636Y-83669271D01*
X66284923Y-83324528D01*
X64770000Y-81809605D01*
X63255077Y-83324528D01*
X59130000Y-83324528D01*
X59130000Y-81186591D01*
X62379044Y-81186591D01*
X62391359Y-82135323D01*
X62730729Y-82954636D01*
X63075472Y-83144923D01*
X64590395Y-81630000D01*
X64949605Y-81630000D01*
X66464528Y-83144923D01*
X66809271Y-82954636D01*
X67160956Y-82073409D01*
X67148641Y-81124677D01*
X66809271Y-80305364D01*
X66464528Y-80115077D01*
X64949605Y-81630000D01*
X64590395Y-81630000D01*
X63075472Y-80115077D01*
X62730729Y-80305364D01*
X62379044Y-81186591D01*
X59130000Y-81186591D01*
X59130000Y-79935472D01*
X63255077Y-79935472D01*
X64770000Y-81450395D01*
X66284923Y-79935472D01*
X66094636Y-79590729D01*
X65213409Y-79239044D01*
X64264677Y-79251359D01*
X63445364Y-79590729D01*
X63255077Y-79935472D01*
X59130000Y-79935472D01*
X59130000Y-73100000D01*
X72329233Y-73100000D01*
X71765259Y-73663974D01*
G36*
X158877000Y-80899000D02*
X158897000Y-80899000D01*
X158897000Y-81153000D01*
X158877000Y-81153000D01*
X158877000Y-81173000D01*
X158623000Y-81173000D01*
X158623000Y-81153000D01*
X158603000Y-81153000D01*
X158603000Y-80899000D01*
X158623000Y-80899000D01*
X158623000Y-80879000D01*
X158877000Y-80879000D01*
X158877000Y-80899000D01*
X158877000Y-80899000D01*
G37*
X158877000Y-80899000D02*
X158897000Y-80899000D01*
X158897000Y-81153000D01*
X158877000Y-81153000D01*
X158877000Y-81173000D01*
X158623000Y-81173000D01*
X158623000Y-81153000D01*
X158603000Y-81153000D01*
X158603000Y-80899000D01*
X158623000Y-80899000D01*
X158623000Y-80879000D01*
X158877000Y-80879000D01*
X158877000Y-80899000D01*
G04 #@! TD*
M02*
